M48
;GenerationSoftware,Autodesk,EAGLE,9.6.0*%
;CreationDate,2020-03-31T08:39:51Z*%
FMAT,2
ICI,OFF
METRIC,TZ,000.000
T2C0.350
T1C0.700
%
G90
M71
T1
X2311Y15343
X15164Y42378
X15164Y48378
X15164Y40878
X15164Y46878
X15164Y43878
X15164Y45378
X2311Y7597
X2311Y1597
X2311Y6097
X2311Y3097
X2311Y4597
X5944Y7597
X5944Y1597
X5944Y6097
X5944Y3097
X5944Y4597
X9576Y7597
X9576Y1597
X9576Y6097
X9576Y3097
X9576Y4597
X2311Y16843
X2311Y10843
X2311Y12343
X2311Y13843
X5944Y16843
X5944Y10843
X5944Y15343
X5944Y12343
X5944Y13843
X8661Y25195
X8661Y28195
X8661Y26695
T2
X7634Y24160
X7823Y18771
X3399Y23243
X7603Y26055
X3251Y27838
X1928Y19888
X9296Y37275
X2997Y18771
X9944Y9081
X1930Y18821
X11040Y7620
X9172Y24102
X8820Y23100
X8433Y8941
X6646Y34171
X10223Y13487
X3988Y20864
X10211Y33401
X4191Y7597
X10211Y14351
X10198Y19177
X8280Y39688
X9296Y39688
X8280Y38627
X8280Y37275
X9296Y38627
X15735Y38316
X14713Y38316
X13551Y37275
X14713Y37275
X15735Y37275
X13500Y47549
X5207Y20833
X5331Y27699
X6172Y25986
X4014Y26346
X762Y20472
X5254Y23239
X13411Y38405
X3683Y36093
X2924Y32654
X6604Y35433
X6655Y32893
X749Y19596
X775Y18771
X11289Y5970
X7514Y25069
M30