G04 EAGLE Gerber RS-274X export*
G75*
%MOMM*%
%FSLAX34Y34*%
%LPD*%
%INTop Copper*%
%IPPOS*%
%AMOC8*
5,1,8,0,0,1.08239X$1,22.5*%
G01*
%ADD10R,1.100000X1.000000*%
%ADD11R,0.800000X0.800000*%
%ADD12R,1.000000X1.100000*%
%ADD13R,0.500000X0.900000*%
%ADD14R,1.400000X0.500000*%
%ADD15R,0.580000X0.250000*%
%ADD16C,0.756400*%
%ADD17C,0.508000*%
%ADD18C,0.152400*%
%ADD19C,0.254000*%
%ADD20C,0.203200*%

G36*
X76718Y48518D02*
X76718Y48518D01*
X76737Y48516D01*
X76839Y48538D01*
X76941Y48555D01*
X76958Y48564D01*
X76978Y48568D01*
X77067Y48621D01*
X77158Y48670D01*
X77172Y48684D01*
X77189Y48694D01*
X77256Y48773D01*
X77328Y48848D01*
X77336Y48866D01*
X77349Y48881D01*
X77388Y48977D01*
X77431Y49071D01*
X77433Y49091D01*
X77441Y49109D01*
X77459Y49276D01*
X77459Y128885D01*
X77448Y128956D01*
X77446Y129028D01*
X77428Y129077D01*
X77420Y129128D01*
X77386Y129191D01*
X77361Y129259D01*
X77329Y129299D01*
X77304Y129345D01*
X77252Y129395D01*
X77208Y129451D01*
X77164Y129479D01*
X77126Y129515D01*
X77061Y129545D01*
X77001Y129584D01*
X76950Y129596D01*
X76903Y129618D01*
X76832Y129626D01*
X76762Y129644D01*
X76710Y129640D01*
X76659Y129645D01*
X76588Y129630D01*
X76517Y129625D01*
X76469Y129604D01*
X76418Y129593D01*
X76357Y129556D01*
X76291Y129528D01*
X76235Y129483D01*
X76207Y129467D01*
X76192Y129449D01*
X76160Y129423D01*
X75592Y128855D01*
X63328Y128855D01*
X62435Y129748D01*
X62435Y141012D01*
X63328Y141905D01*
X64634Y141905D01*
X64654Y141908D01*
X64673Y141906D01*
X64775Y141928D01*
X64877Y141944D01*
X64894Y141954D01*
X64914Y141958D01*
X65003Y142011D01*
X65094Y142060D01*
X65108Y142074D01*
X65125Y142084D01*
X65192Y142163D01*
X65264Y142238D01*
X65272Y142256D01*
X65285Y142271D01*
X65324Y142367D01*
X65367Y142461D01*
X65369Y142481D01*
X65377Y142499D01*
X65395Y142666D01*
X65395Y144187D01*
X65381Y144277D01*
X65373Y144368D01*
X65361Y144398D01*
X65356Y144430D01*
X65313Y144510D01*
X65277Y144594D01*
X65251Y144626D01*
X65240Y144647D01*
X65217Y144669D01*
X65172Y144725D01*
X65059Y144838D01*
X64985Y144891D01*
X64916Y144951D01*
X64886Y144963D01*
X64860Y144982D01*
X64773Y145009D01*
X64688Y145043D01*
X64647Y145047D01*
X64624Y145054D01*
X64592Y145053D01*
X64521Y145061D01*
X63080Y145061D01*
X59971Y148170D01*
X59971Y152566D01*
X63080Y155675D01*
X67476Y155675D01*
X70585Y152566D01*
X70585Y151125D01*
X70599Y151035D01*
X70607Y150944D01*
X70619Y150914D01*
X70624Y150882D01*
X70667Y150802D01*
X70703Y150718D01*
X70729Y150686D01*
X70740Y150665D01*
X70763Y150643D01*
X70808Y150587D01*
X73525Y147870D01*
X73525Y142666D01*
X73528Y142646D01*
X73526Y142627D01*
X73548Y142525D01*
X73564Y142423D01*
X73574Y142406D01*
X73578Y142386D01*
X73631Y142297D01*
X73680Y142206D01*
X73694Y142192D01*
X73704Y142175D01*
X73783Y142108D01*
X73858Y142036D01*
X73876Y142028D01*
X73891Y142015D01*
X73987Y141976D01*
X74081Y141933D01*
X74101Y141931D01*
X74119Y141923D01*
X74286Y141905D01*
X75592Y141905D01*
X76160Y141337D01*
X76218Y141295D01*
X76270Y141245D01*
X76317Y141223D01*
X76359Y141193D01*
X76428Y141172D01*
X76493Y141142D01*
X76545Y141136D01*
X76595Y141121D01*
X76666Y141123D01*
X76737Y141115D01*
X76788Y141126D01*
X76840Y141127D01*
X76908Y141152D01*
X76978Y141167D01*
X77023Y141194D01*
X77071Y141211D01*
X77127Y141256D01*
X77189Y141293D01*
X77223Y141333D01*
X77263Y141365D01*
X77302Y141425D01*
X77349Y141480D01*
X77368Y141528D01*
X77396Y141572D01*
X77414Y141642D01*
X77441Y141708D01*
X77449Y141779D01*
X77457Y141811D01*
X77455Y141834D01*
X77459Y141875D01*
X77459Y167640D01*
X77456Y167660D01*
X77458Y167679D01*
X77436Y167781D01*
X77420Y167883D01*
X77410Y167900D01*
X77406Y167920D01*
X77353Y168009D01*
X77304Y168100D01*
X77290Y168114D01*
X77280Y168131D01*
X77201Y168198D01*
X77126Y168270D01*
X77108Y168278D01*
X77093Y168291D01*
X76997Y168330D01*
X76903Y168373D01*
X76883Y168375D01*
X76865Y168383D01*
X76698Y168401D01*
X3302Y168401D01*
X3282Y168398D01*
X3263Y168400D01*
X3161Y168378D01*
X3059Y168362D01*
X3042Y168352D01*
X3022Y168348D01*
X2933Y168295D01*
X2842Y168246D01*
X2828Y168232D01*
X2811Y168222D01*
X2744Y168143D01*
X2672Y168068D01*
X2664Y168050D01*
X2651Y168035D01*
X2612Y167939D01*
X2569Y167845D01*
X2567Y167825D01*
X2559Y167807D01*
X2541Y167640D01*
X2541Y49276D01*
X2544Y49256D01*
X2542Y49237D01*
X2564Y49135D01*
X2580Y49033D01*
X2590Y49016D01*
X2594Y48996D01*
X2647Y48907D01*
X2696Y48816D01*
X2710Y48802D01*
X2720Y48785D01*
X2799Y48718D01*
X2874Y48647D01*
X2892Y48638D01*
X2907Y48625D01*
X3003Y48586D01*
X3097Y48543D01*
X3117Y48541D01*
X3135Y48533D01*
X3302Y48515D01*
X76698Y48515D01*
X76718Y48518D01*
G37*
%LPC*%
G36*
X10254Y70445D02*
X10254Y70445D01*
X9361Y71338D01*
X9361Y83602D01*
X10254Y84495D01*
X18062Y84495D01*
X18082Y84498D01*
X18101Y84496D01*
X18203Y84518D01*
X18305Y84534D01*
X18322Y84544D01*
X18342Y84548D01*
X18431Y84601D01*
X18522Y84650D01*
X18536Y84664D01*
X18553Y84674D01*
X18620Y84753D01*
X18692Y84828D01*
X18700Y84846D01*
X18713Y84861D01*
X18752Y84957D01*
X18795Y85051D01*
X18797Y85071D01*
X18805Y85089D01*
X18823Y85256D01*
X18823Y89828D01*
X21664Y92669D01*
X21717Y92743D01*
X21777Y92813D01*
X21789Y92843D01*
X21808Y92869D01*
X21835Y92956D01*
X21869Y93041D01*
X21873Y93082D01*
X21880Y93104D01*
X21879Y93136D01*
X21887Y93207D01*
X21887Y102618D01*
X21884Y102638D01*
X21886Y102657D01*
X21864Y102759D01*
X21848Y102861D01*
X21838Y102878D01*
X21834Y102898D01*
X21781Y102987D01*
X21732Y103078D01*
X21718Y103092D01*
X21708Y103109D01*
X21629Y103176D01*
X21554Y103248D01*
X21536Y103256D01*
X21521Y103269D01*
X21425Y103308D01*
X21331Y103351D01*
X21311Y103353D01*
X21293Y103361D01*
X21126Y103379D01*
X19593Y103379D01*
X19540Y103401D01*
X19499Y103405D01*
X19477Y103412D01*
X19445Y103411D01*
X19373Y103419D01*
X13780Y103419D01*
X12887Y104312D01*
X12887Y110576D01*
X13957Y111645D01*
X13969Y111662D01*
X13984Y111674D01*
X14040Y111761D01*
X14101Y111845D01*
X14107Y111864D01*
X14117Y111881D01*
X14143Y111982D01*
X14173Y112080D01*
X14173Y112100D01*
X14177Y112120D01*
X14169Y112222D01*
X14167Y112326D01*
X14160Y112345D01*
X14158Y112365D01*
X14118Y112460D01*
X14082Y112557D01*
X14070Y112573D01*
X14062Y112591D01*
X13957Y112722D01*
X12799Y113880D01*
X12799Y118276D01*
X15908Y121385D01*
X16071Y121385D01*
X16161Y121399D01*
X16252Y121407D01*
X16281Y121419D01*
X16313Y121424D01*
X16394Y121467D01*
X16478Y121503D01*
X16510Y121529D01*
X16531Y121540D01*
X16553Y121563D01*
X16609Y121608D01*
X17382Y122380D01*
X17382Y122381D01*
X19955Y124954D01*
X19956Y124954D01*
X20807Y125806D01*
X20819Y125822D01*
X20834Y125834D01*
X20890Y125922D01*
X20950Y126005D01*
X20956Y126024D01*
X20967Y126041D01*
X20992Y126142D01*
X21023Y126240D01*
X21022Y126260D01*
X21027Y126280D01*
X21019Y126383D01*
X21016Y126486D01*
X21010Y126505D01*
X21008Y126525D01*
X20968Y126620D01*
X20932Y126717D01*
X20919Y126733D01*
X20912Y126751D01*
X20807Y126882D01*
X19149Y128540D01*
X19149Y132936D01*
X20225Y134012D01*
X20266Y134070D01*
X20316Y134122D01*
X20338Y134169D01*
X20368Y134211D01*
X20389Y134280D01*
X20419Y134345D01*
X20425Y134397D01*
X20440Y134447D01*
X20439Y134518D01*
X20446Y134589D01*
X20435Y134640D01*
X20434Y134692D01*
X20409Y134760D01*
X20394Y134830D01*
X20367Y134875D01*
X20350Y134923D01*
X20305Y134979D01*
X20268Y135041D01*
X20228Y135075D01*
X20196Y135115D01*
X20136Y135154D01*
X20081Y135201D01*
X20033Y135220D01*
X19989Y135248D01*
X19920Y135266D01*
X19853Y135293D01*
X19782Y135301D01*
X19750Y135309D01*
X19727Y135307D01*
X19686Y135311D01*
X16958Y135311D01*
X16065Y136204D01*
X16065Y145468D01*
X16958Y146361D01*
X22847Y146361D01*
X22937Y146375D01*
X23028Y146383D01*
X23058Y146395D01*
X23090Y146400D01*
X23171Y146443D01*
X23254Y146479D01*
X23287Y146505D01*
X23307Y146516D01*
X23329Y146539D01*
X23385Y146584D01*
X25813Y149012D01*
X25855Y149070D01*
X25905Y149122D01*
X25927Y149169D01*
X25957Y149211D01*
X25978Y149280D01*
X26008Y149345D01*
X26014Y149397D01*
X26029Y149447D01*
X26027Y149518D01*
X26035Y149589D01*
X26024Y149640D01*
X26023Y149692D01*
X25998Y149760D01*
X25983Y149830D01*
X25956Y149874D01*
X25938Y149923D01*
X25894Y149979D01*
X25857Y150041D01*
X25817Y150075D01*
X25785Y150115D01*
X25724Y150154D01*
X25670Y150201D01*
X25622Y150220D01*
X25578Y150248D01*
X25508Y150266D01*
X25442Y150293D01*
X25370Y150301D01*
X25339Y150309D01*
X25316Y150307D01*
X25275Y150311D01*
X16958Y150311D01*
X16065Y151204D01*
X16065Y153535D01*
X16054Y153605D01*
X16052Y153677D01*
X16034Y153726D01*
X16026Y153777D01*
X15992Y153841D01*
X15967Y153908D01*
X15935Y153949D01*
X15910Y153995D01*
X15858Y154044D01*
X15814Y154100D01*
X15770Y154128D01*
X15732Y154164D01*
X15667Y154194D01*
X15607Y154233D01*
X15556Y154246D01*
X15509Y154268D01*
X15438Y154276D01*
X15368Y154293D01*
X15316Y154289D01*
X15265Y154295D01*
X15194Y154280D01*
X15123Y154274D01*
X15075Y154254D01*
X15024Y154243D01*
X14963Y154206D01*
X14897Y154178D01*
X14841Y154133D01*
X14813Y154116D01*
X14798Y154099D01*
X14766Y154073D01*
X13882Y153189D01*
X9486Y153189D01*
X6377Y156298D01*
X6377Y160694D01*
X9486Y163803D01*
X13882Y163803D01*
X14901Y162784D01*
X14975Y162731D01*
X15045Y162671D01*
X15075Y162659D01*
X15101Y162640D01*
X15188Y162613D01*
X15273Y162579D01*
X15314Y162575D01*
X15336Y162568D01*
X15368Y162569D01*
X15439Y162561D01*
X20614Y162561D01*
X21591Y161584D01*
X21665Y161531D01*
X21734Y161471D01*
X21764Y161459D01*
X21790Y161440D01*
X21877Y161413D01*
X21962Y161379D01*
X22003Y161375D01*
X22026Y161368D01*
X22058Y161369D01*
X22129Y161361D01*
X26222Y161361D01*
X27115Y160468D01*
X27115Y152151D01*
X27126Y152080D01*
X27128Y152008D01*
X27146Y151959D01*
X27154Y151908D01*
X27188Y151845D01*
X27213Y151777D01*
X27245Y151737D01*
X27270Y151691D01*
X27321Y151641D01*
X27366Y151585D01*
X27410Y151557D01*
X27448Y151521D01*
X27513Y151491D01*
X27573Y151452D01*
X27624Y151440D01*
X27671Y151418D01*
X27742Y151410D01*
X27812Y151392D01*
X27864Y151396D01*
X27915Y151391D01*
X27986Y151406D01*
X28057Y151411D01*
X28105Y151432D01*
X28156Y151443D01*
X28217Y151480D01*
X28283Y151508D01*
X28339Y151553D01*
X28367Y151569D01*
X28382Y151587D01*
X28414Y151613D01*
X28568Y151767D01*
X28621Y151841D01*
X28681Y151910D01*
X28693Y151940D01*
X28712Y151966D01*
X28739Y152053D01*
X28773Y152138D01*
X28777Y152179D01*
X28784Y152201D01*
X28783Y152234D01*
X28791Y152305D01*
X28791Y157640D01*
X29684Y158533D01*
X41948Y158533D01*
X42841Y157640D01*
X42841Y146376D01*
X41948Y145483D01*
X30505Y145483D01*
X30415Y145469D01*
X30324Y145461D01*
X30294Y145449D01*
X30262Y145444D01*
X30181Y145401D01*
X30098Y145365D01*
X30065Y145339D01*
X30045Y145328D01*
X30023Y145305D01*
X29967Y145260D01*
X28092Y143386D01*
X28078Y143367D01*
X28060Y143351D01*
X28007Y143267D01*
X27949Y143186D01*
X27942Y143163D01*
X27929Y143143D01*
X27906Y143046D01*
X27876Y142951D01*
X27877Y142927D01*
X27871Y142904D01*
X27880Y142805D01*
X27883Y142705D01*
X27891Y142683D01*
X27893Y142659D01*
X27933Y142568D01*
X27967Y142474D01*
X27982Y142455D01*
X27992Y142433D01*
X28059Y142360D01*
X28121Y142282D01*
X28141Y142269D01*
X28157Y142251D01*
X28244Y142203D01*
X28328Y142149D01*
X28351Y142143D01*
X28372Y142132D01*
X28470Y142114D01*
X28566Y142089D01*
X28590Y142091D01*
X28614Y142087D01*
X28713Y142101D01*
X28812Y142108D01*
X28834Y142118D01*
X28858Y142121D01*
X29011Y142188D01*
X29335Y142376D01*
X29982Y142549D01*
X34293Y142549D01*
X34293Y135770D01*
X34296Y135750D01*
X34294Y135731D01*
X34316Y135629D01*
X34333Y135527D01*
X34342Y135510D01*
X34346Y135490D01*
X34399Y135401D01*
X34448Y135310D01*
X34462Y135296D01*
X34472Y135279D01*
X34551Y135212D01*
X34626Y135141D01*
X34644Y135132D01*
X34659Y135119D01*
X34755Y135080D01*
X34849Y135037D01*
X34869Y135035D01*
X34887Y135027D01*
X35054Y135009D01*
X35817Y135009D01*
X35817Y134246D01*
X35820Y134226D01*
X35818Y134207D01*
X35840Y134105D01*
X35857Y134003D01*
X35866Y133986D01*
X35870Y133966D01*
X35923Y133877D01*
X35972Y133786D01*
X35986Y133772D01*
X35996Y133755D01*
X36075Y133688D01*
X36150Y133617D01*
X36168Y133608D01*
X36183Y133595D01*
X36279Y133556D01*
X36373Y133513D01*
X36393Y133511D01*
X36411Y133503D01*
X36578Y133485D01*
X43658Y133485D01*
X43678Y133488D01*
X43697Y133486D01*
X43799Y133508D01*
X43901Y133525D01*
X43918Y133534D01*
X43938Y133538D01*
X44027Y133591D01*
X44118Y133640D01*
X44132Y133654D01*
X44149Y133664D01*
X44216Y133743D01*
X44288Y133818D01*
X44296Y133836D01*
X44309Y133851D01*
X44311Y133857D01*
X50937Y133857D01*
X50937Y127839D01*
X46821Y127839D01*
X46751Y127828D01*
X46679Y127826D01*
X46630Y127808D01*
X46579Y127800D01*
X46515Y127766D01*
X46448Y127741D01*
X46407Y127709D01*
X46361Y127684D01*
X46312Y127632D01*
X46256Y127588D01*
X46228Y127544D01*
X46192Y127506D01*
X46162Y127441D01*
X46123Y127381D01*
X46110Y127330D01*
X46088Y127283D01*
X46080Y127212D01*
X46063Y127142D01*
X46067Y127090D01*
X46061Y127039D01*
X46076Y126968D01*
X46082Y126897D01*
X46102Y126849D01*
X46113Y126798D01*
X46150Y126737D01*
X46178Y126671D01*
X46223Y126615D01*
X46240Y126587D01*
X46257Y126572D01*
X46283Y126540D01*
X49131Y123692D01*
X49205Y123639D01*
X49275Y123579D01*
X49305Y123567D01*
X49331Y123548D01*
X49418Y123521D01*
X49503Y123487D01*
X49544Y123483D01*
X49566Y123476D01*
X49598Y123477D01*
X49669Y123469D01*
X53028Y123469D01*
X53118Y123483D01*
X53209Y123491D01*
X53239Y123503D01*
X53271Y123508D01*
X53352Y123551D01*
X53436Y123587D01*
X53468Y123613D01*
X53488Y123624D01*
X53511Y123647D01*
X53567Y123692D01*
X53852Y123977D01*
X54431Y124312D01*
X55078Y124485D01*
X56663Y124485D01*
X56663Y117932D01*
X56666Y117913D01*
X56664Y117893D01*
X56686Y117791D01*
X56702Y117689D01*
X56712Y117672D01*
X56716Y117652D01*
X56769Y117563D01*
X56818Y117472D01*
X56832Y117458D01*
X56842Y117441D01*
X56921Y117374D01*
X56996Y117303D01*
X57014Y117294D01*
X57029Y117281D01*
X57125Y117243D01*
X57219Y117199D01*
X57239Y117197D01*
X57257Y117189D01*
X57424Y117171D01*
X57639Y117171D01*
X57639Y116956D01*
X57642Y116936D01*
X57640Y116916D01*
X57662Y116815D01*
X57679Y116713D01*
X57688Y116696D01*
X57692Y116676D01*
X57745Y116587D01*
X57794Y116496D01*
X57808Y116482D01*
X57818Y116465D01*
X57897Y116398D01*
X57972Y116326D01*
X57990Y116318D01*
X58005Y116305D01*
X58102Y116266D01*
X58195Y116223D01*
X58215Y116221D01*
X58233Y116213D01*
X58400Y116195D01*
X62953Y116195D01*
X62953Y112610D01*
X62915Y112467D01*
X62903Y112348D01*
X62890Y112231D01*
X62891Y112226D01*
X62890Y112222D01*
X62916Y112107D01*
X62942Y111990D01*
X62944Y111987D01*
X62945Y111983D01*
X63008Y111880D01*
X63068Y111779D01*
X63071Y111776D01*
X63073Y111773D01*
X63164Y111697D01*
X63255Y111619D01*
X63259Y111618D01*
X63262Y111615D01*
X63371Y111572D01*
X63483Y111527D01*
X63488Y111527D01*
X63491Y111525D01*
X63505Y111525D01*
X63650Y111509D01*
X64231Y111509D01*
X64284Y111487D01*
X64325Y111483D01*
X64348Y111476D01*
X64380Y111477D01*
X64451Y111469D01*
X70044Y111469D01*
X70937Y110576D01*
X70937Y104983D01*
X70951Y104893D01*
X70959Y104802D01*
X70971Y104772D01*
X70976Y104740D01*
X71019Y104660D01*
X71055Y104576D01*
X71081Y104544D01*
X71092Y104523D01*
X71115Y104501D01*
X71121Y104493D01*
X71121Y89502D01*
X67908Y86289D01*
X67855Y86215D01*
X67795Y86146D01*
X67783Y86116D01*
X67764Y86090D01*
X67737Y86003D01*
X67703Y85918D01*
X67699Y85877D01*
X67692Y85854D01*
X67693Y85822D01*
X67685Y85751D01*
X67685Y84756D01*
X67688Y84736D01*
X67686Y84717D01*
X67708Y84615D01*
X67724Y84513D01*
X67734Y84496D01*
X67738Y84476D01*
X67791Y84387D01*
X67840Y84296D01*
X67854Y84282D01*
X67864Y84265D01*
X67943Y84198D01*
X68018Y84126D01*
X68036Y84118D01*
X68051Y84105D01*
X68147Y84066D01*
X68241Y84023D01*
X68261Y84021D01*
X68279Y84013D01*
X68446Y83995D01*
X69752Y83995D01*
X70645Y83102D01*
X70645Y71838D01*
X69752Y70945D01*
X57488Y70945D01*
X56595Y71838D01*
X56595Y83102D01*
X57488Y83995D01*
X58794Y83995D01*
X58814Y83998D01*
X58833Y83996D01*
X58935Y84018D01*
X59037Y84034D01*
X59054Y84044D01*
X59074Y84048D01*
X59163Y84101D01*
X59254Y84150D01*
X59268Y84164D01*
X59285Y84174D01*
X59352Y84253D01*
X59424Y84328D01*
X59432Y84346D01*
X59445Y84361D01*
X59484Y84457D01*
X59527Y84551D01*
X59529Y84571D01*
X59537Y84589D01*
X59555Y84756D01*
X59555Y89642D01*
X59553Y89654D01*
X59554Y89662D01*
X59553Y89668D01*
X59554Y89681D01*
X59532Y89783D01*
X59516Y89885D01*
X59506Y89902D01*
X59502Y89922D01*
X59449Y90011D01*
X59400Y90102D01*
X59386Y90116D01*
X59376Y90133D01*
X59297Y90200D01*
X59222Y90272D01*
X59204Y90280D01*
X59189Y90293D01*
X59161Y90304D01*
X59161Y96956D01*
X59158Y96975D01*
X59160Y96995D01*
X59138Y97097D01*
X59122Y97199D01*
X59112Y97216D01*
X59108Y97236D01*
X59055Y97325D01*
X59006Y97416D01*
X58992Y97430D01*
X58982Y97447D01*
X58903Y97514D01*
X58828Y97585D01*
X58810Y97594D01*
X58795Y97607D01*
X58699Y97645D01*
X58605Y97689D01*
X58585Y97691D01*
X58567Y97699D01*
X58400Y97717D01*
X57424Y97717D01*
X57404Y97714D01*
X57384Y97716D01*
X57283Y97694D01*
X57181Y97677D01*
X57164Y97668D01*
X57144Y97664D01*
X57055Y97611D01*
X56964Y97562D01*
X56950Y97548D01*
X56933Y97538D01*
X56866Y97459D01*
X56794Y97384D01*
X56786Y97366D01*
X56773Y97351D01*
X56734Y97254D01*
X56691Y97161D01*
X56689Y97141D01*
X56681Y97123D01*
X56663Y96956D01*
X56663Y90403D01*
X55078Y90403D01*
X54431Y90576D01*
X53852Y90911D01*
X53567Y91196D01*
X53493Y91249D01*
X53423Y91309D01*
X53393Y91321D01*
X53367Y91340D01*
X53280Y91367D01*
X53195Y91401D01*
X53154Y91405D01*
X53132Y91412D01*
X53100Y91411D01*
X53028Y91419D01*
X46780Y91419D01*
X46450Y91749D01*
X46434Y91761D01*
X46422Y91777D01*
X46335Y91833D01*
X46251Y91893D01*
X46232Y91899D01*
X46215Y91910D01*
X46114Y91935D01*
X46015Y91965D01*
X45996Y91965D01*
X45976Y91970D01*
X45873Y91962D01*
X45770Y91959D01*
X45751Y91952D01*
X45731Y91951D01*
X45636Y91910D01*
X45539Y91875D01*
X45523Y91862D01*
X45505Y91854D01*
X45374Y91749D01*
X45044Y91419D01*
X38780Y91419D01*
X38450Y91749D01*
X38434Y91761D01*
X38422Y91777D01*
X38335Y91833D01*
X38251Y91893D01*
X38232Y91899D01*
X38215Y91910D01*
X38114Y91935D01*
X38015Y91965D01*
X37996Y91965D01*
X37976Y91970D01*
X37873Y91962D01*
X37770Y91959D01*
X37751Y91952D01*
X37731Y91951D01*
X37636Y91910D01*
X37539Y91875D01*
X37523Y91862D01*
X37505Y91854D01*
X37374Y91749D01*
X37044Y91419D01*
X30780Y91419D01*
X30450Y91749D01*
X30434Y91761D01*
X30422Y91777D01*
X30335Y91833D01*
X30251Y91893D01*
X30232Y91899D01*
X30215Y91910D01*
X30114Y91935D01*
X30015Y91965D01*
X29996Y91965D01*
X29976Y91970D01*
X29873Y91962D01*
X29770Y91959D01*
X29751Y91952D01*
X29731Y91951D01*
X29636Y91910D01*
X29539Y91875D01*
X29523Y91862D01*
X29505Y91854D01*
X29374Y91749D01*
X28983Y91359D01*
X28971Y91342D01*
X28956Y91330D01*
X28900Y91243D01*
X28839Y91159D01*
X28833Y91140D01*
X28823Y91123D01*
X28797Y91023D01*
X28767Y90924D01*
X28767Y90904D01*
X28763Y90884D01*
X28771Y90782D01*
X28773Y90678D01*
X28780Y90659D01*
X28782Y90639D01*
X28822Y90544D01*
X28858Y90447D01*
X28870Y90431D01*
X28878Y90413D01*
X28983Y90282D01*
X29437Y89828D01*
X29437Y86272D01*
X29440Y86252D01*
X29438Y86233D01*
X29460Y86131D01*
X29476Y86029D01*
X29486Y86012D01*
X29490Y85992D01*
X29543Y85903D01*
X29592Y85812D01*
X29606Y85798D01*
X29616Y85781D01*
X29695Y85714D01*
X29770Y85642D01*
X29788Y85634D01*
X29803Y85621D01*
X29899Y85582D01*
X29993Y85539D01*
X30013Y85537D01*
X30031Y85529D01*
X30198Y85511D01*
X31363Y85511D01*
X31363Y78993D01*
X25345Y78993D01*
X25345Y81498D01*
X25334Y81569D01*
X25332Y81641D01*
X25314Y81690D01*
X25306Y81741D01*
X25272Y81804D01*
X25247Y81872D01*
X25215Y81913D01*
X25190Y81958D01*
X25139Y82008D01*
X25094Y82064D01*
X25050Y82092D01*
X25012Y82128D01*
X24947Y82158D01*
X24887Y82197D01*
X24836Y82210D01*
X24789Y82231D01*
X24718Y82239D01*
X24648Y82257D01*
X24596Y82253D01*
X24545Y82259D01*
X24474Y82243D01*
X24403Y82238D01*
X24355Y82217D01*
X24304Y82206D01*
X24243Y82169D01*
X24177Y82141D01*
X24121Y82097D01*
X24093Y82080D01*
X24078Y82062D01*
X24046Y82037D01*
X22634Y80625D01*
X22581Y80551D01*
X22521Y80481D01*
X22509Y80451D01*
X22490Y80425D01*
X22463Y80338D01*
X22429Y80253D01*
X22425Y80212D01*
X22418Y80190D01*
X22419Y80158D01*
X22411Y80086D01*
X22411Y71338D01*
X21518Y70445D01*
X10254Y70445D01*
G37*
%LPD*%
%LPC*%
G36*
X37339Y136531D02*
X37339Y136531D01*
X37339Y142549D01*
X41650Y142549D01*
X42297Y142376D01*
X42876Y142041D01*
X43349Y141568D01*
X43371Y141530D01*
X43432Y141456D01*
X43487Y141378D01*
X43509Y141361D01*
X43527Y141339D01*
X43608Y141289D01*
X43685Y141232D01*
X43712Y141223D01*
X43735Y141208D01*
X43828Y141186D01*
X43919Y141157D01*
X43947Y141157D01*
X43975Y141151D01*
X44069Y141159D01*
X44165Y141161D01*
X44191Y141170D01*
X44220Y141173D01*
X44307Y141211D01*
X44397Y141243D01*
X44419Y141260D01*
X44445Y141271D01*
X44515Y141336D01*
X44591Y141394D01*
X44611Y141423D01*
X44627Y141437D01*
X44643Y141466D01*
X44690Y141529D01*
X44927Y141940D01*
X45400Y142413D01*
X45979Y142748D01*
X46626Y142921D01*
X50937Y142921D01*
X50937Y136903D01*
X44618Y136903D01*
X44598Y136900D01*
X44579Y136902D01*
X44477Y136880D01*
X44375Y136863D01*
X44358Y136854D01*
X44338Y136850D01*
X44249Y136797D01*
X44158Y136748D01*
X44144Y136734D01*
X44127Y136724D01*
X44060Y136645D01*
X43988Y136570D01*
X43980Y136552D01*
X43967Y136537D01*
X43965Y136531D01*
X37339Y136531D01*
G37*
%LPD*%
%LPC*%
G36*
X34409Y78993D02*
X34409Y78993D01*
X34409Y85511D01*
X38220Y85511D01*
X38867Y85338D01*
X39484Y84981D01*
X39516Y84950D01*
X39567Y84926D01*
X39612Y84893D01*
X39677Y84873D01*
X39738Y84844D01*
X39793Y84837D01*
X39847Y84821D01*
X39915Y84823D01*
X39982Y84815D01*
X40060Y84826D01*
X40093Y84827D01*
X40113Y84834D01*
X40148Y84840D01*
X40786Y85011D01*
X45097Y85011D01*
X45097Y78993D01*
X34409Y78993D01*
G37*
%LPD*%
%LPC*%
G36*
X34409Y69429D02*
X34409Y69429D01*
X34409Y75947D01*
X45097Y75947D01*
X45097Y69929D01*
X40786Y69929D01*
X40148Y70100D01*
X40080Y70107D01*
X40015Y70123D01*
X39959Y70119D01*
X39903Y70125D01*
X39837Y70110D01*
X39770Y70104D01*
X39718Y70082D01*
X39663Y70070D01*
X39605Y70034D01*
X39543Y70008D01*
X39482Y69959D01*
X39453Y69941D01*
X38867Y69602D01*
X38220Y69429D01*
X34409Y69429D01*
G37*
%LPD*%
%LPC*%
G36*
X53983Y136903D02*
X53983Y136903D01*
X53983Y142921D01*
X58294Y142921D01*
X58941Y142748D01*
X59520Y142413D01*
X59993Y141940D01*
X60328Y141361D01*
X60501Y140714D01*
X60501Y136903D01*
X53983Y136903D01*
G37*
%LPD*%
%LPC*%
G36*
X48143Y78993D02*
X48143Y78993D01*
X48143Y85011D01*
X52454Y85011D01*
X53101Y84838D01*
X53680Y84503D01*
X54153Y84030D01*
X54488Y83451D01*
X54661Y82804D01*
X54661Y78993D01*
X48143Y78993D01*
G37*
%LPD*%
%LPC*%
G36*
X53983Y127839D02*
X53983Y127839D01*
X53983Y133857D01*
X60501Y133857D01*
X60501Y130045D01*
X60328Y129399D01*
X59993Y128820D01*
X59520Y128347D01*
X58941Y128012D01*
X58294Y127839D01*
X53983Y127839D01*
G37*
%LPD*%
%LPC*%
G36*
X48143Y69929D02*
X48143Y69929D01*
X48143Y75947D01*
X54661Y75947D01*
X54661Y72135D01*
X54488Y71489D01*
X54153Y70910D01*
X53680Y70437D01*
X53101Y70102D01*
X52454Y69929D01*
X48143Y69929D01*
G37*
%LPD*%
%LPC*%
G36*
X27552Y69429D02*
X27552Y69429D01*
X26905Y69602D01*
X26326Y69937D01*
X25853Y70410D01*
X25518Y70989D01*
X25345Y71636D01*
X25345Y75947D01*
X31363Y75947D01*
X31363Y69429D01*
X27552Y69429D01*
G37*
%LPD*%
%LPC*%
G36*
X59161Y118693D02*
X59161Y118693D01*
X59161Y124485D01*
X60746Y124485D01*
X61393Y124312D01*
X61972Y123977D01*
X62445Y123504D01*
X62780Y122925D01*
X62953Y122278D01*
X62953Y118693D01*
X59161Y118693D01*
G37*
%LPD*%
%LPC*%
G36*
X52459Y135379D02*
X52459Y135379D01*
X52459Y135381D01*
X52461Y135381D01*
X52461Y135379D01*
X52459Y135379D01*
G37*
%LPD*%
%LPC*%
G36*
X46619Y77469D02*
X46619Y77469D01*
X46619Y77471D01*
X46621Y77471D01*
X46621Y77469D01*
X46619Y77469D01*
G37*
%LPD*%
%LPC*%
G36*
X32885Y77469D02*
X32885Y77469D01*
X32885Y77471D01*
X32887Y77471D01*
X32887Y77469D01*
X32885Y77469D01*
G37*
%LPD*%
D10*
X52460Y135380D03*
X69460Y135380D03*
X46620Y77470D03*
X63620Y77470D03*
D11*
X21590Y155836D03*
X21590Y140836D03*
D10*
X35816Y152008D03*
X35816Y135008D03*
D12*
X15886Y77470D03*
X32886Y77470D03*
D13*
X57912Y97444D03*
X49912Y97444D03*
X41912Y97444D03*
X33912Y97444D03*
X25912Y97444D03*
D14*
X21412Y107444D03*
D13*
X25912Y117444D03*
X33912Y117444D03*
X41912Y117444D03*
X49912Y117444D03*
X57912Y117444D03*
D14*
X62412Y107444D03*
D15*
X58312Y100694D03*
D16*
X65278Y150368D03*
D17*
X34036Y107444D02*
X21412Y107444D01*
X34036Y107444D02*
X41910Y107444D01*
X49530Y107444D01*
X62412Y107444D01*
X34036Y97568D02*
X33912Y97444D01*
X41912Y97444D02*
X41912Y107442D01*
X41910Y107444D01*
X49912Y107062D02*
X49912Y97444D01*
X49912Y107062D02*
X49530Y107444D01*
X63620Y87750D02*
X63620Y77470D01*
X63620Y87750D02*
X67056Y91186D01*
X67056Y102800D01*
X62412Y107444D01*
X21590Y155836D02*
X18930Y158496D01*
X11684Y158496D01*
D16*
X11684Y158496D03*
D17*
X69460Y146186D02*
X69460Y135380D01*
X69460Y146186D02*
X65278Y150368D01*
X33912Y107320D02*
X33912Y97444D01*
X33912Y107320D02*
X34036Y107444D01*
D16*
X34036Y107444D03*
X14224Y62230D03*
X24456Y130738D03*
D18*
X46698Y120658D02*
X49912Y117444D01*
X46698Y120658D02*
X46698Y122891D01*
X42311Y127278D02*
X27916Y127278D01*
X24456Y130738D01*
X42311Y127278D02*
X46698Y122891D01*
D16*
X18106Y116078D03*
D18*
X18106Y119871D02*
X22465Y124230D01*
X18106Y119871D02*
X18106Y116078D01*
X22465Y124230D02*
X39854Y124230D01*
X41912Y122172D02*
X41912Y117444D01*
X41912Y122172D02*
X39854Y124230D01*
D19*
X21590Y140836D02*
X32762Y152008D01*
X35816Y152008D01*
D20*
X25912Y97444D02*
X25912Y89412D01*
X24130Y87630D01*
D16*
X24130Y87630D03*
D20*
X24130Y85714D02*
X15886Y77470D01*
X24130Y85714D02*
X24130Y87630D01*
M02*
