G04 EAGLE Gerber RS-274X export*
G75*
%MOMM*%
%FSLAX34Y34*%
%LPD*%
%IN*%
%IPPOS*%
%AMOC8*
5,1,8,0,0,1.08239X$1,22.5*%
G01*
%ADD10C,0.254000*%


D10*
X0Y30000D02*
X21000Y30000D01*
X21000Y19000D01*
X21072Y17344D01*
X21289Y15701D01*
X21647Y14082D01*
X22146Y12502D01*
X22780Y10970D01*
X23546Y9500D01*
X24436Y8102D01*
X25445Y6787D01*
X26565Y5565D01*
X27787Y4445D01*
X29102Y3436D01*
X30500Y2546D01*
X31970Y1780D01*
X33502Y1146D01*
X35082Y647D01*
X36701Y289D01*
X38344Y72D01*
X40000Y0D01*
X41656Y72D01*
X43299Y289D01*
X44918Y647D01*
X46498Y1146D01*
X48030Y1780D01*
X49500Y2546D01*
X50898Y3436D01*
X52213Y4445D01*
X53435Y5565D01*
X54555Y6787D01*
X55564Y8102D01*
X56454Y9500D01*
X57220Y10970D01*
X57854Y12502D01*
X58353Y14082D01*
X58711Y15701D01*
X58928Y17344D01*
X59000Y19000D01*
X59000Y30000D01*
X80000Y30000D01*
X80000Y180000D01*
X59000Y180000D01*
X59000Y191000D01*
X58928Y192656D01*
X58711Y194299D01*
X58353Y195918D01*
X57854Y197498D01*
X57220Y199030D01*
X56454Y200500D01*
X55564Y201898D01*
X54555Y203213D01*
X53435Y204435D01*
X52213Y205555D01*
X50898Y206564D01*
X49500Y207454D01*
X48030Y208220D01*
X46498Y208854D01*
X44918Y209353D01*
X43299Y209711D01*
X41656Y209928D01*
X40000Y210000D01*
X38344Y209928D01*
X36701Y209711D01*
X35082Y209353D01*
X33502Y208854D01*
X31970Y208220D01*
X30500Y207454D01*
X29102Y206564D01*
X27787Y205555D01*
X26565Y204435D01*
X25445Y203213D01*
X24436Y201898D01*
X23546Y200500D01*
X22780Y199030D01*
X22146Y197498D01*
X21647Y195918D01*
X21289Y194299D01*
X21072Y192656D01*
X21000Y191000D01*
X21000Y180000D01*
X0Y180000D01*
X0Y30000D01*
X51000Y190568D02*
X50932Y189706D01*
X50797Y188852D01*
X50595Y188012D01*
X50328Y187190D01*
X49997Y186391D01*
X49605Y185621D01*
X49153Y184884D01*
X48645Y184185D01*
X48084Y183527D01*
X47473Y182916D01*
X46815Y182355D01*
X46116Y181847D01*
X45379Y181395D01*
X44609Y181003D01*
X43810Y180672D01*
X42988Y180405D01*
X42148Y180203D01*
X41294Y180068D01*
X40432Y180000D01*
X39568Y180000D01*
X38706Y180068D01*
X37852Y180203D01*
X37012Y180405D01*
X36190Y180672D01*
X35391Y181003D01*
X34621Y181395D01*
X33884Y181847D01*
X33185Y182355D01*
X32527Y182916D01*
X31916Y183527D01*
X31355Y184185D01*
X30847Y184884D01*
X30395Y185621D01*
X30003Y186391D01*
X29672Y187190D01*
X29405Y188012D01*
X29203Y188852D01*
X29068Y189706D01*
X29000Y190568D01*
X29000Y191432D01*
X29068Y192294D01*
X29203Y193148D01*
X29405Y193988D01*
X29672Y194810D01*
X30003Y195609D01*
X30395Y196379D01*
X30847Y197116D01*
X31355Y197815D01*
X31916Y198473D01*
X32527Y199084D01*
X33185Y199645D01*
X33884Y200153D01*
X34621Y200605D01*
X35391Y200997D01*
X36190Y201328D01*
X37012Y201595D01*
X37852Y201797D01*
X38706Y201932D01*
X39568Y202000D01*
X40432Y202000D01*
X41294Y201932D01*
X42148Y201797D01*
X42988Y201595D01*
X43810Y201328D01*
X44609Y200997D01*
X45379Y200605D01*
X46116Y200153D01*
X46815Y199645D01*
X47473Y199084D01*
X48084Y198473D01*
X48645Y197815D01*
X49153Y197116D01*
X49605Y196379D01*
X49997Y195609D01*
X50328Y194810D01*
X50595Y193988D01*
X50797Y193148D01*
X50932Y192294D01*
X51000Y191432D01*
X51000Y190568D01*
X51000Y18568D02*
X50932Y17706D01*
X50797Y16852D01*
X50595Y16012D01*
X50328Y15190D01*
X49997Y14391D01*
X49605Y13621D01*
X49153Y12884D01*
X48645Y12185D01*
X48084Y11527D01*
X47473Y10916D01*
X46815Y10355D01*
X46116Y9847D01*
X45379Y9395D01*
X44609Y9003D01*
X43810Y8672D01*
X42988Y8405D01*
X42148Y8203D01*
X41294Y8068D01*
X40432Y8000D01*
X39568Y8000D01*
X38706Y8068D01*
X37852Y8203D01*
X37012Y8405D01*
X36190Y8672D01*
X35391Y9003D01*
X34621Y9395D01*
X33884Y9847D01*
X33185Y10355D01*
X32527Y10916D01*
X31916Y11527D01*
X31355Y12185D01*
X30847Y12884D01*
X30395Y13621D01*
X30003Y14391D01*
X29672Y15190D01*
X29405Y16012D01*
X29203Y16852D01*
X29068Y17706D01*
X29000Y18568D01*
X29000Y19432D01*
X29068Y20294D01*
X29203Y21148D01*
X29405Y21988D01*
X29672Y22810D01*
X30003Y23609D01*
X30395Y24379D01*
X30847Y25116D01*
X31355Y25815D01*
X31916Y26473D01*
X32527Y27084D01*
X33185Y27645D01*
X33884Y28153D01*
X34621Y28605D01*
X35391Y28997D01*
X36190Y29328D01*
X37012Y29595D01*
X37852Y29797D01*
X38706Y29932D01*
X39568Y30000D01*
X40432Y30000D01*
X41294Y29932D01*
X42148Y29797D01*
X42988Y29595D01*
X43810Y29328D01*
X44609Y28997D01*
X45379Y28605D01*
X46116Y28153D01*
X46815Y27645D01*
X47473Y27084D01*
X48084Y26473D01*
X48645Y25815D01*
X49153Y25116D01*
X49605Y24379D01*
X49997Y23609D01*
X50328Y22810D01*
X50595Y21988D01*
X50797Y21148D01*
X50932Y20294D01*
X51000Y19432D01*
X51000Y18568D01*
M02*
