G04 EAGLE Gerber RS-274X export*
G75*
%MOMM*%
%FSLAX34Y34*%
%LPD*%
%INSilkscreen Top*%
%IPPOS*%
%AMOC8*
5,1,8,0,0,1.08239X$1,22.5*%
G01*
%ADD10C,0.152400*%
%ADD11R,0.150000X0.300000*%
%ADD12R,0.300000X0.300000*%
%ADD13C,0.177800*%
%ADD14C,0.127000*%
%ADD15C,0.282838*%


D10*
X2098Y169926D02*
X4299Y163322D01*
X6500Y169926D01*
X10048Y169926D02*
X10048Y163322D01*
X12983Y163322D01*
X16120Y163322D02*
X18321Y163322D01*
X18395Y163324D01*
X18470Y163330D01*
X18543Y163339D01*
X18617Y163352D01*
X18689Y163369D01*
X18760Y163389D01*
X18831Y163413D01*
X18900Y163441D01*
X18967Y163472D01*
X19033Y163506D01*
X19098Y163544D01*
X19160Y163585D01*
X19220Y163629D01*
X19277Y163676D01*
X19332Y163726D01*
X19385Y163779D01*
X19435Y163834D01*
X19482Y163891D01*
X19526Y163951D01*
X19567Y164013D01*
X19605Y164078D01*
X19639Y164143D01*
X19670Y164211D01*
X19698Y164280D01*
X19722Y164351D01*
X19742Y164422D01*
X19759Y164494D01*
X19772Y164568D01*
X19781Y164641D01*
X19787Y164716D01*
X19789Y164790D01*
X19788Y164790D02*
X19788Y165523D01*
X19789Y165523D02*
X19787Y165597D01*
X19781Y165672D01*
X19772Y165745D01*
X19759Y165819D01*
X19742Y165891D01*
X19722Y165962D01*
X19698Y166033D01*
X19670Y166102D01*
X19639Y166169D01*
X19605Y166235D01*
X19567Y166300D01*
X19526Y166362D01*
X19482Y166422D01*
X19435Y166479D01*
X19385Y166534D01*
X19332Y166587D01*
X19277Y166637D01*
X19220Y166684D01*
X19160Y166728D01*
X19098Y166769D01*
X19033Y166807D01*
X18967Y166841D01*
X18900Y166872D01*
X18831Y166900D01*
X18760Y166924D01*
X18689Y166944D01*
X18617Y166961D01*
X18543Y166974D01*
X18470Y166983D01*
X18395Y166989D01*
X18321Y166991D01*
X16120Y166991D01*
X16120Y169926D01*
X19788Y169926D01*
X23435Y163322D02*
X25269Y163322D01*
X25354Y163324D01*
X25438Y163330D01*
X25522Y163340D01*
X25606Y163353D01*
X25689Y163371D01*
X25771Y163392D01*
X25852Y163417D01*
X25932Y163446D01*
X26010Y163478D01*
X26086Y163514D01*
X26161Y163554D01*
X26234Y163597D01*
X26305Y163643D01*
X26374Y163692D01*
X26441Y163745D01*
X26505Y163801D01*
X26566Y163859D01*
X26624Y163920D01*
X26680Y163984D01*
X26733Y164051D01*
X26782Y164120D01*
X26828Y164191D01*
X26871Y164264D01*
X26911Y164339D01*
X26947Y164415D01*
X26979Y164493D01*
X27008Y164573D01*
X27033Y164654D01*
X27054Y164736D01*
X27072Y164819D01*
X27085Y164903D01*
X27095Y164987D01*
X27101Y165071D01*
X27103Y165156D01*
X27101Y165241D01*
X27095Y165325D01*
X27085Y165409D01*
X27072Y165493D01*
X27054Y165576D01*
X27033Y165658D01*
X27008Y165739D01*
X26979Y165819D01*
X26947Y165897D01*
X26911Y165973D01*
X26871Y166048D01*
X26828Y166121D01*
X26782Y166192D01*
X26733Y166261D01*
X26680Y166328D01*
X26624Y166392D01*
X26566Y166453D01*
X26505Y166511D01*
X26441Y166567D01*
X26374Y166620D01*
X26305Y166669D01*
X26234Y166715D01*
X26161Y166758D01*
X26086Y166798D01*
X26010Y166834D01*
X25932Y166866D01*
X25852Y166895D01*
X25771Y166920D01*
X25689Y166941D01*
X25606Y166959D01*
X25522Y166972D01*
X25438Y166982D01*
X25354Y166988D01*
X25269Y166990D01*
X25636Y169926D02*
X23435Y169926D01*
X25636Y169926D02*
X25712Y169924D01*
X25787Y169918D01*
X25862Y169909D01*
X25936Y169895D01*
X26010Y169878D01*
X26082Y169856D01*
X26154Y169832D01*
X26224Y169803D01*
X26292Y169771D01*
X26359Y169736D01*
X26424Y169697D01*
X26487Y169654D01*
X26547Y169609D01*
X26605Y169561D01*
X26661Y169509D01*
X26713Y169455D01*
X26763Y169398D01*
X26810Y169339D01*
X26854Y169278D01*
X26895Y169214D01*
X26932Y169148D01*
X26966Y169080D01*
X26996Y169011D01*
X27023Y168940D01*
X27046Y168868D01*
X27065Y168795D01*
X27080Y168721D01*
X27092Y168646D01*
X27100Y168571D01*
X27104Y168496D01*
X27104Y168420D01*
X27100Y168345D01*
X27092Y168270D01*
X27080Y168195D01*
X27065Y168121D01*
X27046Y168048D01*
X27023Y167976D01*
X26996Y167905D01*
X26966Y167836D01*
X26932Y167768D01*
X26895Y167702D01*
X26854Y167638D01*
X26810Y167577D01*
X26763Y167518D01*
X26713Y167461D01*
X26661Y167407D01*
X26605Y167355D01*
X26547Y167307D01*
X26487Y167262D01*
X26424Y167219D01*
X26359Y167180D01*
X26292Y167145D01*
X26224Y167113D01*
X26154Y167084D01*
X26082Y167060D01*
X26010Y167038D01*
X25936Y167021D01*
X25862Y167007D01*
X25787Y166998D01*
X25712Y166992D01*
X25636Y166990D01*
X25636Y166991D02*
X24168Y166991D01*
X31018Y169926D02*
X31018Y163322D01*
X33953Y163322D01*
X37090Y168458D02*
X38924Y169926D01*
X38924Y163322D01*
X37090Y163322D02*
X40759Y163322D01*
X44038Y163322D02*
X48441Y169926D01*
X44038Y169926D02*
X48441Y163322D01*
X51841Y165890D02*
X56243Y165890D01*
X61357Y163322D02*
X61357Y169926D01*
X59523Y169926D02*
X63192Y169926D01*
X65990Y167725D02*
X65990Y163322D01*
X65807Y169559D02*
X65807Y169926D01*
X66174Y169926D01*
X66174Y169559D01*
X65807Y169559D01*
X69399Y167725D02*
X69399Y163322D01*
X69399Y167725D02*
X71234Y167725D01*
X71298Y167723D01*
X71362Y167718D01*
X71425Y167708D01*
X71488Y167695D01*
X71550Y167679D01*
X71611Y167659D01*
X71670Y167635D01*
X71728Y167608D01*
X71785Y167577D01*
X71839Y167544D01*
X71891Y167507D01*
X71942Y167467D01*
X71990Y167425D01*
X72035Y167380D01*
X72077Y167332D01*
X72117Y167281D01*
X72154Y167229D01*
X72187Y167175D01*
X72218Y167118D01*
X72245Y167060D01*
X72269Y167001D01*
X72289Y166940D01*
X72305Y166878D01*
X72318Y166815D01*
X72328Y166752D01*
X72333Y166688D01*
X72335Y166624D01*
X72335Y163322D01*
X75739Y161121D02*
X76473Y161121D01*
X78674Y167725D01*
X75739Y167725D02*
X77207Y163322D01*
X25722Y58674D02*
X24254Y58674D01*
X24180Y58676D01*
X24105Y58682D01*
X24032Y58691D01*
X23958Y58704D01*
X23886Y58721D01*
X23815Y58741D01*
X23744Y58765D01*
X23675Y58793D01*
X23608Y58824D01*
X23542Y58858D01*
X23477Y58896D01*
X23415Y58937D01*
X23355Y58981D01*
X23298Y59028D01*
X23243Y59078D01*
X23190Y59131D01*
X23140Y59186D01*
X23093Y59243D01*
X23049Y59303D01*
X23008Y59365D01*
X22970Y59430D01*
X22936Y59496D01*
X22905Y59563D01*
X22877Y59632D01*
X22853Y59703D01*
X22833Y59774D01*
X22816Y59846D01*
X22803Y59920D01*
X22794Y59993D01*
X22788Y60068D01*
X22786Y60142D01*
X22786Y63810D01*
X22788Y63884D01*
X22794Y63959D01*
X22803Y64032D01*
X22816Y64106D01*
X22833Y64178D01*
X22853Y64249D01*
X22877Y64320D01*
X22905Y64389D01*
X22936Y64456D01*
X22970Y64522D01*
X23008Y64587D01*
X23049Y64649D01*
X23093Y64709D01*
X23140Y64766D01*
X23190Y64821D01*
X23243Y64874D01*
X23298Y64924D01*
X23355Y64971D01*
X23415Y65015D01*
X23477Y65056D01*
X23542Y65094D01*
X23607Y65128D01*
X23675Y65159D01*
X23744Y65187D01*
X23815Y65211D01*
X23886Y65231D01*
X23958Y65248D01*
X24032Y65261D01*
X24105Y65270D01*
X24180Y65276D01*
X24254Y65278D01*
X25722Y65278D01*
X29112Y63077D02*
X29112Y58674D01*
X29112Y63077D02*
X31313Y63077D01*
X31313Y62343D01*
X35018Y58674D02*
X36853Y58674D01*
X35018Y58674D02*
X34954Y58676D01*
X34890Y58681D01*
X34827Y58691D01*
X34764Y58704D01*
X34702Y58720D01*
X34641Y58740D01*
X34582Y58764D01*
X34524Y58791D01*
X34468Y58822D01*
X34413Y58855D01*
X34361Y58892D01*
X34310Y58932D01*
X34262Y58974D01*
X34217Y59019D01*
X34175Y59067D01*
X34135Y59118D01*
X34098Y59170D01*
X34065Y59225D01*
X34034Y59281D01*
X34007Y59339D01*
X33983Y59398D01*
X33963Y59459D01*
X33947Y59521D01*
X33934Y59584D01*
X33924Y59647D01*
X33919Y59711D01*
X33917Y59775D01*
X33918Y59775D02*
X33918Y61609D01*
X33917Y61609D02*
X33919Y61685D01*
X33925Y61760D01*
X33934Y61835D01*
X33948Y61909D01*
X33965Y61983D01*
X33987Y62055D01*
X34011Y62127D01*
X34040Y62197D01*
X34072Y62265D01*
X34107Y62332D01*
X34146Y62397D01*
X34189Y62460D01*
X34234Y62520D01*
X34282Y62578D01*
X34334Y62634D01*
X34388Y62686D01*
X34445Y62736D01*
X34504Y62783D01*
X34565Y62827D01*
X34629Y62868D01*
X34695Y62905D01*
X34763Y62939D01*
X34832Y62969D01*
X34903Y62996D01*
X34975Y63019D01*
X35048Y63038D01*
X35122Y63053D01*
X35197Y63065D01*
X35272Y63073D01*
X35347Y63077D01*
X35423Y63077D01*
X35498Y63073D01*
X35573Y63065D01*
X35648Y63053D01*
X35722Y63038D01*
X35795Y63019D01*
X35867Y62996D01*
X35938Y62969D01*
X36007Y62939D01*
X36075Y62905D01*
X36141Y62868D01*
X36205Y62827D01*
X36266Y62783D01*
X36325Y62736D01*
X36382Y62686D01*
X36436Y62634D01*
X36488Y62578D01*
X36536Y62520D01*
X36581Y62460D01*
X36624Y62397D01*
X36663Y62332D01*
X36698Y62265D01*
X36730Y62197D01*
X36759Y62127D01*
X36783Y62055D01*
X36805Y61983D01*
X36822Y61909D01*
X36836Y61835D01*
X36845Y61760D01*
X36851Y61685D01*
X36853Y61609D01*
X36853Y60875D01*
X33918Y60875D01*
X41479Y61242D02*
X43130Y61242D01*
X41479Y61242D02*
X41408Y61240D01*
X41338Y61234D01*
X41268Y61224D01*
X41198Y61211D01*
X41130Y61194D01*
X41062Y61172D01*
X40996Y61148D01*
X40931Y61119D01*
X40868Y61087D01*
X40807Y61052D01*
X40747Y61013D01*
X40690Y60971D01*
X40636Y60926D01*
X40584Y60878D01*
X40534Y60828D01*
X40488Y60774D01*
X40444Y60718D01*
X40404Y60660D01*
X40367Y60600D01*
X40333Y60538D01*
X40303Y60474D01*
X40277Y60408D01*
X40254Y60341D01*
X40234Y60273D01*
X40219Y60204D01*
X40207Y60134D01*
X40199Y60064D01*
X40195Y59993D01*
X40195Y59923D01*
X40199Y59852D01*
X40207Y59782D01*
X40219Y59712D01*
X40234Y59643D01*
X40254Y59575D01*
X40277Y59508D01*
X40303Y59442D01*
X40333Y59378D01*
X40367Y59316D01*
X40404Y59256D01*
X40444Y59198D01*
X40488Y59142D01*
X40534Y59088D01*
X40584Y59038D01*
X40636Y58990D01*
X40690Y58945D01*
X40747Y58903D01*
X40807Y58864D01*
X40868Y58829D01*
X40931Y58797D01*
X40996Y58768D01*
X41062Y58744D01*
X41130Y58722D01*
X41198Y58705D01*
X41268Y58692D01*
X41338Y58682D01*
X41408Y58676D01*
X41479Y58674D01*
X43130Y58674D01*
X43130Y61976D01*
X43128Y62040D01*
X43123Y62104D01*
X43113Y62167D01*
X43100Y62230D01*
X43084Y62292D01*
X43064Y62353D01*
X43040Y62412D01*
X43013Y62470D01*
X42982Y62527D01*
X42949Y62581D01*
X42912Y62633D01*
X42872Y62684D01*
X42830Y62732D01*
X42785Y62777D01*
X42737Y62819D01*
X42686Y62859D01*
X42634Y62896D01*
X42580Y62929D01*
X42523Y62960D01*
X42465Y62987D01*
X42406Y63011D01*
X42345Y63031D01*
X42283Y63047D01*
X42220Y63060D01*
X42157Y63070D01*
X42093Y63075D01*
X42029Y63077D01*
X40561Y63077D01*
X46134Y63077D02*
X48335Y63077D01*
X46868Y65278D02*
X46868Y59775D01*
X46867Y59775D02*
X46869Y59711D01*
X46874Y59647D01*
X46884Y59584D01*
X46897Y59521D01*
X46913Y59459D01*
X46933Y59398D01*
X46957Y59339D01*
X46984Y59281D01*
X47015Y59225D01*
X47048Y59170D01*
X47085Y59118D01*
X47125Y59067D01*
X47167Y59019D01*
X47212Y58974D01*
X47260Y58932D01*
X47311Y58892D01*
X47363Y58855D01*
X47418Y58822D01*
X47474Y58791D01*
X47532Y58764D01*
X47591Y58740D01*
X47652Y58720D01*
X47714Y58704D01*
X47777Y58691D01*
X47840Y58681D01*
X47904Y58676D01*
X47968Y58674D01*
X48335Y58674D01*
X52575Y58674D02*
X54409Y58674D01*
X52575Y58674D02*
X52511Y58676D01*
X52447Y58681D01*
X52384Y58691D01*
X52321Y58704D01*
X52259Y58720D01*
X52198Y58740D01*
X52139Y58764D01*
X52081Y58791D01*
X52025Y58822D01*
X51970Y58855D01*
X51918Y58892D01*
X51867Y58932D01*
X51819Y58974D01*
X51774Y59019D01*
X51732Y59067D01*
X51692Y59118D01*
X51655Y59170D01*
X51622Y59225D01*
X51591Y59281D01*
X51564Y59339D01*
X51540Y59398D01*
X51520Y59459D01*
X51504Y59521D01*
X51491Y59584D01*
X51481Y59647D01*
X51476Y59711D01*
X51474Y59775D01*
X51474Y61609D01*
X51476Y61685D01*
X51482Y61760D01*
X51491Y61835D01*
X51505Y61909D01*
X51522Y61983D01*
X51544Y62055D01*
X51568Y62127D01*
X51597Y62197D01*
X51629Y62265D01*
X51664Y62332D01*
X51703Y62397D01*
X51746Y62460D01*
X51791Y62520D01*
X51839Y62578D01*
X51891Y62634D01*
X51945Y62686D01*
X52002Y62736D01*
X52061Y62783D01*
X52122Y62827D01*
X52186Y62868D01*
X52252Y62905D01*
X52320Y62939D01*
X52389Y62969D01*
X52460Y62996D01*
X52532Y63019D01*
X52605Y63038D01*
X52679Y63053D01*
X52754Y63065D01*
X52829Y63073D01*
X52904Y63077D01*
X52980Y63077D01*
X53055Y63073D01*
X53130Y63065D01*
X53205Y63053D01*
X53279Y63038D01*
X53352Y63019D01*
X53424Y62996D01*
X53495Y62969D01*
X53564Y62939D01*
X53632Y62905D01*
X53698Y62868D01*
X53762Y62827D01*
X53823Y62783D01*
X53882Y62736D01*
X53939Y62686D01*
X53993Y62634D01*
X54045Y62578D01*
X54093Y62520D01*
X54138Y62460D01*
X54181Y62397D01*
X54220Y62332D01*
X54255Y62265D01*
X54287Y62197D01*
X54316Y62127D01*
X54340Y62055D01*
X54362Y61983D01*
X54379Y61909D01*
X54393Y61835D01*
X54402Y61760D01*
X54408Y61685D01*
X54410Y61609D01*
X54409Y61609D02*
X54409Y60875D01*
X51474Y60875D01*
X60686Y58674D02*
X60686Y65278D01*
X60686Y58674D02*
X58852Y58674D01*
X58788Y58676D01*
X58724Y58681D01*
X58661Y58691D01*
X58598Y58704D01*
X58536Y58720D01*
X58475Y58740D01*
X58416Y58764D01*
X58358Y58791D01*
X58302Y58822D01*
X58247Y58855D01*
X58195Y58892D01*
X58144Y58932D01*
X58096Y58974D01*
X58051Y59019D01*
X58009Y59067D01*
X57969Y59118D01*
X57932Y59170D01*
X57899Y59225D01*
X57868Y59281D01*
X57841Y59339D01*
X57817Y59398D01*
X57797Y59459D01*
X57781Y59521D01*
X57768Y59584D01*
X57758Y59647D01*
X57753Y59711D01*
X57751Y59775D01*
X57751Y61976D01*
X57753Y62040D01*
X57758Y62104D01*
X57768Y62167D01*
X57781Y62230D01*
X57797Y62292D01*
X57817Y62353D01*
X57841Y62412D01*
X57868Y62470D01*
X57899Y62527D01*
X57932Y62581D01*
X57969Y62633D01*
X58009Y62684D01*
X58051Y62732D01*
X58096Y62777D01*
X58144Y62819D01*
X58195Y62859D01*
X58247Y62896D01*
X58302Y62930D01*
X58358Y62960D01*
X58416Y62987D01*
X58475Y63011D01*
X58536Y63031D01*
X58598Y63047D01*
X58661Y63060D01*
X58724Y63070D01*
X58788Y63075D01*
X58852Y63077D01*
X60686Y63077D01*
X68845Y62343D02*
X70679Y62343D01*
X70679Y62342D02*
X70764Y62340D01*
X70848Y62334D01*
X70932Y62324D01*
X71016Y62311D01*
X71099Y62293D01*
X71181Y62272D01*
X71262Y62247D01*
X71342Y62218D01*
X71420Y62186D01*
X71496Y62150D01*
X71571Y62110D01*
X71644Y62067D01*
X71715Y62021D01*
X71784Y61972D01*
X71851Y61919D01*
X71915Y61863D01*
X71976Y61805D01*
X72034Y61744D01*
X72090Y61680D01*
X72143Y61613D01*
X72192Y61544D01*
X72238Y61473D01*
X72281Y61400D01*
X72321Y61325D01*
X72357Y61249D01*
X72389Y61171D01*
X72418Y61091D01*
X72443Y61010D01*
X72464Y60928D01*
X72482Y60845D01*
X72495Y60761D01*
X72505Y60677D01*
X72511Y60593D01*
X72513Y60508D01*
X72511Y60423D01*
X72505Y60339D01*
X72495Y60255D01*
X72482Y60171D01*
X72464Y60088D01*
X72443Y60006D01*
X72418Y59925D01*
X72389Y59845D01*
X72357Y59767D01*
X72321Y59691D01*
X72281Y59616D01*
X72238Y59543D01*
X72192Y59472D01*
X72143Y59403D01*
X72090Y59336D01*
X72034Y59272D01*
X71976Y59211D01*
X71915Y59153D01*
X71851Y59097D01*
X71784Y59044D01*
X71715Y58995D01*
X71644Y58949D01*
X71571Y58906D01*
X71496Y58866D01*
X71420Y58830D01*
X71342Y58798D01*
X71262Y58769D01*
X71181Y58744D01*
X71099Y58723D01*
X71016Y58705D01*
X70932Y58692D01*
X70848Y58682D01*
X70764Y58676D01*
X70679Y58674D01*
X68845Y58674D01*
X68845Y65278D01*
X70679Y65278D01*
X70755Y65276D01*
X70830Y65270D01*
X70905Y65261D01*
X70979Y65247D01*
X71053Y65230D01*
X71125Y65208D01*
X71197Y65184D01*
X71267Y65155D01*
X71335Y65123D01*
X71402Y65088D01*
X71467Y65049D01*
X71530Y65006D01*
X71590Y64961D01*
X71648Y64913D01*
X71704Y64861D01*
X71756Y64807D01*
X71806Y64750D01*
X71853Y64691D01*
X71897Y64630D01*
X71938Y64566D01*
X71975Y64500D01*
X72009Y64432D01*
X72039Y64363D01*
X72066Y64292D01*
X72089Y64220D01*
X72108Y64147D01*
X72123Y64073D01*
X72135Y63998D01*
X72143Y63923D01*
X72147Y63848D01*
X72147Y63772D01*
X72143Y63697D01*
X72135Y63622D01*
X72123Y63547D01*
X72108Y63473D01*
X72089Y63400D01*
X72066Y63328D01*
X72039Y63257D01*
X72009Y63188D01*
X71975Y63120D01*
X71938Y63054D01*
X71897Y62990D01*
X71853Y62929D01*
X71806Y62870D01*
X71756Y62813D01*
X71704Y62759D01*
X71648Y62707D01*
X71590Y62659D01*
X71530Y62614D01*
X71467Y62571D01*
X71402Y62532D01*
X71335Y62497D01*
X71267Y62465D01*
X71197Y62436D01*
X71125Y62412D01*
X71053Y62390D01*
X70979Y62373D01*
X70905Y62359D01*
X70830Y62350D01*
X70755Y62344D01*
X70679Y62342D01*
X75370Y56473D02*
X76104Y56473D01*
X78306Y63077D01*
X75370Y63077D02*
X76838Y58674D01*
X33752Y53086D02*
X33752Y46482D01*
X33019Y46482D02*
X34486Y46482D01*
X34486Y53086D02*
X33019Y53086D01*
X38200Y49050D02*
X40034Y48316D01*
X38200Y49050D02*
X38144Y49075D01*
X38089Y49103D01*
X38037Y49134D01*
X37986Y49169D01*
X37938Y49208D01*
X37893Y49249D01*
X37850Y49293D01*
X37810Y49340D01*
X37773Y49389D01*
X37740Y49440D01*
X37710Y49494D01*
X37683Y49549D01*
X37660Y49606D01*
X37641Y49664D01*
X37625Y49723D01*
X37614Y49784D01*
X37606Y49845D01*
X37602Y49906D01*
X37603Y49967D01*
X37607Y50028D01*
X37615Y50089D01*
X37627Y50150D01*
X37643Y50209D01*
X37663Y50267D01*
X37686Y50324D01*
X37713Y50379D01*
X37743Y50432D01*
X37777Y50483D01*
X37814Y50532D01*
X37855Y50578D01*
X37898Y50622D01*
X37944Y50663D01*
X37992Y50701D01*
X38043Y50735D01*
X38095Y50767D01*
X38150Y50794D01*
X38206Y50819D01*
X38264Y50839D01*
X38323Y50856D01*
X38383Y50869D01*
X38444Y50878D01*
X38505Y50883D01*
X38567Y50884D01*
X38567Y50885D02*
X38688Y50881D01*
X38810Y50874D01*
X38931Y50863D01*
X39052Y50849D01*
X39172Y50832D01*
X39292Y50810D01*
X39411Y50786D01*
X39529Y50758D01*
X39647Y50726D01*
X39763Y50691D01*
X39879Y50653D01*
X39993Y50611D01*
X40106Y50566D01*
X40218Y50518D01*
X40034Y48316D02*
X40090Y48291D01*
X40145Y48263D01*
X40198Y48232D01*
X40248Y48197D01*
X40296Y48158D01*
X40342Y48117D01*
X40384Y48073D01*
X40424Y48026D01*
X40461Y47977D01*
X40494Y47926D01*
X40524Y47872D01*
X40551Y47817D01*
X40574Y47760D01*
X40593Y47702D01*
X40609Y47643D01*
X40620Y47582D01*
X40628Y47521D01*
X40632Y47460D01*
X40631Y47399D01*
X40627Y47338D01*
X40619Y47277D01*
X40607Y47216D01*
X40591Y47157D01*
X40571Y47099D01*
X40548Y47042D01*
X40521Y46987D01*
X40491Y46934D01*
X40457Y46883D01*
X40420Y46834D01*
X40379Y46788D01*
X40336Y46744D01*
X40291Y46703D01*
X40242Y46665D01*
X40191Y46631D01*
X40139Y46599D01*
X40084Y46572D01*
X40028Y46547D01*
X39970Y46527D01*
X39911Y46510D01*
X39851Y46497D01*
X39790Y46488D01*
X39729Y46483D01*
X39667Y46482D01*
X39667Y46483D02*
X39520Y46486D01*
X39373Y46494D01*
X39226Y46505D01*
X39080Y46519D01*
X38934Y46537D01*
X38788Y46558D01*
X38643Y46582D01*
X38499Y46610D01*
X38355Y46642D01*
X38212Y46677D01*
X38070Y46715D01*
X37929Y46756D01*
X37788Y46801D01*
X37649Y46849D01*
X45210Y49050D02*
X46861Y49050D01*
X45210Y49050D02*
X45139Y49048D01*
X45069Y49042D01*
X44999Y49032D01*
X44929Y49019D01*
X44861Y49002D01*
X44793Y48980D01*
X44727Y48956D01*
X44662Y48927D01*
X44599Y48895D01*
X44538Y48860D01*
X44478Y48821D01*
X44421Y48779D01*
X44367Y48734D01*
X44315Y48686D01*
X44265Y48636D01*
X44219Y48582D01*
X44175Y48526D01*
X44135Y48468D01*
X44098Y48408D01*
X44064Y48346D01*
X44034Y48282D01*
X44008Y48216D01*
X43985Y48149D01*
X43965Y48081D01*
X43950Y48012D01*
X43938Y47942D01*
X43930Y47872D01*
X43926Y47801D01*
X43926Y47731D01*
X43930Y47660D01*
X43938Y47590D01*
X43950Y47520D01*
X43965Y47451D01*
X43985Y47383D01*
X44008Y47316D01*
X44034Y47250D01*
X44064Y47186D01*
X44098Y47124D01*
X44135Y47064D01*
X44175Y47006D01*
X44219Y46950D01*
X44265Y46896D01*
X44315Y46846D01*
X44367Y46798D01*
X44421Y46753D01*
X44478Y46711D01*
X44538Y46672D01*
X44599Y46637D01*
X44662Y46605D01*
X44727Y46576D01*
X44793Y46552D01*
X44861Y46530D01*
X44929Y46513D01*
X44999Y46500D01*
X45069Y46490D01*
X45139Y46484D01*
X45210Y46482D01*
X46861Y46482D01*
X46861Y49784D01*
X46862Y49784D02*
X46860Y49848D01*
X46855Y49912D01*
X46845Y49975D01*
X46832Y50038D01*
X46816Y50100D01*
X46796Y50161D01*
X46772Y50220D01*
X46745Y50278D01*
X46714Y50335D01*
X46681Y50389D01*
X46644Y50441D01*
X46604Y50492D01*
X46562Y50540D01*
X46517Y50585D01*
X46469Y50627D01*
X46418Y50667D01*
X46366Y50704D01*
X46312Y50737D01*
X46255Y50768D01*
X46197Y50795D01*
X46138Y50819D01*
X46077Y50839D01*
X46015Y50855D01*
X45952Y50868D01*
X45889Y50878D01*
X45825Y50883D01*
X45761Y50885D01*
X44293Y50885D01*
X50962Y53086D02*
X50962Y46482D01*
X50962Y48683D02*
X53897Y50885D01*
X52246Y49601D02*
X53897Y46482D01*
X60568Y46482D02*
X62769Y53086D01*
X64971Y46482D01*
X64420Y48133D02*
X61118Y48133D01*
X61852Y55104D02*
X61854Y55163D01*
X61860Y55221D01*
X61869Y55279D01*
X61882Y55337D01*
X61899Y55393D01*
X61919Y55448D01*
X61943Y55502D01*
X61970Y55554D01*
X62000Y55604D01*
X62034Y55652D01*
X62071Y55698D01*
X62110Y55742D01*
X62153Y55783D01*
X62197Y55821D01*
X62244Y55856D01*
X62294Y55888D01*
X62345Y55917D01*
X62398Y55943D01*
X62452Y55965D01*
X62508Y55983D01*
X62565Y55998D01*
X62623Y56009D01*
X62681Y56017D01*
X62740Y56021D01*
X62798Y56021D01*
X62857Y56017D01*
X62915Y56009D01*
X62973Y55998D01*
X63030Y55983D01*
X63086Y55965D01*
X63140Y55943D01*
X63193Y55917D01*
X63244Y55888D01*
X63294Y55856D01*
X63341Y55821D01*
X63385Y55783D01*
X63428Y55742D01*
X63467Y55698D01*
X63504Y55652D01*
X63538Y55604D01*
X63568Y55554D01*
X63595Y55502D01*
X63619Y55448D01*
X63639Y55393D01*
X63656Y55337D01*
X63669Y55279D01*
X63678Y55221D01*
X63684Y55163D01*
X63686Y55104D01*
X63684Y55045D01*
X63678Y54987D01*
X63669Y54929D01*
X63656Y54871D01*
X63639Y54815D01*
X63619Y54760D01*
X63595Y54706D01*
X63568Y54654D01*
X63538Y54604D01*
X63504Y54556D01*
X63467Y54510D01*
X63428Y54466D01*
X63385Y54425D01*
X63341Y54387D01*
X63294Y54352D01*
X63244Y54320D01*
X63193Y54291D01*
X63140Y54265D01*
X63086Y54243D01*
X63030Y54225D01*
X62973Y54210D01*
X62915Y54199D01*
X62857Y54191D01*
X62798Y54187D01*
X62740Y54187D01*
X62681Y54191D01*
X62623Y54199D01*
X62565Y54210D01*
X62508Y54225D01*
X62452Y54243D01*
X62398Y54265D01*
X62345Y54291D01*
X62294Y54320D01*
X62244Y54352D01*
X62197Y54387D01*
X62153Y54425D01*
X62110Y54466D01*
X62071Y54510D01*
X62034Y54556D01*
X62000Y54604D01*
X61970Y54654D01*
X61943Y54706D01*
X61919Y54760D01*
X61899Y54815D01*
X61882Y54871D01*
X61869Y54929D01*
X61860Y54987D01*
X61854Y55045D01*
X61852Y55104D01*
X67706Y46849D02*
X67706Y46482D01*
X67706Y46849D02*
X68073Y46849D01*
X68073Y46482D01*
X67706Y46482D01*
X7153Y39624D02*
X4952Y46228D01*
X9355Y46228D02*
X7153Y39624D01*
X12634Y44760D02*
X14468Y46228D01*
X14468Y39624D01*
X12634Y39624D02*
X16303Y39624D01*
X19406Y39624D02*
X19406Y39991D01*
X19772Y39991D01*
X19772Y39624D01*
X19406Y39624D01*
X22875Y42926D02*
X22877Y43071D01*
X22883Y43216D01*
X22892Y43361D01*
X22906Y43506D01*
X22923Y43650D01*
X22945Y43793D01*
X22970Y43937D01*
X22999Y44079D01*
X23031Y44220D01*
X23068Y44361D01*
X23108Y44500D01*
X23152Y44639D01*
X23199Y44776D01*
X23250Y44912D01*
X23305Y45046D01*
X23363Y45179D01*
X23425Y45311D01*
X23451Y45380D01*
X23480Y45447D01*
X23513Y45513D01*
X23549Y45576D01*
X23589Y45638D01*
X23632Y45697D01*
X23678Y45754D01*
X23727Y45808D01*
X23779Y45860D01*
X23834Y45909D01*
X23891Y45954D01*
X23951Y45997D01*
X24013Y46036D01*
X24076Y46072D01*
X24142Y46105D01*
X24209Y46133D01*
X24278Y46159D01*
X24348Y46180D01*
X24419Y46198D01*
X24491Y46211D01*
X24564Y46221D01*
X24637Y46227D01*
X24710Y46229D01*
X24710Y46228D02*
X24783Y46226D01*
X24856Y46220D01*
X24929Y46210D01*
X25001Y46197D01*
X25072Y46179D01*
X25142Y46158D01*
X25210Y46132D01*
X25278Y46104D01*
X25343Y46071D01*
X25407Y46035D01*
X25469Y45996D01*
X25528Y45954D01*
X25585Y45908D01*
X25640Y45859D01*
X25692Y45808D01*
X25741Y45753D01*
X25787Y45696D01*
X25830Y45637D01*
X25870Y45576D01*
X25906Y45512D01*
X25939Y45447D01*
X25968Y45380D01*
X25994Y45311D01*
X26056Y45179D01*
X26114Y45046D01*
X26169Y44912D01*
X26220Y44776D01*
X26267Y44639D01*
X26311Y44500D01*
X26351Y44361D01*
X26388Y44220D01*
X26420Y44079D01*
X26449Y43937D01*
X26474Y43794D01*
X26496Y43650D01*
X26513Y43506D01*
X26527Y43361D01*
X26536Y43216D01*
X26542Y43071D01*
X26544Y42926D01*
X22876Y42926D02*
X22878Y42781D01*
X22884Y42636D01*
X22893Y42491D01*
X22907Y42346D01*
X22924Y42202D01*
X22946Y42059D01*
X22971Y41916D01*
X22999Y41773D01*
X23032Y41632D01*
X23069Y41491D01*
X23109Y41352D01*
X23153Y41213D01*
X23200Y41076D01*
X23251Y40940D01*
X23306Y40806D01*
X23364Y40673D01*
X23426Y40541D01*
X23425Y40542D02*
X23451Y40473D01*
X23480Y40406D01*
X23513Y40340D01*
X23549Y40277D01*
X23589Y40215D01*
X23632Y40156D01*
X23678Y40099D01*
X23727Y40045D01*
X23779Y39993D01*
X23834Y39944D01*
X23891Y39899D01*
X23951Y39856D01*
X24013Y39817D01*
X24076Y39781D01*
X24142Y39748D01*
X24209Y39720D01*
X24278Y39694D01*
X24348Y39673D01*
X24419Y39655D01*
X24491Y39642D01*
X24564Y39632D01*
X24637Y39626D01*
X24710Y39624D01*
X25994Y40541D02*
X26056Y40673D01*
X26114Y40806D01*
X26169Y40940D01*
X26220Y41076D01*
X26267Y41213D01*
X26311Y41352D01*
X26351Y41491D01*
X26388Y41632D01*
X26420Y41773D01*
X26449Y41915D01*
X26474Y42058D01*
X26496Y42202D01*
X26513Y42346D01*
X26527Y42491D01*
X26536Y42636D01*
X26542Y42781D01*
X26544Y42926D01*
X25994Y40541D02*
X25968Y40472D01*
X25939Y40405D01*
X25906Y40340D01*
X25870Y40276D01*
X25830Y40215D01*
X25787Y40156D01*
X25741Y40099D01*
X25692Y40044D01*
X25640Y39993D01*
X25585Y39944D01*
X25528Y39898D01*
X25469Y39856D01*
X25407Y39817D01*
X25343Y39781D01*
X25278Y39748D01*
X25210Y39720D01*
X25142Y39694D01*
X25072Y39673D01*
X25000Y39655D01*
X24929Y39642D01*
X24856Y39632D01*
X24783Y39626D01*
X24710Y39624D01*
X23242Y41092D02*
X26177Y44760D01*
D11*
X17840Y149836D03*
X25340Y149836D03*
D12*
X21590Y149836D03*
D13*
X62912Y122444D02*
X68912Y122444D01*
X68912Y112444D01*
X68912Y102444D02*
X68912Y92444D01*
X62912Y92444D01*
X20912Y92444D02*
X14912Y92444D01*
X14912Y102444D01*
X14912Y112444D02*
X14912Y122444D01*
X20912Y122444D01*
D14*
X37912Y122444D02*
X37914Y122570D01*
X37920Y122695D01*
X37930Y122820D01*
X37944Y122945D01*
X37961Y123070D01*
X37983Y123194D01*
X38008Y123317D01*
X38038Y123439D01*
X38071Y123560D01*
X38108Y123680D01*
X38148Y123799D01*
X38193Y123916D01*
X38241Y124033D01*
X38293Y124147D01*
X38348Y124260D01*
X38407Y124371D01*
X38469Y124480D01*
X38535Y124587D01*
X38604Y124692D01*
X38676Y124795D01*
X38751Y124896D01*
X38830Y124994D01*
X38912Y125089D01*
X38996Y125182D01*
X39084Y125272D01*
X39174Y125360D01*
X39267Y125444D01*
X39362Y125526D01*
X39460Y125605D01*
X39561Y125680D01*
X39664Y125752D01*
X39769Y125821D01*
X39876Y125887D01*
X39985Y125949D01*
X40096Y126008D01*
X40209Y126063D01*
X40323Y126115D01*
X40440Y126163D01*
X40557Y126208D01*
X40676Y126248D01*
X40796Y126285D01*
X40917Y126318D01*
X41039Y126348D01*
X41162Y126373D01*
X41286Y126395D01*
X41411Y126412D01*
X41536Y126426D01*
X41661Y126436D01*
X41786Y126442D01*
X41912Y126444D01*
X42038Y126442D01*
X42163Y126436D01*
X42288Y126426D01*
X42413Y126412D01*
X42538Y126395D01*
X42662Y126373D01*
X42785Y126348D01*
X42907Y126318D01*
X43028Y126285D01*
X43148Y126248D01*
X43267Y126208D01*
X43384Y126163D01*
X43501Y126115D01*
X43615Y126063D01*
X43728Y126008D01*
X43839Y125949D01*
X43948Y125887D01*
X44055Y125821D01*
X44160Y125752D01*
X44263Y125680D01*
X44364Y125605D01*
X44462Y125526D01*
X44557Y125444D01*
X44650Y125360D01*
X44740Y125272D01*
X44828Y125182D01*
X44912Y125089D01*
X44994Y124994D01*
X45073Y124896D01*
X45148Y124795D01*
X45220Y124692D01*
X45289Y124587D01*
X45355Y124480D01*
X45417Y124371D01*
X45476Y124260D01*
X45531Y124147D01*
X45583Y124033D01*
X45631Y123916D01*
X45676Y123799D01*
X45716Y123680D01*
X45753Y123560D01*
X45786Y123439D01*
X45816Y123317D01*
X45841Y123194D01*
X45863Y123070D01*
X45880Y122945D01*
X45894Y122820D01*
X45904Y122695D01*
X45910Y122570D01*
X45912Y122444D01*
D15*
X57912Y89444D03*
M02*
