G04 EAGLE Gerber RS-274X export*
G75*
%MOMM*%
%FSLAX34Y34*%
%LPD*%
%INSilkscreen Bottom*%
%IPPOS*%
%AMOC8*
5,1,8,0,0,1.08239X$1,22.5*%
G01*
%ADD10C,0.152400*%
%ADD11C,0.150000*%
%ADD12C,0.500000*%


D10*
X14407Y73660D02*
X14407Y74027D01*
X14041Y74027D01*
X14041Y73660D01*
X14407Y73660D01*
X19259Y99060D02*
X45Y99060D01*
X14095Y96012D02*
X18497Y89408D01*
X14095Y89408D02*
X18497Y96012D01*
X8858Y89408D02*
X8784Y89410D01*
X8709Y89416D01*
X8636Y89425D01*
X8562Y89438D01*
X8490Y89455D01*
X8419Y89475D01*
X8348Y89499D01*
X8279Y89527D01*
X8212Y89558D01*
X8146Y89592D01*
X8081Y89630D01*
X8019Y89671D01*
X7959Y89715D01*
X7902Y89762D01*
X7847Y89812D01*
X7794Y89865D01*
X7744Y89920D01*
X7697Y89977D01*
X7653Y90037D01*
X7612Y90099D01*
X7574Y90164D01*
X7540Y90230D01*
X7509Y90297D01*
X7481Y90366D01*
X7457Y90437D01*
X7437Y90508D01*
X7420Y90580D01*
X7407Y90654D01*
X7398Y90727D01*
X7392Y90802D01*
X7390Y90876D01*
X8858Y89408D02*
X8969Y89410D01*
X9080Y89416D01*
X9191Y89426D01*
X9302Y89440D01*
X9411Y89458D01*
X9520Y89480D01*
X9629Y89505D01*
X9736Y89535D01*
X9842Y89568D01*
X9947Y89606D01*
X10050Y89646D01*
X10152Y89691D01*
X10252Y89739D01*
X10351Y89791D01*
X10447Y89846D01*
X10542Y89905D01*
X10634Y89967D01*
X10724Y90033D01*
X10812Y90101D01*
X10897Y90173D01*
X10979Y90248D01*
X11059Y90325D01*
X10876Y94544D02*
X10874Y94618D01*
X10868Y94693D01*
X10859Y94766D01*
X10846Y94840D01*
X10829Y94912D01*
X10809Y94983D01*
X10785Y95054D01*
X10757Y95123D01*
X10726Y95190D01*
X10692Y95256D01*
X10654Y95321D01*
X10613Y95383D01*
X10569Y95443D01*
X10522Y95500D01*
X10472Y95555D01*
X10419Y95608D01*
X10364Y95658D01*
X10307Y95705D01*
X10247Y95749D01*
X10185Y95790D01*
X10120Y95828D01*
X10054Y95862D01*
X9987Y95893D01*
X9918Y95921D01*
X9847Y95945D01*
X9776Y95965D01*
X9704Y95982D01*
X9630Y95995D01*
X9557Y96004D01*
X9482Y96010D01*
X9408Y96012D01*
X9304Y96010D01*
X9200Y96004D01*
X9096Y95994D01*
X8993Y95981D01*
X8890Y95963D01*
X8788Y95941D01*
X8687Y95916D01*
X8587Y95887D01*
X8488Y95854D01*
X8391Y95817D01*
X8295Y95777D01*
X8200Y95733D01*
X8108Y95685D01*
X8017Y95635D01*
X7928Y95580D01*
X7841Y95523D01*
X7757Y95462D01*
X10142Y93259D02*
X10205Y93298D01*
X10265Y93340D01*
X10324Y93385D01*
X10380Y93433D01*
X10433Y93484D01*
X10484Y93537D01*
X10533Y93592D01*
X10578Y93650D01*
X10621Y93710D01*
X10661Y93772D01*
X10697Y93836D01*
X10731Y93902D01*
X10761Y93970D01*
X10788Y94038D01*
X10811Y94108D01*
X10831Y94179D01*
X10847Y94251D01*
X10860Y94324D01*
X10869Y94397D01*
X10874Y94470D01*
X10876Y94544D01*
X8124Y92161D02*
X8061Y92122D01*
X8001Y92080D01*
X7943Y92035D01*
X7886Y91987D01*
X7833Y91936D01*
X7782Y91883D01*
X7733Y91828D01*
X7688Y91770D01*
X7645Y91710D01*
X7605Y91648D01*
X7569Y91584D01*
X7535Y91518D01*
X7505Y91450D01*
X7478Y91382D01*
X7455Y91312D01*
X7435Y91241D01*
X7419Y91169D01*
X7406Y91096D01*
X7397Y91023D01*
X7392Y90950D01*
X7390Y90876D01*
X8124Y92160D02*
X10142Y93260D01*
X2641Y96012D02*
X2641Y89408D01*
X807Y96012D02*
X4476Y96012D01*
X15438Y105862D02*
X15440Y105788D01*
X15446Y105713D01*
X15455Y105640D01*
X15468Y105566D01*
X15485Y105494D01*
X15505Y105423D01*
X15529Y105352D01*
X15557Y105283D01*
X15588Y105215D01*
X15622Y105150D01*
X15660Y105085D01*
X15701Y105023D01*
X15745Y104963D01*
X15792Y104906D01*
X15842Y104851D01*
X15895Y104798D01*
X15950Y104748D01*
X16007Y104701D01*
X16067Y104657D01*
X16129Y104616D01*
X16194Y104578D01*
X16260Y104544D01*
X16327Y104513D01*
X16396Y104485D01*
X16467Y104461D01*
X16538Y104441D01*
X16611Y104424D01*
X16684Y104411D01*
X16758Y104402D01*
X16832Y104396D01*
X16906Y104394D01*
X17017Y104396D01*
X17128Y104402D01*
X17239Y104412D01*
X17350Y104426D01*
X17459Y104444D01*
X17568Y104466D01*
X17677Y104491D01*
X17784Y104521D01*
X17890Y104554D01*
X17995Y104592D01*
X18098Y104632D01*
X18200Y104677D01*
X18300Y104725D01*
X18399Y104777D01*
X18495Y104832D01*
X18590Y104891D01*
X18682Y104953D01*
X18772Y105019D01*
X18860Y105087D01*
X18945Y105159D01*
X19027Y105234D01*
X19107Y105311D01*
X18924Y109530D02*
X18922Y109604D01*
X18916Y109679D01*
X18907Y109752D01*
X18894Y109826D01*
X18877Y109898D01*
X18857Y109969D01*
X18833Y110040D01*
X18805Y110109D01*
X18774Y110176D01*
X18740Y110242D01*
X18702Y110307D01*
X18661Y110369D01*
X18617Y110429D01*
X18570Y110486D01*
X18520Y110541D01*
X18467Y110594D01*
X18412Y110644D01*
X18355Y110691D01*
X18295Y110735D01*
X18233Y110776D01*
X18168Y110814D01*
X18102Y110848D01*
X18035Y110879D01*
X17966Y110907D01*
X17895Y110931D01*
X17824Y110951D01*
X17752Y110968D01*
X17678Y110981D01*
X17605Y110990D01*
X17530Y110996D01*
X17456Y110998D01*
X17352Y110996D01*
X17248Y110990D01*
X17144Y110980D01*
X17041Y110967D01*
X16938Y110949D01*
X16836Y110927D01*
X16735Y110902D01*
X16635Y110873D01*
X16536Y110840D01*
X16439Y110803D01*
X16343Y110763D01*
X16248Y110719D01*
X16156Y110671D01*
X16065Y110621D01*
X15976Y110566D01*
X15889Y110509D01*
X15805Y110448D01*
X18190Y108245D02*
X18253Y108284D01*
X18313Y108326D01*
X18372Y108371D01*
X18428Y108419D01*
X18481Y108470D01*
X18532Y108523D01*
X18581Y108578D01*
X18626Y108636D01*
X18669Y108696D01*
X18709Y108758D01*
X18745Y108822D01*
X18779Y108888D01*
X18809Y108956D01*
X18836Y109024D01*
X18859Y109094D01*
X18879Y109165D01*
X18895Y109237D01*
X18908Y109310D01*
X18917Y109383D01*
X18922Y109456D01*
X18924Y109530D01*
X16172Y107147D02*
X16109Y107108D01*
X16049Y107066D01*
X15991Y107021D01*
X15934Y106973D01*
X15881Y106922D01*
X15830Y106869D01*
X15781Y106814D01*
X15736Y106756D01*
X15693Y106696D01*
X15653Y106634D01*
X15617Y106570D01*
X15583Y106504D01*
X15553Y106436D01*
X15526Y106368D01*
X15503Y106298D01*
X15483Y106227D01*
X15467Y106155D01*
X15454Y106082D01*
X15445Y106009D01*
X15440Y105936D01*
X15438Y105862D01*
X16172Y107146D02*
X18190Y108246D01*
X11792Y110998D02*
X11792Y104394D01*
X11792Y110998D02*
X9957Y110998D01*
X9872Y110996D01*
X9788Y110990D01*
X9704Y110980D01*
X9620Y110967D01*
X9537Y110949D01*
X9455Y110928D01*
X9374Y110903D01*
X9294Y110874D01*
X9216Y110842D01*
X9140Y110806D01*
X9065Y110766D01*
X8992Y110723D01*
X8921Y110677D01*
X8852Y110628D01*
X8785Y110575D01*
X8721Y110519D01*
X8660Y110461D01*
X8602Y110400D01*
X8546Y110336D01*
X8493Y110269D01*
X8444Y110200D01*
X8398Y110129D01*
X8355Y110056D01*
X8315Y109981D01*
X8279Y109905D01*
X8247Y109827D01*
X8218Y109747D01*
X8193Y109666D01*
X8172Y109584D01*
X8154Y109501D01*
X8141Y109417D01*
X8131Y109333D01*
X8125Y109249D01*
X8123Y109164D01*
X8123Y106228D01*
X8125Y106143D01*
X8131Y106059D01*
X8141Y105975D01*
X8154Y105891D01*
X8172Y105808D01*
X8193Y105726D01*
X8218Y105645D01*
X8247Y105565D01*
X8279Y105487D01*
X8315Y105411D01*
X8355Y105336D01*
X8398Y105263D01*
X8444Y105192D01*
X8493Y105123D01*
X8546Y105056D01*
X8602Y104992D01*
X8660Y104931D01*
X8721Y104873D01*
X8785Y104817D01*
X8852Y104764D01*
X8921Y104715D01*
X8992Y104669D01*
X9065Y104626D01*
X9140Y104586D01*
X9216Y104550D01*
X9294Y104518D01*
X9374Y104489D01*
X9455Y104464D01*
X9537Y104443D01*
X9620Y104425D01*
X9704Y104412D01*
X9788Y104402D01*
X9872Y104396D01*
X9957Y104394D01*
X11792Y104394D01*
X4600Y104394D02*
X2398Y110998D01*
X197Y104394D01*
X747Y106045D02*
X4049Y106045D01*
X15636Y120650D02*
X15562Y120652D01*
X15487Y120658D01*
X15414Y120667D01*
X15340Y120680D01*
X15268Y120697D01*
X15197Y120717D01*
X15126Y120741D01*
X15057Y120769D01*
X14990Y120800D01*
X14924Y120834D01*
X14859Y120872D01*
X14797Y120913D01*
X14737Y120957D01*
X14680Y121004D01*
X14625Y121054D01*
X14572Y121107D01*
X14522Y121162D01*
X14475Y121219D01*
X14431Y121279D01*
X14390Y121341D01*
X14352Y121406D01*
X14318Y121472D01*
X14287Y121539D01*
X14259Y121608D01*
X14235Y121679D01*
X14215Y121750D01*
X14198Y121822D01*
X14185Y121896D01*
X14176Y121969D01*
X14170Y122044D01*
X14168Y122118D01*
X15636Y120650D02*
X15747Y120652D01*
X15858Y120658D01*
X15969Y120668D01*
X16080Y120682D01*
X16189Y120700D01*
X16298Y120722D01*
X16407Y120747D01*
X16514Y120777D01*
X16620Y120810D01*
X16725Y120848D01*
X16828Y120888D01*
X16930Y120933D01*
X17030Y120981D01*
X17129Y121033D01*
X17225Y121088D01*
X17320Y121147D01*
X17412Y121209D01*
X17502Y121275D01*
X17590Y121343D01*
X17675Y121415D01*
X17757Y121490D01*
X17837Y121567D01*
X17654Y125786D02*
X17652Y125860D01*
X17646Y125935D01*
X17637Y126008D01*
X17624Y126082D01*
X17607Y126154D01*
X17587Y126225D01*
X17563Y126296D01*
X17535Y126365D01*
X17504Y126432D01*
X17470Y126498D01*
X17432Y126563D01*
X17391Y126625D01*
X17347Y126685D01*
X17300Y126742D01*
X17250Y126797D01*
X17197Y126850D01*
X17142Y126900D01*
X17085Y126947D01*
X17025Y126991D01*
X16963Y127032D01*
X16898Y127070D01*
X16832Y127104D01*
X16765Y127135D01*
X16696Y127163D01*
X16625Y127187D01*
X16554Y127207D01*
X16482Y127224D01*
X16408Y127237D01*
X16335Y127246D01*
X16260Y127252D01*
X16186Y127254D01*
X16082Y127252D01*
X15978Y127246D01*
X15874Y127236D01*
X15771Y127223D01*
X15668Y127205D01*
X15566Y127183D01*
X15465Y127158D01*
X15365Y127129D01*
X15266Y127096D01*
X15169Y127059D01*
X15073Y127019D01*
X14978Y126975D01*
X14886Y126927D01*
X14795Y126877D01*
X14706Y126822D01*
X14619Y126765D01*
X14535Y126704D01*
X16920Y124501D02*
X16983Y124540D01*
X17043Y124582D01*
X17102Y124627D01*
X17158Y124675D01*
X17211Y124726D01*
X17262Y124779D01*
X17311Y124834D01*
X17356Y124892D01*
X17399Y124952D01*
X17439Y125014D01*
X17475Y125078D01*
X17509Y125144D01*
X17539Y125212D01*
X17566Y125280D01*
X17589Y125350D01*
X17609Y125421D01*
X17625Y125493D01*
X17638Y125566D01*
X17647Y125639D01*
X17652Y125712D01*
X17654Y125786D01*
X14902Y123403D02*
X14839Y123364D01*
X14779Y123322D01*
X14721Y123277D01*
X14664Y123229D01*
X14611Y123178D01*
X14560Y123125D01*
X14511Y123070D01*
X14466Y123012D01*
X14423Y122952D01*
X14383Y122890D01*
X14347Y122826D01*
X14313Y122760D01*
X14283Y122692D01*
X14256Y122624D01*
X14233Y122554D01*
X14213Y122483D01*
X14197Y122411D01*
X14184Y122338D01*
X14175Y122265D01*
X14170Y122192D01*
X14168Y122118D01*
X14902Y123402D02*
X16920Y124502D01*
X9334Y120650D02*
X7866Y120650D01*
X9334Y120650D02*
X9408Y120652D01*
X9483Y120658D01*
X9556Y120667D01*
X9630Y120680D01*
X9702Y120697D01*
X9773Y120717D01*
X9844Y120741D01*
X9913Y120769D01*
X9981Y120800D01*
X10046Y120834D01*
X10111Y120872D01*
X10173Y120913D01*
X10233Y120957D01*
X10290Y121004D01*
X10345Y121054D01*
X10398Y121107D01*
X10448Y121162D01*
X10495Y121219D01*
X10539Y121279D01*
X10580Y121341D01*
X10618Y121406D01*
X10652Y121472D01*
X10683Y121539D01*
X10711Y121608D01*
X10735Y121679D01*
X10755Y121750D01*
X10772Y121823D01*
X10785Y121896D01*
X10794Y121970D01*
X10800Y122044D01*
X10802Y122118D01*
X10801Y122118D02*
X10801Y125786D01*
X10802Y125786D02*
X10800Y125860D01*
X10794Y125935D01*
X10785Y126008D01*
X10772Y126081D01*
X10755Y126154D01*
X10735Y126225D01*
X10711Y126296D01*
X10683Y126365D01*
X10652Y126432D01*
X10618Y126498D01*
X10580Y126563D01*
X10539Y126625D01*
X10495Y126685D01*
X10448Y126742D01*
X10398Y126797D01*
X10345Y126850D01*
X10290Y126900D01*
X10233Y126947D01*
X10173Y126991D01*
X10111Y127032D01*
X10046Y127070D01*
X9981Y127104D01*
X9913Y127135D01*
X9844Y127163D01*
X9774Y127187D01*
X9702Y127207D01*
X9630Y127224D01*
X9556Y127237D01*
X9483Y127246D01*
X9408Y127252D01*
X9334Y127254D01*
X7866Y127254D01*
X4402Y127254D02*
X4402Y120650D01*
X1467Y120650D01*
X15620Y138289D02*
X16721Y138289D01*
X15620Y138289D02*
X15620Y134620D01*
X17822Y134620D01*
X17896Y134622D01*
X17971Y134628D01*
X18044Y134637D01*
X18118Y134650D01*
X18190Y134667D01*
X18261Y134687D01*
X18332Y134711D01*
X18401Y134739D01*
X18469Y134770D01*
X18534Y134804D01*
X18599Y134842D01*
X18661Y134883D01*
X18721Y134927D01*
X18778Y134974D01*
X18833Y135024D01*
X18886Y135077D01*
X18936Y135132D01*
X18983Y135189D01*
X19027Y135249D01*
X19068Y135311D01*
X19106Y135376D01*
X19140Y135442D01*
X19171Y135509D01*
X19199Y135578D01*
X19223Y135649D01*
X19243Y135720D01*
X19260Y135793D01*
X19273Y135866D01*
X19282Y135940D01*
X19288Y136014D01*
X19290Y136088D01*
X19289Y136088D02*
X19289Y139756D01*
X19290Y139756D02*
X19288Y139830D01*
X19282Y139905D01*
X19273Y139978D01*
X19260Y140051D01*
X19243Y140124D01*
X19223Y140195D01*
X19199Y140266D01*
X19171Y140335D01*
X19140Y140402D01*
X19106Y140468D01*
X19068Y140533D01*
X19027Y140595D01*
X18983Y140655D01*
X18936Y140712D01*
X18886Y140767D01*
X18833Y140820D01*
X18778Y140870D01*
X18721Y140917D01*
X18661Y140961D01*
X18599Y141002D01*
X18534Y141040D01*
X18469Y141074D01*
X18401Y141105D01*
X18332Y141133D01*
X18262Y141157D01*
X18190Y141177D01*
X18118Y141194D01*
X18044Y141207D01*
X17971Y141216D01*
X17896Y141222D01*
X17822Y141224D01*
X15620Y141224D01*
X11486Y141224D02*
X11486Y134620D01*
X7818Y134620D02*
X11486Y141224D01*
X7818Y141224D02*
X7818Y134620D01*
X3684Y134620D02*
X3684Y141224D01*
X1849Y141224D01*
X1764Y141222D01*
X1680Y141216D01*
X1596Y141206D01*
X1512Y141193D01*
X1429Y141175D01*
X1347Y141154D01*
X1266Y141129D01*
X1186Y141100D01*
X1108Y141068D01*
X1032Y141032D01*
X957Y140992D01*
X884Y140949D01*
X813Y140903D01*
X744Y140854D01*
X677Y140801D01*
X613Y140745D01*
X552Y140687D01*
X494Y140626D01*
X438Y140562D01*
X385Y140495D01*
X336Y140426D01*
X290Y140355D01*
X247Y140282D01*
X207Y140207D01*
X171Y140131D01*
X139Y140053D01*
X110Y139973D01*
X85Y139892D01*
X64Y139810D01*
X46Y139727D01*
X33Y139643D01*
X23Y139559D01*
X17Y139475D01*
X15Y139390D01*
X15Y136454D01*
X17Y136369D01*
X23Y136285D01*
X33Y136201D01*
X46Y136117D01*
X64Y136034D01*
X85Y135952D01*
X110Y135871D01*
X139Y135791D01*
X171Y135713D01*
X207Y135637D01*
X247Y135562D01*
X290Y135489D01*
X336Y135418D01*
X385Y135349D01*
X438Y135282D01*
X494Y135218D01*
X552Y135157D01*
X613Y135099D01*
X677Y135043D01*
X744Y134990D01*
X813Y134941D01*
X884Y134895D01*
X957Y134852D01*
X1032Y134812D01*
X1108Y134776D01*
X1186Y134744D01*
X1266Y134715D01*
X1347Y134690D01*
X1429Y134669D01*
X1512Y134651D01*
X1596Y134638D01*
X1680Y134628D01*
X1764Y134622D01*
X1849Y134620D01*
X3684Y134620D01*
X17151Y74676D02*
X18985Y74676D01*
X17151Y74676D02*
X17066Y74678D01*
X16982Y74684D01*
X16898Y74694D01*
X16814Y74707D01*
X16731Y74725D01*
X16649Y74746D01*
X16568Y74771D01*
X16488Y74800D01*
X16410Y74832D01*
X16334Y74868D01*
X16259Y74908D01*
X16186Y74951D01*
X16115Y74997D01*
X16046Y75046D01*
X15979Y75099D01*
X15915Y75155D01*
X15854Y75213D01*
X15796Y75274D01*
X15740Y75338D01*
X15687Y75405D01*
X15638Y75474D01*
X15592Y75545D01*
X15549Y75618D01*
X15509Y75693D01*
X15473Y75769D01*
X15441Y75847D01*
X15412Y75927D01*
X15387Y76008D01*
X15366Y76090D01*
X15348Y76173D01*
X15335Y76257D01*
X15325Y76341D01*
X15319Y76425D01*
X15317Y76510D01*
X15319Y76595D01*
X15325Y76679D01*
X15335Y76763D01*
X15348Y76847D01*
X15366Y76930D01*
X15387Y77012D01*
X15412Y77093D01*
X15441Y77173D01*
X15473Y77251D01*
X15509Y77327D01*
X15549Y77402D01*
X15592Y77475D01*
X15638Y77546D01*
X15687Y77615D01*
X15740Y77682D01*
X15796Y77746D01*
X15854Y77807D01*
X15915Y77865D01*
X15979Y77921D01*
X16046Y77974D01*
X16115Y78023D01*
X16186Y78069D01*
X16259Y78112D01*
X16334Y78152D01*
X16410Y78188D01*
X16488Y78220D01*
X16568Y78249D01*
X16649Y78274D01*
X16731Y78295D01*
X16814Y78313D01*
X16898Y78326D01*
X16982Y78336D01*
X17066Y78342D01*
X17151Y78344D01*
X16784Y81280D02*
X18985Y81280D01*
X16784Y81280D02*
X16708Y81278D01*
X16633Y81272D01*
X16558Y81263D01*
X16484Y81249D01*
X16410Y81232D01*
X16338Y81210D01*
X16266Y81186D01*
X16196Y81157D01*
X16128Y81125D01*
X16061Y81090D01*
X15996Y81051D01*
X15933Y81008D01*
X15873Y80963D01*
X15815Y80915D01*
X15759Y80863D01*
X15707Y80809D01*
X15657Y80752D01*
X15610Y80693D01*
X15566Y80632D01*
X15525Y80568D01*
X15488Y80502D01*
X15454Y80434D01*
X15424Y80365D01*
X15397Y80294D01*
X15374Y80222D01*
X15355Y80149D01*
X15340Y80075D01*
X15328Y80000D01*
X15320Y79925D01*
X15316Y79850D01*
X15316Y79774D01*
X15320Y79699D01*
X15328Y79624D01*
X15340Y79549D01*
X15355Y79475D01*
X15374Y79402D01*
X15397Y79330D01*
X15424Y79259D01*
X15454Y79190D01*
X15488Y79122D01*
X15525Y79056D01*
X15566Y78992D01*
X15610Y78931D01*
X15657Y78872D01*
X15707Y78815D01*
X15759Y78761D01*
X15815Y78709D01*
X15873Y78661D01*
X15933Y78616D01*
X15996Y78573D01*
X16061Y78534D01*
X16128Y78499D01*
X16196Y78467D01*
X16266Y78438D01*
X16338Y78414D01*
X16410Y78392D01*
X16484Y78375D01*
X16558Y78361D01*
X16633Y78352D01*
X16708Y78346D01*
X16784Y78344D01*
X16784Y78345D02*
X18251Y78345D01*
X11670Y74676D02*
X9835Y74676D01*
X9750Y74678D01*
X9666Y74684D01*
X9582Y74694D01*
X9498Y74707D01*
X9415Y74725D01*
X9333Y74746D01*
X9252Y74771D01*
X9172Y74800D01*
X9094Y74832D01*
X9018Y74868D01*
X8943Y74908D01*
X8870Y74951D01*
X8799Y74997D01*
X8730Y75046D01*
X8663Y75099D01*
X8599Y75155D01*
X8538Y75213D01*
X8480Y75274D01*
X8424Y75338D01*
X8371Y75405D01*
X8322Y75474D01*
X8276Y75545D01*
X8233Y75618D01*
X8193Y75693D01*
X8157Y75769D01*
X8125Y75847D01*
X8096Y75927D01*
X8071Y76008D01*
X8050Y76090D01*
X8032Y76173D01*
X8019Y76257D01*
X8009Y76341D01*
X8003Y76425D01*
X8001Y76510D01*
X8003Y76595D01*
X8009Y76679D01*
X8019Y76763D01*
X8032Y76847D01*
X8050Y76930D01*
X8071Y77012D01*
X8096Y77093D01*
X8125Y77173D01*
X8157Y77251D01*
X8193Y77327D01*
X8233Y77402D01*
X8276Y77475D01*
X8322Y77546D01*
X8371Y77615D01*
X8424Y77682D01*
X8480Y77746D01*
X8538Y77807D01*
X8599Y77865D01*
X8663Y77921D01*
X8730Y77974D01*
X8799Y78023D01*
X8870Y78069D01*
X8943Y78112D01*
X9018Y78152D01*
X9094Y78188D01*
X9172Y78220D01*
X9252Y78249D01*
X9333Y78274D01*
X9415Y78295D01*
X9498Y78313D01*
X9582Y78326D01*
X9666Y78336D01*
X9750Y78342D01*
X9835Y78344D01*
X9469Y81280D02*
X11670Y81280D01*
X9469Y81280D02*
X9393Y81278D01*
X9318Y81272D01*
X9243Y81263D01*
X9169Y81249D01*
X9095Y81232D01*
X9023Y81210D01*
X8951Y81186D01*
X8881Y81157D01*
X8813Y81125D01*
X8746Y81090D01*
X8681Y81051D01*
X8618Y81008D01*
X8558Y80963D01*
X8500Y80915D01*
X8444Y80863D01*
X8392Y80809D01*
X8342Y80752D01*
X8295Y80693D01*
X8251Y80632D01*
X8210Y80568D01*
X8173Y80502D01*
X8139Y80434D01*
X8109Y80365D01*
X8082Y80294D01*
X8059Y80222D01*
X8040Y80149D01*
X8025Y80075D01*
X8013Y80000D01*
X8005Y79925D01*
X8001Y79850D01*
X8001Y79774D01*
X8005Y79699D01*
X8013Y79624D01*
X8025Y79549D01*
X8040Y79475D01*
X8059Y79402D01*
X8082Y79330D01*
X8109Y79259D01*
X8139Y79190D01*
X8173Y79122D01*
X8210Y79056D01*
X8251Y78992D01*
X8295Y78931D01*
X8342Y78872D01*
X8392Y78815D01*
X8444Y78761D01*
X8500Y78709D01*
X8558Y78661D01*
X8618Y78616D01*
X8681Y78573D01*
X8746Y78534D01*
X8813Y78499D01*
X8881Y78467D01*
X8951Y78438D01*
X9023Y78414D01*
X9095Y78392D01*
X9169Y78375D01*
X9243Y78361D01*
X9318Y78352D01*
X9393Y78346D01*
X9469Y78344D01*
X9469Y78345D02*
X10936Y78345D01*
X4722Y81280D02*
X2520Y74676D01*
X319Y81280D01*
D11*
X20870Y54942D02*
X20870Y159942D01*
X53620Y54942D02*
X57870Y54942D01*
X23120Y54942D02*
X20870Y54942D01*
X57870Y144692D02*
X57870Y159942D01*
X57870Y130192D02*
X57870Y129692D01*
X57870Y115192D02*
X57870Y114692D01*
X57870Y100192D02*
X57870Y99692D01*
X57870Y85192D02*
X57870Y84692D01*
X57870Y70192D02*
X57870Y54942D01*
X57870Y159942D02*
X53620Y159942D01*
X23120Y159942D02*
X20870Y159942D01*
D12*
X82370Y137442D03*
M02*
