G04 EAGLE Gerber RS-274X export*
G75*
%MOMM*%
%FSLAX34Y34*%
%LPD*%
%INTop Copper*%
%IPPOS*%
%AMOC8*
5,1,8,0,0,1.08239X$1,22.5*%
G01*
%ADD10C,1.208000*%
%ADD11C,1.524000*%
%ADD12R,0.811800X0.281800*%
%ADD13R,1.700000X2.500000*%
%ADD14R,1.000000X1.100000*%
%ADD15R,1.100000X1.000000*%
%ADD16R,1.803000X1.600000*%
%ADD17C,0.254000*%
%ADD18C,0.756400*%
%ADD19C,0.812800*%
%ADD20C,1.270000*%
%ADD21C,0.304800*%
%ADD22C,0.711200*%
%ADD23C,0.508000*%
%ADD24C,1.016000*%

G36*
X114580Y241304D02*
X114580Y241304D01*
X114606Y241302D01*
X114753Y241324D01*
X114900Y241341D01*
X114925Y241349D01*
X114951Y241353D01*
X115089Y241408D01*
X115228Y241458D01*
X115250Y241472D01*
X115275Y241482D01*
X115396Y241567D01*
X115521Y241647D01*
X115539Y241666D01*
X115561Y241681D01*
X115660Y241791D01*
X115763Y241898D01*
X115777Y241920D01*
X115794Y241940D01*
X115866Y242070D01*
X115942Y242197D01*
X115950Y242222D01*
X115963Y242245D01*
X116003Y242388D01*
X116048Y242529D01*
X116050Y242555D01*
X116058Y242580D01*
X116077Y242824D01*
X116077Y258572D01*
X116063Y258698D01*
X116056Y258824D01*
X116043Y258870D01*
X116037Y258918D01*
X115995Y259037D01*
X115960Y259159D01*
X115936Y259201D01*
X115920Y259246D01*
X115851Y259353D01*
X115790Y259463D01*
X115750Y259509D01*
X115731Y259539D01*
X115696Y259573D01*
X115631Y259649D01*
X115315Y259965D01*
X115315Y299974D01*
X115312Y300000D01*
X115314Y300026D01*
X115292Y300173D01*
X115275Y300320D01*
X115267Y300345D01*
X115263Y300371D01*
X115208Y300509D01*
X115158Y300648D01*
X115144Y300670D01*
X115134Y300695D01*
X115049Y300816D01*
X114969Y300941D01*
X114950Y300959D01*
X114935Y300981D01*
X114825Y301080D01*
X114718Y301183D01*
X114696Y301197D01*
X114676Y301214D01*
X114546Y301286D01*
X114419Y301362D01*
X114394Y301370D01*
X114371Y301383D01*
X114228Y301423D01*
X114087Y301468D01*
X114061Y301470D01*
X114036Y301478D01*
X113792Y301497D01*
X100330Y301497D01*
X100304Y301494D01*
X100278Y301496D01*
X100131Y301474D01*
X99984Y301457D01*
X99959Y301449D01*
X99933Y301445D01*
X99795Y301390D01*
X99656Y301340D01*
X99634Y301326D01*
X99609Y301316D01*
X99488Y301231D01*
X99363Y301151D01*
X99345Y301132D01*
X99323Y301117D01*
X99224Y301007D01*
X99121Y300900D01*
X99107Y300878D01*
X99090Y300858D01*
X99018Y300728D01*
X98942Y300601D01*
X98934Y300576D01*
X98921Y300553D01*
X98881Y300410D01*
X98836Y300269D01*
X98834Y300243D01*
X98826Y300218D01*
X98807Y299974D01*
X98807Y261489D01*
X98491Y261173D01*
X98412Y261074D01*
X98328Y260980D01*
X98304Y260938D01*
X98274Y260900D01*
X98220Y260786D01*
X98159Y260675D01*
X98146Y260629D01*
X98125Y260585D01*
X98099Y260462D01*
X98064Y260340D01*
X98060Y260279D01*
X98052Y260244D01*
X98053Y260196D01*
X98045Y260096D01*
X98045Y242824D01*
X98048Y242798D01*
X98046Y242772D01*
X98068Y242625D01*
X98085Y242478D01*
X98093Y242453D01*
X98097Y242427D01*
X98152Y242289D01*
X98202Y242150D01*
X98216Y242128D01*
X98226Y242103D01*
X98311Y241982D01*
X98391Y241857D01*
X98410Y241839D01*
X98425Y241817D01*
X98535Y241718D01*
X98642Y241615D01*
X98664Y241601D01*
X98684Y241584D01*
X98814Y241512D01*
X98941Y241436D01*
X98966Y241428D01*
X98989Y241415D01*
X99132Y241375D01*
X99273Y241330D01*
X99299Y241328D01*
X99324Y241320D01*
X99568Y241301D01*
X114554Y241301D01*
X114580Y241304D01*
G37*
G36*
X113625Y93993D02*
X113625Y93993D01*
X113712Y93996D01*
X113765Y94013D01*
X113820Y94021D01*
X113899Y94056D01*
X113983Y94083D01*
X114022Y94111D01*
X114079Y94137D01*
X114192Y94233D01*
X114256Y94278D01*
X115018Y95040D01*
X115070Y95110D01*
X115130Y95174D01*
X115156Y95223D01*
X115189Y95267D01*
X115220Y95349D01*
X115260Y95427D01*
X115268Y95475D01*
X115290Y95533D01*
X115302Y95681D01*
X115315Y95758D01*
X115315Y109982D01*
X115303Y110069D01*
X115300Y110156D01*
X115283Y110209D01*
X115275Y110264D01*
X115240Y110343D01*
X115213Y110427D01*
X115185Y110466D01*
X115159Y110523D01*
X115063Y110636D01*
X115018Y110700D01*
X113791Y111927D01*
X113791Y146050D01*
X113783Y146108D01*
X113785Y146166D01*
X113763Y146248D01*
X113751Y146332D01*
X113728Y146385D01*
X113713Y146441D01*
X113670Y146514D01*
X113635Y146591D01*
X113597Y146636D01*
X113568Y146686D01*
X113506Y146744D01*
X113452Y146808D01*
X113403Y146840D01*
X113360Y146880D01*
X113285Y146919D01*
X113215Y146966D01*
X113159Y146983D01*
X113107Y147010D01*
X113039Y147021D01*
X112944Y147051D01*
X112844Y147054D01*
X112776Y147065D01*
X97790Y147065D01*
X97732Y147057D01*
X97674Y147059D01*
X97592Y147037D01*
X97509Y147025D01*
X97455Y147002D01*
X97399Y146987D01*
X97326Y146944D01*
X97249Y146909D01*
X97204Y146871D01*
X97154Y146842D01*
X97096Y146780D01*
X97032Y146726D01*
X97000Y146677D01*
X96960Y146634D01*
X96921Y146559D01*
X96875Y146489D01*
X96857Y146433D01*
X96830Y146381D01*
X96819Y146313D01*
X96789Y146218D01*
X96786Y146118D01*
X96775Y146050D01*
X96775Y111927D01*
X95294Y110446D01*
X95242Y110376D01*
X95182Y110312D01*
X95156Y110263D01*
X95123Y110219D01*
X95092Y110137D01*
X95052Y110059D01*
X95044Y110012D01*
X95022Y109953D01*
X95010Y109805D01*
X94997Y109728D01*
X94997Y95758D01*
X95009Y95671D01*
X95012Y95584D01*
X95029Y95531D01*
X95037Y95477D01*
X95072Y95397D01*
X95099Y95313D01*
X95127Y95274D01*
X95153Y95217D01*
X95249Y95104D01*
X95294Y95040D01*
X96056Y94278D01*
X96126Y94226D01*
X96190Y94166D01*
X96239Y94140D01*
X96283Y94107D01*
X96365Y94076D01*
X96443Y94036D01*
X96491Y94028D01*
X96549Y94006D01*
X96697Y93994D01*
X96774Y93981D01*
X113538Y93981D01*
X113625Y93993D01*
G37*
D10*
X23114Y426120D03*
X23114Y351120D03*
X23114Y411120D03*
X23114Y366120D03*
X23114Y381120D03*
X23114Y396120D03*
D11*
X98552Y43178D02*
X98552Y27938D01*
X123952Y27938D02*
X123952Y43178D01*
D12*
X119832Y121046D03*
X119832Y126046D03*
X119832Y131046D03*
X119832Y136046D03*
X119832Y141046D03*
X119832Y146046D03*
X90832Y146046D03*
X90832Y141046D03*
X90832Y136046D03*
X90832Y131046D03*
X90832Y126046D03*
X90832Y121046D03*
D13*
X105332Y133546D03*
D14*
X147066Y142122D03*
X147066Y159122D03*
D15*
X81416Y315722D03*
X98416Y315722D03*
D12*
X121688Y266392D03*
X121688Y271392D03*
X121688Y276392D03*
X121688Y281392D03*
X121688Y286392D03*
X121688Y291392D03*
X92688Y291392D03*
X92688Y286392D03*
X92688Y281392D03*
X92688Y276392D03*
X92688Y271392D03*
X92688Y266392D03*
D13*
X107188Y278892D03*
D16*
X105410Y74172D03*
X105410Y102612D03*
X107188Y222254D03*
X107188Y250694D03*
D10*
X100196Y185928D03*
X115196Y185928D03*
D17*
X119832Y141046D02*
X125146Y141046D01*
X125222Y140970D01*
X127508Y143256D01*
X127508Y145796D01*
X131770Y150058D01*
X133858Y150058D01*
D18*
X133858Y150058D03*
D17*
X119832Y149322D02*
X119832Y146046D01*
X119832Y149322D02*
X124574Y154064D01*
D18*
X124574Y154064D03*
D17*
X121688Y291392D02*
X121688Y298218D01*
X121941Y298471D01*
D18*
X121941Y298471D03*
D17*
X121688Y286392D02*
X128460Y286392D01*
X135890Y293822D01*
D18*
X135890Y293822D03*
D19*
X105156Y133722D02*
X105332Y133546D01*
D20*
X105332Y140970D01*
X105332Y151306D01*
X139192Y166996D02*
X147066Y159122D01*
X139192Y166996D02*
X121022Y166996D01*
X105332Y151306D01*
X147066Y159122D02*
X155194Y167250D01*
X155194Y308411D02*
X125231Y350098D01*
X112915Y367233D01*
X155194Y308411D02*
X155194Y167250D01*
D21*
X105256Y141046D02*
X90832Y141046D01*
X105256Y141046D02*
X105332Y140970D01*
X102832Y136046D02*
X90832Y136046D01*
X102832Y136046D02*
X105332Y133546D01*
X104006Y286392D02*
X92688Y286392D01*
X104006Y286392D02*
X105156Y285242D01*
X101306Y281392D01*
X92688Y281392D01*
X107188Y306950D02*
X98416Y315722D01*
X107188Y306950D02*
X107188Y294132D01*
X107188Y278892D01*
D20*
X112915Y367233D02*
X99866Y380282D01*
X54029Y426120D01*
X23114Y426120D01*
X107188Y332055D02*
X107188Y294132D01*
X107188Y332055D02*
X125231Y350098D01*
D19*
X117348Y74172D02*
X105410Y74172D01*
X92710Y74172D01*
X80518Y86364D01*
X80518Y106934D01*
X90832Y117248D01*
D22*
X90832Y119049D01*
D19*
X129286Y106680D02*
X129286Y86110D01*
X117348Y74172D01*
X129286Y106680D02*
X119832Y116134D01*
D22*
X119832Y119049D01*
D21*
X120239Y89001D02*
X105410Y74172D01*
X120239Y89001D02*
X120239Y96266D01*
D18*
X120239Y96266D03*
X134474Y139700D03*
D21*
X130820Y136046D01*
X119832Y136046D01*
D19*
X89916Y223520D02*
X89916Y257048D01*
X89916Y223520D02*
X91182Y222254D01*
X107188Y222254D01*
X120908Y222508D02*
X128016Y229616D01*
X120908Y222508D02*
X107442Y222508D01*
X107188Y222254D01*
X128016Y229616D02*
X128016Y256682D01*
D21*
X119380Y234446D02*
X107188Y222254D01*
X119380Y234446D02*
X119380Y236474D01*
D18*
X119380Y236474D03*
X143256Y288036D03*
D21*
X136612Y281392D01*
X121688Y281392D01*
D22*
X92688Y259820D02*
X89916Y257048D01*
X92688Y259820D02*
X92688Y264788D01*
X121688Y263010D02*
X128016Y256682D01*
X121688Y263010D02*
X121688Y264788D01*
D23*
X105410Y102612D02*
X105410Y74172D01*
X107188Y222254D02*
X107188Y250694D01*
D18*
X91440Y366776D03*
D20*
X91440Y371856D01*
X99866Y380282D01*
D21*
X119832Y131046D02*
X141714Y131046D01*
X145034Y134366D01*
X90832Y131046D02*
X73932Y131046D01*
X69596Y135382D01*
D24*
X145034Y134366D02*
X147066Y136398D01*
X147066Y142122D01*
X69596Y135382D02*
X64516Y140462D01*
D18*
X136398Y273812D03*
X76962Y284734D03*
D24*
X64516Y272288D01*
X64516Y140462D01*
D21*
X85304Y276392D02*
X92688Y276392D01*
X85304Y276392D02*
X76962Y284734D01*
D20*
X66548Y295148D01*
X66548Y337312D01*
X70866Y332994D01*
X66548Y337312D02*
X52740Y351120D01*
X23114Y351120D01*
D21*
X81416Y315722D02*
X81416Y289188D01*
X76962Y284734D01*
X121688Y276392D02*
X133818Y276392D01*
X136398Y273812D01*
D20*
X75946Y338074D02*
X70866Y332994D01*
X147066Y142122D02*
X147320Y141868D01*
X147320Y135636D01*
X155702Y127254D01*
D18*
X155702Y127254D03*
X78740Y380746D03*
D20*
X75946Y377952D01*
X75946Y338074D01*
X144526Y56132D02*
X123952Y35558D01*
D21*
X119832Y126046D02*
X134304Y126046D01*
X141478Y118872D01*
D20*
X144526Y115824D01*
X144526Y56132D01*
X98552Y35812D02*
X98552Y35558D01*
X98552Y35812D02*
X66040Y68324D01*
D21*
X77532Y126046D02*
X90832Y126046D01*
X77532Y126046D02*
X71374Y119888D01*
D20*
X66040Y114554D01*
X66040Y68324D01*
D21*
X121688Y271392D02*
X128150Y271392D01*
X139954Y259588D01*
D20*
X139954Y210686D01*
X115196Y185928D01*
D21*
X92688Y271392D02*
X83686Y271392D01*
X79248Y266954D01*
D20*
X77978Y265684D01*
X77978Y208146D01*
X100196Y185928D01*
M02*
