G04 EAGLE Gerber RS-274X export*
G75*
%MOMM*%
%FSLAX34Y34*%
%LPD*%
%INSoldermask Top*%
%IPPOS*%
%AMOC8*
5,1,8,0,0,1.08239X$1,22.5*%
G01*
%ADD10C,1.411200*%
%ADD11C,1.727200*%
%ADD12R,1.015000X0.485000*%
%ADD13R,1.903200X2.703200*%
%ADD14R,1.203200X1.303200*%
%ADD15R,1.303200X1.203200*%
%ADD16R,2.006200X1.803200*%
%ADD17C,0.959600*%


D10*
X23114Y426120D03*
X23114Y351120D03*
X23114Y411120D03*
X23114Y366120D03*
X23114Y381120D03*
X23114Y396120D03*
D11*
X98552Y43178D02*
X98552Y27938D01*
X123952Y27938D02*
X123952Y43178D01*
D12*
X119832Y121046D03*
X119832Y126046D03*
X119832Y131046D03*
X119832Y136046D03*
X119832Y141046D03*
X119832Y146046D03*
X90832Y146046D03*
X90832Y141046D03*
X90832Y136046D03*
X90832Y131046D03*
X90832Y126046D03*
X90832Y121046D03*
D13*
X105332Y133546D03*
D14*
X147066Y142122D03*
X147066Y159122D03*
D15*
X81416Y315722D03*
X98416Y315722D03*
D12*
X121688Y266392D03*
X121688Y271392D03*
X121688Y276392D03*
X121688Y281392D03*
X121688Y286392D03*
X121688Y291392D03*
X92688Y291392D03*
X92688Y286392D03*
X92688Y281392D03*
X92688Y276392D03*
X92688Y271392D03*
X92688Y266392D03*
D13*
X107188Y278892D03*
D16*
X105410Y74172D03*
X105410Y102612D03*
X107188Y222254D03*
X107188Y250694D03*
D10*
X100196Y185928D03*
X115196Y185928D03*
D17*
X133858Y150058D03*
X124574Y154064D03*
X121941Y298471D03*
X135890Y293822D03*
X120239Y96266D03*
X134474Y139700D03*
X119380Y236474D03*
X143256Y288036D03*
X91440Y366776D03*
X136398Y273812D03*
X76962Y284734D03*
X155702Y127254D03*
X78740Y380746D03*
M02*
