M48
;GenerationSoftware,Autodesk,EAGLE,9.6.0*%
;CreationDate,2020-03-31T08:35:50Z*%
FMAT,2
ICI,OFF
METRIC,TZ,000.000
T3C0.350
T2C0.700
T1C1.016
%
G90
M71
T1
X9855Y3556
X12395Y3556
T2
X2311Y42612
X2311Y35112
X2311Y41112
X2311Y36612
X2311Y38112
X2311Y39612
X10020Y18593
X11520Y18593
T3
X13386Y15006
X12457Y15406
X12194Y29847
X13589Y29382
X12024Y9627
X13447Y13970
X11938Y23647
X14326Y28804
X9144Y36678
X13640Y27381
X7696Y28473
X15570Y12725
X7874Y38075
M30