G04 EAGLE Gerber RS-274X export*
G75*
%MOMM*%
%FSLAX34Y34*%
%LPD*%
%INBottom Copper*%
%IPPOS*%
%AMOC8*
5,1,8,0,0,1.08239X$1,22.5*%
G01*
%ADD10C,1.208000*%
%ADD11R,1.100000X1.000000*%
%ADD12R,2.540000X1.270000*%
%ADD13C,1.270000*%
%ADD14C,0.756400*%
%ADD15C,1.016000*%
%ADD16C,0.508000*%
%ADD17C,0.254000*%
%ADD18C,0.203200*%
%ADD19C,0.152400*%
%ADD20C,0.127000*%

G36*
X161718Y367796D02*
X161718Y367796D01*
X161737Y367794D01*
X161839Y367816D01*
X161941Y367833D01*
X161958Y367842D01*
X161978Y367846D01*
X162067Y367899D01*
X162158Y367948D01*
X162172Y367962D01*
X162189Y367972D01*
X162256Y368051D01*
X162328Y368126D01*
X162336Y368144D01*
X162349Y368159D01*
X162388Y368255D01*
X162431Y368349D01*
X162433Y368369D01*
X162441Y368387D01*
X162459Y368554D01*
X162459Y496698D01*
X162456Y496718D01*
X162458Y496737D01*
X162436Y496839D01*
X162420Y496941D01*
X162410Y496958D01*
X162406Y496978D01*
X162353Y497067D01*
X162304Y497158D01*
X162290Y497172D01*
X162280Y497189D01*
X162201Y497256D01*
X162126Y497328D01*
X162108Y497336D01*
X162093Y497349D01*
X161997Y497388D01*
X161903Y497431D01*
X161883Y497433D01*
X161865Y497441D01*
X161698Y497459D01*
X140971Y497459D01*
X140881Y497445D01*
X140790Y497437D01*
X140760Y497425D01*
X140728Y497420D01*
X140648Y497377D01*
X140564Y497341D01*
X140532Y497315D01*
X140511Y497304D01*
X140489Y497281D01*
X140433Y497236D01*
X134780Y491584D01*
X134769Y491568D01*
X134753Y491555D01*
X134697Y491468D01*
X134637Y491384D01*
X134631Y491365D01*
X134620Y491348D01*
X134595Y491248D01*
X134564Y491149D01*
X134565Y491129D01*
X134560Y491110D01*
X134568Y491007D01*
X134571Y490903D01*
X134578Y490884D01*
X134579Y490865D01*
X134619Y490770D01*
X134655Y490672D01*
X134668Y490656D01*
X134675Y490638D01*
X134780Y490507D01*
X147163Y478125D01*
X147237Y478072D01*
X147306Y478012D01*
X147336Y478000D01*
X147362Y477981D01*
X147449Y477954D01*
X147534Y477920D01*
X147575Y477916D01*
X147598Y477909D01*
X147630Y477910D01*
X147701Y477902D01*
X156846Y477902D01*
X156846Y474584D01*
X156861Y474494D01*
X156868Y474403D01*
X156880Y474373D01*
X156886Y474341D01*
X156928Y474260D01*
X156964Y474176D01*
X156990Y474144D01*
X157001Y474124D01*
X157024Y474101D01*
X157069Y474045D01*
X158051Y473063D01*
X159203Y470283D01*
X159203Y467273D01*
X158051Y464493D01*
X157069Y463511D01*
X157016Y463437D01*
X156956Y463367D01*
X156944Y463337D01*
X156925Y463311D01*
X156898Y463224D01*
X156864Y463139D01*
X156860Y463098D01*
X156853Y463076D01*
X156854Y463044D01*
X156846Y462972D01*
X156846Y459584D01*
X156861Y459494D01*
X156868Y459403D01*
X156880Y459373D01*
X156886Y459341D01*
X156928Y459260D01*
X156964Y459176D01*
X156990Y459144D01*
X157001Y459124D01*
X157024Y459101D01*
X157069Y459045D01*
X158051Y458063D01*
X159203Y455283D01*
X159203Y452273D01*
X158051Y449493D01*
X157069Y448511D01*
X157016Y448437D01*
X156956Y448367D01*
X156944Y448337D01*
X156925Y448311D01*
X156898Y448224D01*
X156864Y448139D01*
X156860Y448098D01*
X156853Y448076D01*
X156854Y448044D01*
X156846Y447972D01*
X156846Y444584D01*
X156861Y444494D01*
X156868Y444403D01*
X156880Y444373D01*
X156886Y444341D01*
X156928Y444260D01*
X156964Y444176D01*
X156990Y444144D01*
X157001Y444124D01*
X157024Y444101D01*
X157069Y444045D01*
X158051Y443063D01*
X159203Y440283D01*
X159203Y437273D01*
X158051Y434493D01*
X157069Y433511D01*
X157016Y433437D01*
X156956Y433367D01*
X156944Y433337D01*
X156925Y433311D01*
X156898Y433224D01*
X156864Y433139D01*
X156860Y433098D01*
X156853Y433076D01*
X156854Y433044D01*
X156846Y432972D01*
X156846Y429584D01*
X156861Y429494D01*
X156868Y429403D01*
X156880Y429373D01*
X156886Y429341D01*
X156928Y429260D01*
X156964Y429176D01*
X156990Y429144D01*
X157001Y429124D01*
X157024Y429101D01*
X157069Y429045D01*
X158051Y428063D01*
X159203Y425283D01*
X159203Y422273D01*
X158051Y419493D01*
X157069Y418511D01*
X157016Y418437D01*
X156956Y418367D01*
X156944Y418337D01*
X156925Y418311D01*
X156898Y418224D01*
X156864Y418139D01*
X156860Y418098D01*
X156853Y418076D01*
X156854Y418044D01*
X156846Y417972D01*
X156846Y414584D01*
X156861Y414494D01*
X156868Y414403D01*
X156880Y414373D01*
X156886Y414341D01*
X156928Y414260D01*
X156964Y414176D01*
X156990Y414144D01*
X157001Y414124D01*
X157024Y414101D01*
X157069Y414045D01*
X158051Y413063D01*
X159203Y410283D01*
X159203Y407273D01*
X158051Y404493D01*
X157069Y403511D01*
X157016Y403437D01*
X156956Y403367D01*
X156944Y403337D01*
X156925Y403311D01*
X156898Y403224D01*
X156864Y403139D01*
X156860Y403098D01*
X156853Y403076D01*
X156854Y403044D01*
X156846Y402972D01*
X156846Y400049D01*
X146746Y400049D01*
X142239Y404556D01*
X142239Y418084D01*
X142225Y418174D01*
X142217Y418265D01*
X142205Y418295D01*
X142200Y418327D01*
X142157Y418407D01*
X142121Y418491D01*
X142095Y418523D01*
X142084Y418544D01*
X142061Y418566D01*
X142016Y418622D01*
X140746Y419892D01*
X140672Y419945D01*
X140603Y420005D01*
X140573Y420017D01*
X140547Y420036D01*
X140460Y420063D01*
X140375Y420097D01*
X140334Y420101D01*
X140311Y420108D01*
X140279Y420107D01*
X140208Y420115D01*
X131717Y420115D01*
X131708Y420125D01*
X131629Y420185D01*
X131557Y420253D01*
X131504Y420282D01*
X131456Y420319D01*
X131365Y420359D01*
X131279Y420407D01*
X131220Y420422D01*
X131164Y420446D01*
X131066Y420461D01*
X130971Y420486D01*
X130871Y420492D01*
X130850Y420496D01*
X130838Y420494D01*
X130810Y420496D01*
X98298Y420496D01*
X98200Y420484D01*
X98101Y420481D01*
X98043Y420464D01*
X97982Y420456D01*
X97890Y420420D01*
X97795Y420392D01*
X97743Y420362D01*
X97687Y420339D01*
X97607Y420281D01*
X97521Y420231D01*
X97446Y420165D01*
X97429Y420153D01*
X97422Y420143D01*
X97401Y420125D01*
X78605Y401329D01*
X78544Y401250D01*
X78476Y401178D01*
X78447Y401125D01*
X78444Y401122D01*
X78433Y401117D01*
X78376Y401069D01*
X78313Y401029D01*
X78254Y400967D01*
X78189Y400912D01*
X78146Y400851D01*
X78095Y400797D01*
X78054Y400723D01*
X78004Y400653D01*
X77977Y400584D01*
X77941Y400519D01*
X77920Y400436D01*
X77889Y400357D01*
X77881Y400283D01*
X77862Y400211D01*
X77852Y400050D01*
X77852Y369570D01*
X77864Y369472D01*
X77867Y369373D01*
X77884Y369315D01*
X77892Y369254D01*
X77928Y369162D01*
X77956Y369067D01*
X77986Y369015D01*
X78009Y368959D01*
X78067Y368879D01*
X78117Y368793D01*
X78183Y368718D01*
X78195Y368701D01*
X78205Y368694D01*
X78224Y368673D01*
X78351Y368546D01*
X78429Y368485D01*
X78501Y368417D01*
X78554Y368388D01*
X78602Y368351D01*
X78693Y368311D01*
X78779Y368263D01*
X78838Y368248D01*
X78894Y368224D01*
X78992Y368209D01*
X79087Y368184D01*
X79187Y368178D01*
X79208Y368174D01*
X79220Y368176D01*
X79248Y368174D01*
X99187Y368174D01*
X99285Y368186D01*
X99384Y368189D01*
X99442Y368206D01*
X99503Y368214D01*
X99595Y368250D01*
X99690Y368278D01*
X99742Y368308D01*
X99798Y368331D01*
X99878Y368389D01*
X99964Y368439D01*
X100039Y368505D01*
X100056Y368517D01*
X100063Y368527D01*
X100085Y368546D01*
X128883Y397344D01*
X139828Y386400D01*
X139828Y379094D01*
X136978Y379094D01*
X136888Y379080D01*
X136797Y379072D01*
X136768Y379060D01*
X136736Y379055D01*
X136655Y379012D01*
X136571Y378976D01*
X136539Y378950D01*
X136518Y378939D01*
X136496Y378916D01*
X136440Y378871D01*
X136310Y378741D01*
X131914Y378741D01*
X131784Y378871D01*
X131710Y378924D01*
X131640Y378984D01*
X131610Y378996D01*
X131584Y379015D01*
X131497Y379042D01*
X131412Y379076D01*
X131371Y379080D01*
X131349Y379087D01*
X131317Y379086D01*
X131246Y379094D01*
X122428Y379094D01*
X122338Y379080D01*
X122247Y379072D01*
X122217Y379060D01*
X122185Y379055D01*
X122105Y379012D01*
X122021Y378976D01*
X121989Y378950D01*
X121968Y378939D01*
X121946Y378916D01*
X121890Y378871D01*
X116810Y373791D01*
X116757Y373717D01*
X116697Y373648D01*
X116685Y373618D01*
X116666Y373592D01*
X116639Y373505D01*
X116605Y373420D01*
X116601Y373379D01*
X116594Y373356D01*
X116595Y373324D01*
X116587Y373253D01*
X116587Y371094D01*
X116602Y371004D01*
X116609Y370913D01*
X116621Y370883D01*
X116627Y370851D01*
X116669Y370771D01*
X116705Y370687D01*
X116731Y370655D01*
X116742Y370634D01*
X116765Y370612D01*
X116810Y370556D01*
X119350Y368016D01*
X119424Y367963D01*
X119493Y367903D01*
X119523Y367891D01*
X119549Y367872D01*
X119636Y367845D01*
X119721Y367811D01*
X119762Y367807D01*
X119785Y367800D01*
X119817Y367801D01*
X119888Y367793D01*
X161698Y367793D01*
X161718Y367796D01*
G37*
D10*
X151638Y483778D03*
X151638Y408778D03*
X151638Y468778D03*
X151638Y423778D03*
X151638Y438778D03*
X151638Y453778D03*
X23114Y75974D03*
X23114Y15974D03*
X23114Y60974D03*
X23114Y30974D03*
X23114Y45974D03*
X59436Y75974D03*
X59436Y15974D03*
X59436Y60974D03*
X59436Y30974D03*
X59436Y45974D03*
X95758Y75974D03*
X95758Y15974D03*
X95758Y60974D03*
X95758Y30974D03*
X95758Y45974D03*
X23114Y168430D03*
X23114Y108430D03*
X23114Y153430D03*
X23114Y123430D03*
X23114Y138430D03*
X59436Y168430D03*
X59436Y108430D03*
X59436Y153430D03*
X59436Y123430D03*
X59436Y138430D03*
D11*
X41656Y30616D03*
X41656Y47616D03*
X78232Y30108D03*
X78232Y47108D03*
D10*
X86614Y251954D03*
X86614Y281954D03*
X86614Y266954D03*
D12*
X82550Y329946D03*
X82296Y313690D03*
X82296Y296926D03*
D13*
X121050Y51181D03*
X121050Y86741D03*
X121050Y68961D03*
X121050Y104521D03*
D14*
X84328Y89408D03*
D15*
X73632Y89408D01*
X59436Y75974D01*
D14*
X66465Y341713D03*
D15*
X41910Y168430D02*
X23114Y168430D01*
D14*
X102234Y134874D03*
D15*
X59436Y168430D02*
X41910Y168430D01*
X102107Y135001D02*
X102107Y252095D01*
X102107Y135001D02*
X102234Y134874D01*
X102234Y252222D02*
X102234Y299720D01*
X102234Y333884D01*
X102108Y334010D01*
D14*
X102108Y334010D03*
D15*
X41910Y168430D02*
X41910Y75974D01*
D14*
X41910Y75974D03*
D16*
X82296Y296926D02*
X99440Y296926D01*
X102234Y299720D01*
D14*
X102108Y143510D03*
X101981Y191770D03*
X82804Y396875D03*
X92964Y396875D03*
X82804Y386271D03*
X92964Y372745D03*
X82804Y372745D03*
X92964Y386271D03*
X157353Y383159D03*
X147130Y383159D03*
X135509Y372745D03*
X147130Y372745D03*
X157353Y372745D03*
D17*
X114381Y111190D02*
X121050Y104521D01*
X114381Y111190D02*
X108422Y111190D01*
X102107Y117505D01*
X102107Y135001D01*
X101966Y251954D02*
X86614Y251954D01*
X101966Y251954D02*
X102107Y252095D01*
D14*
X135001Y475488D03*
D17*
X123444Y475488D01*
X93472Y445516D01*
X87376Y445516D01*
D14*
X52070Y208328D03*
D17*
X63373Y421513D02*
X87376Y445516D01*
X63373Y412496D02*
X44704Y393827D01*
X63373Y412496D02*
X63373Y421513D01*
D18*
X36000Y283837D02*
X40012Y279825D01*
X36000Y349687D02*
X44196Y357883D01*
X44196Y393319D02*
X44704Y393827D01*
X44196Y393319D02*
X44196Y357883D01*
X36000Y349687D02*
X36000Y283837D01*
X40312Y220086D02*
X52070Y208328D01*
X40312Y220086D02*
X40312Y235051D01*
X29400Y245963D01*
X40012Y276943D02*
X40012Y279825D01*
X40012Y276943D02*
X29400Y266331D01*
X29400Y245963D01*
X105784Y438778D02*
X151638Y438778D01*
D14*
X53313Y276987D03*
D18*
X50218Y280082D01*
X50218Y283628D01*
X45906Y287940D01*
X45906Y345584D02*
X54102Y353780D01*
X54102Y387096D01*
X45906Y345584D02*
X45906Y287940D01*
X54102Y387096D02*
X105784Y438778D01*
X96372Y423778D02*
X151638Y423778D01*
X96372Y423778D02*
X59690Y387096D01*
D14*
X61718Y259862D03*
D18*
X59690Y261890D02*
X59690Y387096D01*
X59690Y261890D02*
X61718Y259862D01*
X115145Y453778D02*
X151638Y453778D01*
D14*
X40138Y263459D03*
D18*
X40138Y267730D01*
X46916Y282260D02*
X42604Y286572D01*
X46916Y274508D02*
X40138Y267730D01*
X46916Y274508D02*
X46916Y282260D01*
X42604Y346951D02*
X50800Y355147D01*
X50800Y389433D01*
X42604Y346951D02*
X42604Y286572D01*
X50800Y389433D02*
X115145Y453778D01*
X124989Y468778D02*
X151638Y468778D01*
D14*
X52543Y232393D03*
D18*
X43614Y280892D02*
X39302Y285204D01*
X39302Y348319D02*
X47498Y356515D01*
X47498Y391287D01*
X39302Y348319D02*
X39302Y285204D01*
X47498Y391287D02*
X124989Y468778D01*
X52543Y232393D02*
X47639Y232393D01*
X33816Y246216D01*
X33816Y266078D01*
X43314Y275576D01*
X43314Y280592D02*
X43614Y280892D01*
X43314Y280592D02*
X43314Y275576D01*
D14*
X134112Y384048D03*
X36830Y360934D03*
D15*
X7620Y331724D01*
D14*
X29238Y326542D03*
D17*
X29238Y353342D01*
X36830Y360934D01*
X91694Y354330D02*
X121412Y384048D01*
X91694Y354330D02*
X66040Y354330D01*
D14*
X66040Y354330D03*
D17*
X121412Y384048D02*
X134112Y384048D01*
D16*
X82550Y329946D02*
X81534Y328930D01*
X66548Y328930D01*
D14*
X66548Y328930D03*
D19*
X41656Y30616D02*
X56298Y15974D01*
X59436Y15974D01*
X78232Y30108D02*
X92366Y15974D01*
X95758Y15974D01*
D15*
X7747Y187071D02*
X7747Y187706D01*
X7747Y187071D02*
X7620Y186944D01*
X7747Y204597D02*
X7620Y204724D01*
X7747Y204597D02*
X7747Y187706D01*
X7620Y204724D02*
X7620Y331724D01*
D14*
X7493Y195961D03*
X7620Y204724D03*
D19*
X7493Y195961D02*
X7620Y186944D01*
D14*
X7747Y187706D03*
X112893Y59700D03*
D17*
X112893Y59338D01*
X121050Y51181D01*
D19*
X50546Y113680D02*
X59436Y123430D01*
X50546Y113680D02*
X50546Y47625D01*
X50546Y35560D01*
X55132Y30974D01*
X59436Y30974D01*
D14*
X75142Y250692D03*
D19*
X41665Y47625D02*
X41656Y47616D01*
X41665Y47625D02*
X50546Y47625D01*
X79136Y230717D02*
X82410Y233991D01*
X82410Y244324D01*
X79136Y199335D02*
X87094Y191377D01*
X79136Y199335D02*
X79136Y230717D01*
X87094Y151088D02*
X59436Y123430D01*
X87094Y151088D02*
X87094Y191377D01*
X76042Y250692D02*
X75142Y250692D01*
X76042Y250692D02*
X82410Y244324D01*
X23114Y138430D02*
X31750Y130048D01*
X31750Y54102D01*
X23622Y45974D01*
X23114Y45974D01*
D14*
X76342Y241604D03*
D19*
X78232Y47108D02*
X79366Y45974D01*
X95758Y45974D01*
X76342Y198178D02*
X76342Y241604D01*
X76342Y198178D02*
X84300Y190220D01*
X84300Y163104D01*
X59626Y138430D01*
X59436Y138430D01*
D14*
X78232Y187706D03*
D19*
X41910Y187706D01*
X27508Y202108D02*
X20582Y209034D01*
D14*
X33990Y232432D03*
D19*
X27508Y202108D02*
X41910Y187706D01*
X20582Y209034D02*
X20582Y219024D01*
X33990Y232432D01*
D14*
X76034Y260550D03*
D19*
X76200Y271540D02*
X86614Y281954D01*
X76200Y260716D02*
X76034Y260550D01*
X76200Y260716D02*
X76200Y271540D01*
D14*
X32512Y278384D03*
X19276Y198882D03*
D19*
X16212Y262084D02*
X32512Y278384D01*
X16212Y262084D02*
X16212Y201946D01*
X19276Y198882D01*
D14*
X39878Y208642D03*
D17*
X48622Y199898D01*
X57658Y199898D01*
X59182Y201422D01*
X59182Y247650D01*
X68372Y263311D02*
X63500Y268182D01*
X63500Y306832D01*
X70358Y313690D01*
X82296Y313690D01*
X68372Y256840D02*
X59182Y247650D01*
X68372Y256840D02*
X68372Y263311D01*
D14*
X29972Y187706D03*
D19*
X27432Y187706D01*
X7874Y168148D01*
X104013Y12065D02*
X98298Y6350D01*
D14*
X99441Y90805D03*
D19*
X7874Y14217D02*
X7874Y168148D01*
X7874Y14217D02*
X15741Y6350D01*
X98298Y6350D01*
X104013Y86233D02*
X99441Y90805D01*
D20*
X104013Y86233D02*
X104013Y12065D01*
D14*
X19304Y188214D03*
D19*
X4826Y173736D01*
X4826Y12700D01*
X14224Y3302D02*
X100965Y3302D01*
X14224Y3302D02*
X4826Y12700D01*
D20*
X100965Y3302D02*
X106825Y9162D01*
X106825Y41315D01*
D19*
X106825Y72628D01*
X110398Y76201D01*
D14*
X110398Y76201D03*
X91721Y241015D03*
D19*
X94500Y238236D01*
X121050Y88950D02*
X121050Y86741D01*
X94500Y115500D02*
X94500Y238236D01*
X94500Y115500D02*
X121050Y88950D01*
D14*
X88200Y231000D03*
D19*
X88200Y194222D01*
X89888Y192534D01*
X89888Y109012D01*
X112200Y86700D02*
X112200Y83100D01*
X121050Y74250D02*
X121050Y68961D01*
X121050Y74250D02*
X112200Y83100D01*
X112200Y86700D02*
X89888Y109012D01*
M02*
