G04 EAGLE Gerber RS-274X export*
G75*
%MOMM*%
%FSLAX34Y34*%
%LPD*%
%INTop Copper*%
%IPPOS*%
%AMOC8*
5,1,8,0,0,1.08239X$1,22.5*%
G01*
%ADD10R,0.450000X0.400000*%
%ADD11R,0.800000X1.900000*%
%ADD12R,1.100000X1.000000*%
%ADD13R,1.000000X1.100000*%
%ADD14R,1.500000X1.300000*%
%ADD15R,1.300000X1.500000*%
%ADD16C,1.208000*%
%ADD17C,0.189000*%
%ADD18R,1.000000X1.000000*%
%ADD19R,1.000000X1.400000*%
%ADD20R,0.800000X0.800000*%
%ADD21C,1.270000*%
%ADD22C,0.254000*%
%ADD23C,0.508000*%
%ADD24C,1.016000*%
%ADD25C,0.756400*%
%ADD26C,0.203200*%
%ADD27C,0.152400*%

G36*
X103144Y348746D02*
X103144Y348746D01*
X103163Y348744D01*
X103265Y348766D01*
X103367Y348783D01*
X103384Y348792D01*
X103404Y348796D01*
X103493Y348849D01*
X103584Y348898D01*
X103598Y348912D01*
X103615Y348922D01*
X103682Y349001D01*
X103754Y349076D01*
X103762Y349094D01*
X103775Y349109D01*
X103814Y349205D01*
X103857Y349299D01*
X103859Y349319D01*
X103867Y349337D01*
X103885Y349504D01*
X103885Y368809D01*
X110429Y368809D01*
X111474Y367764D01*
X111548Y367711D01*
X111617Y367651D01*
X111647Y367639D01*
X111673Y367620D01*
X111760Y367593D01*
X111845Y367559D01*
X111886Y367555D01*
X111909Y367548D01*
X111941Y367549D01*
X112012Y367541D01*
X161698Y367541D01*
X161718Y367544D01*
X161737Y367542D01*
X161839Y367564D01*
X161941Y367580D01*
X161958Y367590D01*
X161978Y367594D01*
X162067Y367647D01*
X162158Y367696D01*
X162172Y367710D01*
X162189Y367720D01*
X162256Y367799D01*
X162328Y367874D01*
X162336Y367892D01*
X162349Y367907D01*
X162388Y368003D01*
X162431Y368097D01*
X162433Y368117D01*
X162441Y368135D01*
X162459Y368302D01*
X162459Y496698D01*
X162456Y496718D01*
X162458Y496737D01*
X162436Y496839D01*
X162420Y496941D01*
X162410Y496958D01*
X162406Y496978D01*
X162353Y497067D01*
X162304Y497158D01*
X162290Y497172D01*
X162280Y497189D01*
X162201Y497256D01*
X162126Y497328D01*
X162108Y497336D01*
X162093Y497349D01*
X161997Y497388D01*
X161903Y497431D01*
X161883Y497433D01*
X161865Y497441D01*
X161698Y497459D01*
X143002Y497459D01*
X142982Y497456D01*
X142963Y497458D01*
X142861Y497436D01*
X142759Y497420D01*
X142742Y497410D01*
X142722Y497406D01*
X142633Y497353D01*
X142542Y497304D01*
X142528Y497290D01*
X142511Y497280D01*
X142444Y497201D01*
X142373Y497126D01*
X142364Y497108D01*
X142351Y497093D01*
X142312Y496997D01*
X142269Y496903D01*
X142267Y496883D01*
X142259Y496865D01*
X142241Y496698D01*
X142241Y477520D01*
X142244Y477500D01*
X142242Y477481D01*
X142264Y477379D01*
X142281Y477277D01*
X142290Y477260D01*
X142294Y477240D01*
X142347Y477151D01*
X142396Y477060D01*
X142410Y477046D01*
X142420Y477029D01*
X142499Y476962D01*
X142574Y476891D01*
X142592Y476882D01*
X142607Y476869D01*
X142703Y476830D01*
X142797Y476787D01*
X142817Y476785D01*
X142835Y476777D01*
X143002Y476759D01*
X155387Y476759D01*
X156973Y475173D01*
X156973Y474457D01*
X156988Y474367D01*
X156995Y474276D01*
X157007Y474246D01*
X157013Y474214D01*
X157055Y474133D01*
X157091Y474049D01*
X157117Y474017D01*
X157128Y473997D01*
X157151Y473974D01*
X157196Y473918D01*
X158051Y473063D01*
X159203Y470283D01*
X159203Y467273D01*
X158051Y464493D01*
X157196Y463638D01*
X157143Y463564D01*
X157083Y463494D01*
X157071Y463464D01*
X157052Y463438D01*
X157025Y463351D01*
X156991Y463266D01*
X156987Y463225D01*
X156980Y463203D01*
X156981Y463171D01*
X156973Y463099D01*
X156973Y459457D01*
X156988Y459367D01*
X156995Y459276D01*
X157007Y459246D01*
X157013Y459214D01*
X157055Y459133D01*
X157091Y459049D01*
X157117Y459017D01*
X157128Y458997D01*
X157151Y458974D01*
X157196Y458918D01*
X158051Y458063D01*
X159203Y455283D01*
X159203Y452273D01*
X158051Y449493D01*
X157196Y448638D01*
X157143Y448564D01*
X157083Y448494D01*
X157071Y448464D01*
X157052Y448438D01*
X157025Y448351D01*
X156991Y448266D01*
X156987Y448225D01*
X156980Y448203D01*
X156981Y448171D01*
X156973Y448099D01*
X156973Y444457D01*
X156988Y444367D01*
X156995Y444276D01*
X157007Y444246D01*
X157013Y444214D01*
X157055Y444133D01*
X157091Y444049D01*
X157117Y444017D01*
X157128Y443997D01*
X157151Y443974D01*
X157196Y443918D01*
X158051Y443063D01*
X159203Y440283D01*
X159203Y437273D01*
X158051Y434493D01*
X157196Y433638D01*
X157143Y433564D01*
X157083Y433494D01*
X157071Y433464D01*
X157052Y433438D01*
X157025Y433351D01*
X156991Y433266D01*
X156987Y433225D01*
X156980Y433203D01*
X156981Y433171D01*
X156973Y433099D01*
X156973Y429457D01*
X156988Y429367D01*
X156995Y429276D01*
X157007Y429246D01*
X157013Y429214D01*
X157055Y429133D01*
X157091Y429049D01*
X157117Y429017D01*
X157128Y428997D01*
X157151Y428974D01*
X157196Y428918D01*
X158051Y428063D01*
X159203Y425283D01*
X159203Y422273D01*
X158051Y419493D01*
X157196Y418638D01*
X157143Y418564D01*
X157083Y418494D01*
X157071Y418464D01*
X157052Y418438D01*
X157025Y418351D01*
X156991Y418266D01*
X156987Y418225D01*
X156980Y418203D01*
X156981Y418171D01*
X156973Y418099D01*
X156973Y414457D01*
X156988Y414367D01*
X156995Y414276D01*
X157007Y414246D01*
X157013Y414214D01*
X157055Y414133D01*
X157091Y414049D01*
X157117Y414017D01*
X157128Y413997D01*
X157151Y413974D01*
X157196Y413918D01*
X158051Y413063D01*
X159203Y410283D01*
X159203Y407273D01*
X158051Y404493D01*
X157196Y403638D01*
X157143Y403564D01*
X157083Y403494D01*
X157071Y403464D01*
X157052Y403438D01*
X157025Y403351D01*
X156991Y403266D01*
X156987Y403225D01*
X156980Y403203D01*
X156981Y403171D01*
X156973Y403099D01*
X156973Y389824D01*
X155514Y388365D01*
X141351Y388365D01*
X141331Y388362D01*
X141312Y388364D01*
X141210Y388342D01*
X141108Y388326D01*
X141091Y388316D01*
X141071Y388312D01*
X140982Y388259D01*
X140891Y388210D01*
X140877Y388196D01*
X140860Y388186D01*
X140793Y388107D01*
X140722Y388032D01*
X140713Y388014D01*
X140700Y387999D01*
X140661Y387903D01*
X140618Y387809D01*
X140616Y387789D01*
X140608Y387771D01*
X140590Y387604D01*
X140590Y379602D01*
X137486Y379602D01*
X137396Y379588D01*
X137305Y379580D01*
X137276Y379568D01*
X137244Y379563D01*
X137163Y379520D01*
X137079Y379484D01*
X137047Y379458D01*
X137026Y379447D01*
X137004Y379424D01*
X136948Y379379D01*
X136310Y378741D01*
X131914Y378741D01*
X131276Y379379D01*
X131202Y379432D01*
X131132Y379492D01*
X131102Y379504D01*
X131076Y379523D01*
X130989Y379550D01*
X130904Y379584D01*
X130863Y379588D01*
X130841Y379595D01*
X130809Y379594D01*
X130738Y379602D01*
X129982Y379602D01*
X126014Y383570D01*
X125998Y383582D01*
X125986Y383597D01*
X125898Y383654D01*
X125815Y383714D01*
X125796Y383720D01*
X125779Y383730D01*
X125678Y383756D01*
X125579Y383786D01*
X125560Y383786D01*
X125540Y383791D01*
X125437Y383783D01*
X125341Y383780D01*
X125222Y383793D01*
X111026Y383793D01*
X110936Y383778D01*
X110845Y383771D01*
X110815Y383759D01*
X110784Y383754D01*
X110703Y383711D01*
X110619Y383675D01*
X110587Y383649D01*
X110566Y383638D01*
X110544Y383615D01*
X110488Y383570D01*
X110459Y383542D01*
X110413Y383477D01*
X110397Y383460D01*
X110394Y383454D01*
X110369Y383427D01*
X110365Y383419D01*
X110347Y383398D01*
X110335Y383368D01*
X110316Y383342D01*
X110291Y383260D01*
X110285Y383247D01*
X110276Y383246D01*
X110195Y383203D01*
X110111Y383167D01*
X110079Y383141D01*
X110058Y383130D01*
X110036Y383107D01*
X109980Y383062D01*
X109951Y383034D01*
X109905Y382969D01*
X109889Y382952D01*
X109885Y382944D01*
X109839Y382890D01*
X109827Y382860D01*
X109808Y382834D01*
X109781Y382747D01*
X109747Y382662D01*
X109743Y382621D01*
X109736Y382599D01*
X109737Y382567D01*
X109729Y382496D01*
X109729Y377951D01*
X98867Y377951D01*
X97535Y379283D01*
X97535Y404622D01*
X97532Y404642D01*
X97534Y404661D01*
X97512Y404763D01*
X97496Y404865D01*
X97486Y404882D01*
X97482Y404902D01*
X97429Y404991D01*
X97380Y405082D01*
X97366Y405096D01*
X97356Y405113D01*
X97277Y405180D01*
X97202Y405252D01*
X97184Y405260D01*
X97169Y405273D01*
X97073Y405312D01*
X96979Y405355D01*
X96959Y405357D01*
X96941Y405365D01*
X96774Y405383D01*
X82042Y405383D01*
X81952Y405369D01*
X81861Y405361D01*
X81831Y405349D01*
X81799Y405344D01*
X81719Y405301D01*
X81635Y405265D01*
X81603Y405239D01*
X81582Y405228D01*
X81560Y405205D01*
X81504Y405160D01*
X78202Y401858D01*
X78149Y401784D01*
X78089Y401715D01*
X78077Y401685D01*
X78058Y401659D01*
X78031Y401572D01*
X77997Y401487D01*
X77993Y401446D01*
X77986Y401423D01*
X77987Y401391D01*
X77979Y401320D01*
X77979Y369062D01*
X77982Y369042D01*
X77980Y369023D01*
X78002Y368921D01*
X78019Y368819D01*
X78028Y368802D01*
X78032Y368782D01*
X78085Y368693D01*
X78134Y368602D01*
X78148Y368588D01*
X78158Y368571D01*
X78237Y368504D01*
X78312Y368433D01*
X78330Y368424D01*
X78345Y368411D01*
X78441Y368372D01*
X78535Y368329D01*
X78555Y368327D01*
X78573Y368319D01*
X78740Y368301D01*
X90679Y368301D01*
X90679Y349504D01*
X90682Y349484D01*
X90680Y349465D01*
X90702Y349363D01*
X90719Y349261D01*
X90728Y349244D01*
X90732Y349224D01*
X90785Y349135D01*
X90834Y349044D01*
X90848Y349030D01*
X90858Y349013D01*
X90937Y348946D01*
X91012Y348875D01*
X91030Y348866D01*
X91045Y348853D01*
X91141Y348814D01*
X91235Y348771D01*
X91255Y348769D01*
X91273Y348761D01*
X91440Y348743D01*
X103124Y348743D01*
X103144Y348746D01*
G37*
G36*
X154452Y390045D02*
X154452Y390045D01*
X154471Y390042D01*
X154573Y390064D01*
X154675Y390081D01*
X154692Y390090D01*
X154712Y390095D01*
X154801Y390148D01*
X154892Y390196D01*
X154906Y390211D01*
X154923Y390221D01*
X154990Y390300D01*
X155062Y390375D01*
X155070Y390393D01*
X155083Y390408D01*
X155122Y390504D01*
X155165Y390598D01*
X155167Y390617D01*
X155175Y390636D01*
X155193Y390803D01*
X155193Y414782D01*
X155190Y414802D01*
X155192Y414821D01*
X155170Y414923D01*
X155154Y415025D01*
X155144Y415042D01*
X155140Y415062D01*
X155087Y415151D01*
X155038Y415242D01*
X155024Y415256D01*
X155014Y415273D01*
X154935Y415340D01*
X154860Y415412D01*
X154842Y415420D01*
X154827Y415433D01*
X154731Y415472D01*
X154637Y415515D01*
X154617Y415517D01*
X154599Y415525D01*
X154432Y415543D01*
X138684Y415543D01*
X138594Y415529D01*
X138503Y415521D01*
X138473Y415509D01*
X138441Y415504D01*
X138361Y415461D01*
X138277Y415425D01*
X138245Y415399D01*
X138224Y415388D01*
X138202Y415365D01*
X138146Y415320D01*
X125415Y402589D01*
X100989Y402589D01*
X100969Y402586D01*
X100949Y402588D01*
X100848Y402566D01*
X100746Y402550D01*
X100728Y402540D01*
X100709Y402536D01*
X100620Y402483D01*
X100529Y402434D01*
X100515Y402420D01*
X100498Y402410D01*
X100430Y402331D01*
X100359Y402256D01*
X100351Y402238D01*
X100338Y402223D01*
X100299Y402127D01*
X100256Y402033D01*
X100253Y402013D01*
X100246Y401995D01*
X100227Y401828D01*
X100227Y390803D01*
X100231Y390783D01*
X100228Y390763D01*
X100250Y390662D01*
X100267Y390560D01*
X100276Y390542D01*
X100281Y390523D01*
X100334Y390434D01*
X100382Y390343D01*
X100397Y390329D01*
X100407Y390312D01*
X100486Y390244D01*
X100561Y390173D01*
X100579Y390165D01*
X100594Y390152D01*
X100690Y390113D01*
X100784Y390070D01*
X100803Y390067D01*
X100822Y390060D01*
X100989Y390041D01*
X154432Y390041D01*
X154452Y390045D01*
G37*
G36*
X84348Y348492D02*
X84348Y348492D01*
X84367Y348490D01*
X84469Y348512D01*
X84571Y348529D01*
X84588Y348538D01*
X84608Y348542D01*
X84697Y348595D01*
X84788Y348644D01*
X84802Y348658D01*
X84819Y348668D01*
X84886Y348747D01*
X84958Y348822D01*
X84966Y348840D01*
X84979Y348855D01*
X85018Y348951D01*
X85061Y349045D01*
X85063Y349065D01*
X85071Y349083D01*
X85089Y349250D01*
X85089Y363474D01*
X85086Y363494D01*
X85088Y363513D01*
X85066Y363615D01*
X85050Y363717D01*
X85040Y363734D01*
X85036Y363754D01*
X84983Y363843D01*
X84934Y363934D01*
X84920Y363948D01*
X84910Y363965D01*
X84831Y364032D01*
X84756Y364104D01*
X84738Y364112D01*
X84723Y364125D01*
X84627Y364164D01*
X84533Y364207D01*
X84513Y364209D01*
X84495Y364217D01*
X84328Y364235D01*
X76199Y364235D01*
X76199Y377444D01*
X76198Y377453D01*
X76198Y377456D01*
X76196Y377465D01*
X76198Y377483D01*
X76176Y377585D01*
X76160Y377687D01*
X76150Y377704D01*
X76146Y377724D01*
X76093Y377813D01*
X76044Y377904D01*
X76030Y377918D01*
X76020Y377935D01*
X75941Y378002D01*
X75866Y378074D01*
X75848Y378082D01*
X75833Y378095D01*
X75737Y378134D01*
X75643Y378177D01*
X75623Y378179D01*
X75605Y378187D01*
X75438Y378205D01*
X70612Y378205D01*
X70522Y378191D01*
X70431Y378183D01*
X70401Y378171D01*
X70369Y378166D01*
X70289Y378123D01*
X70205Y378087D01*
X70173Y378061D01*
X70152Y378050D01*
X70130Y378027D01*
X70124Y378023D01*
X70124Y378022D01*
X70074Y377982D01*
X62454Y370362D01*
X62401Y370288D01*
X62341Y370219D01*
X62329Y370189D01*
X62310Y370163D01*
X62283Y370076D01*
X62249Y369991D01*
X62245Y369950D01*
X62238Y369927D01*
X62239Y369895D01*
X62231Y369824D01*
X62231Y369315D01*
X53848Y369315D01*
X53758Y369301D01*
X53667Y369293D01*
X53637Y369281D01*
X53605Y369276D01*
X53525Y369233D01*
X53441Y369197D01*
X53409Y369171D01*
X53388Y369160D01*
X53366Y369137D01*
X53310Y369092D01*
X53056Y368838D01*
X53003Y368764D01*
X52943Y368695D01*
X52931Y368665D01*
X52912Y368639D01*
X52885Y368552D01*
X52851Y368467D01*
X52847Y368426D01*
X52840Y368403D01*
X52841Y368371D01*
X52833Y368300D01*
X52833Y349250D01*
X52836Y349230D01*
X52834Y349211D01*
X52856Y349109D01*
X52873Y349007D01*
X52882Y348990D01*
X52886Y348970D01*
X52939Y348881D01*
X52988Y348790D01*
X53002Y348776D01*
X53012Y348759D01*
X53091Y348692D01*
X53166Y348621D01*
X53184Y348612D01*
X53199Y348599D01*
X53295Y348560D01*
X53389Y348517D01*
X53409Y348515D01*
X53427Y348507D01*
X53594Y348489D01*
X84328Y348489D01*
X84348Y348492D01*
G37*
D10*
X73388Y399604D03*
X73388Y391604D03*
X73388Y383604D03*
X73388Y375604D03*
X102888Y375604D03*
X102888Y383604D03*
X102888Y391604D03*
X102888Y399604D03*
D11*
X82638Y387604D03*
X93638Y387604D03*
D12*
X120142Y432698D03*
X120142Y449698D03*
X85226Y416814D03*
X102226Y416814D03*
X120142Y464448D03*
X120142Y481448D03*
X57658Y381118D03*
X57658Y364118D03*
D13*
X88772Y446588D03*
X105772Y446588D03*
D14*
X118110Y395834D03*
X118110Y376834D03*
D15*
X78384Y356616D03*
X97384Y356616D03*
D16*
X151638Y483778D03*
X151638Y408778D03*
X151638Y468778D03*
X151638Y423778D03*
X151638Y438778D03*
X151638Y453778D03*
X23114Y75974D03*
X23114Y15974D03*
X23114Y60974D03*
X23114Y30974D03*
X23114Y45974D03*
X59436Y75974D03*
X59436Y15974D03*
X59436Y60974D03*
X59436Y30974D03*
X59436Y45974D03*
X95758Y75974D03*
X95758Y15974D03*
X95758Y60974D03*
X95758Y30974D03*
X95758Y45974D03*
X23114Y168430D03*
X23114Y108430D03*
X23114Y153430D03*
X23114Y123430D03*
X23114Y138430D03*
X59436Y168430D03*
X59436Y108430D03*
X59436Y153430D03*
X59436Y123430D03*
X59436Y138430D03*
D17*
X27833Y234813D02*
X23523Y234813D01*
X23523Y235623D01*
X27833Y235623D01*
X27833Y234813D01*
X27833Y229813D02*
X23523Y229813D01*
X23523Y230623D01*
X27833Y230623D01*
X27833Y229813D01*
X27833Y224813D02*
X23523Y224813D01*
X23523Y225623D01*
X27833Y225623D01*
X27833Y224813D01*
X27833Y219813D02*
X23523Y219813D01*
X23523Y220623D01*
X27833Y220623D01*
X27833Y219813D01*
X27833Y214813D02*
X23523Y214813D01*
X23523Y215623D01*
X27833Y215623D01*
X27833Y214813D01*
X27833Y209813D02*
X23523Y209813D01*
X23523Y210623D01*
X27833Y210623D01*
X27833Y209813D01*
X27833Y204813D02*
X23523Y204813D01*
X23523Y205623D01*
X27833Y205623D01*
X27833Y204813D01*
X31633Y201823D02*
X31633Y197513D01*
X30823Y197513D01*
X30823Y201823D01*
X31633Y201823D01*
X31633Y199308D02*
X30823Y199308D01*
X30823Y201103D02*
X31633Y201103D01*
X36633Y201823D02*
X36633Y197513D01*
X35823Y197513D01*
X35823Y201823D01*
X36633Y201823D01*
X36633Y199308D02*
X35823Y199308D01*
X35823Y201103D02*
X36633Y201103D01*
X41633Y201823D02*
X41633Y197513D01*
X40823Y197513D01*
X40823Y201823D01*
X41633Y201823D01*
X41633Y199308D02*
X40823Y199308D01*
X40823Y201103D02*
X41633Y201103D01*
X46633Y201823D02*
X46633Y197513D01*
X45823Y197513D01*
X45823Y201823D01*
X46633Y201823D01*
X46633Y199308D02*
X45823Y199308D01*
X45823Y201103D02*
X46633Y201103D01*
X51633Y201823D02*
X51633Y197513D01*
X50823Y197513D01*
X50823Y201823D01*
X51633Y201823D01*
X51633Y199308D02*
X50823Y199308D01*
X50823Y201103D02*
X51633Y201103D01*
X56633Y201823D02*
X56633Y197513D01*
X55823Y197513D01*
X55823Y201823D01*
X56633Y201823D01*
X56633Y199308D02*
X55823Y199308D01*
X55823Y201103D02*
X56633Y201103D01*
X61633Y201823D02*
X61633Y197513D01*
X60823Y197513D01*
X60823Y201823D01*
X61633Y201823D01*
X61633Y199308D02*
X60823Y199308D01*
X60823Y201103D02*
X61633Y201103D01*
X64623Y205623D02*
X68933Y205623D01*
X68933Y204813D01*
X64623Y204813D01*
X64623Y205623D01*
X64623Y210623D02*
X68933Y210623D01*
X68933Y209813D01*
X64623Y209813D01*
X64623Y210623D01*
X64623Y215623D02*
X68933Y215623D01*
X68933Y214813D01*
X64623Y214813D01*
X64623Y215623D01*
X64623Y220623D02*
X68933Y220623D01*
X68933Y219813D01*
X64623Y219813D01*
X64623Y220623D01*
X64623Y225623D02*
X68933Y225623D01*
X68933Y224813D01*
X64623Y224813D01*
X64623Y225623D01*
X64623Y230623D02*
X68933Y230623D01*
X68933Y229813D01*
X64623Y229813D01*
X64623Y230623D01*
X64623Y235623D02*
X68933Y235623D01*
X68933Y234813D01*
X64623Y234813D01*
X64623Y235623D01*
X60823Y238613D02*
X60823Y242923D01*
X61633Y242923D01*
X61633Y238613D01*
X60823Y238613D01*
X60823Y240408D02*
X61633Y240408D01*
X61633Y242203D02*
X60823Y242203D01*
X55823Y242923D02*
X55823Y238613D01*
X55823Y242923D02*
X56633Y242923D01*
X56633Y238613D01*
X55823Y238613D01*
X55823Y240408D02*
X56633Y240408D01*
X56633Y242203D02*
X55823Y242203D01*
X50823Y242923D02*
X50823Y238613D01*
X50823Y242923D02*
X51633Y242923D01*
X51633Y238613D01*
X50823Y238613D01*
X50823Y240408D02*
X51633Y240408D01*
X51633Y242203D02*
X50823Y242203D01*
X45823Y242923D02*
X45823Y238613D01*
X45823Y242923D02*
X46633Y242923D01*
X46633Y238613D01*
X45823Y238613D01*
X45823Y240408D02*
X46633Y240408D01*
X46633Y242203D02*
X45823Y242203D01*
X40823Y242923D02*
X40823Y238613D01*
X40823Y242923D02*
X41633Y242923D01*
X41633Y238613D01*
X40823Y238613D01*
X40823Y240408D02*
X41633Y240408D01*
X41633Y242203D02*
X40823Y242203D01*
X35823Y242923D02*
X35823Y238613D01*
X35823Y242923D02*
X36633Y242923D01*
X36633Y238613D01*
X35823Y238613D01*
X35823Y240408D02*
X36633Y240408D01*
X36633Y242203D02*
X35823Y242203D01*
X30823Y242923D02*
X30823Y238613D01*
X30823Y242923D02*
X31633Y242923D01*
X31633Y238613D01*
X30823Y238613D01*
X30823Y240408D02*
X31633Y240408D01*
X31633Y242203D02*
X30823Y242203D01*
D18*
X86234Y153858D03*
X86234Y113858D03*
X102234Y153858D03*
X102234Y113858D03*
D12*
X84210Y174752D03*
X101210Y174752D03*
D19*
X18288Y284558D03*
X27788Y262558D03*
X8788Y262558D03*
D13*
X81788Y220082D03*
X81788Y203082D03*
X9398Y216290D03*
X9398Y233290D03*
X100330Y220082D03*
X100330Y203082D03*
D20*
X19932Y320548D03*
X34932Y320548D03*
D13*
X19440Y304800D03*
X36440Y304800D03*
D20*
X20186Y332486D03*
X35186Y332486D03*
D13*
X18932Y348488D03*
X35932Y348488D03*
D16*
X86614Y251954D03*
X86614Y281954D03*
X86614Y266954D03*
D21*
X121031Y51181D03*
X121031Y68961D03*
X121031Y86741D03*
X121031Y104521D03*
D22*
X120142Y397866D02*
X120142Y432698D01*
X120142Y397866D02*
X118110Y395834D01*
X102226Y410328D02*
X102226Y416814D01*
X98552Y406654D02*
X95250Y406654D01*
X93638Y405042D01*
X93638Y387604D01*
X98552Y406654D02*
X102226Y410328D01*
X120142Y481448D02*
X122599Y483905D01*
X151511Y483905D02*
X151638Y483778D01*
X151511Y483905D02*
X122599Y483905D01*
X105772Y452990D02*
X105772Y446588D01*
X111848Y459066D02*
X111848Y470605D01*
X120142Y478899D02*
X120142Y481448D01*
X120142Y478899D02*
X111848Y470605D01*
X111848Y459066D02*
X105772Y452990D01*
X69880Y210218D02*
X66778Y210218D01*
X77016Y203082D02*
X81788Y203082D01*
X77016Y203082D02*
X69880Y210218D01*
D23*
X81788Y203082D02*
X100330Y203082D01*
D24*
X84328Y88420D02*
X95758Y75974D01*
D23*
X84328Y88420D02*
X84328Y89408D01*
D25*
X84328Y89408D03*
D23*
X84328Y91186D01*
D24*
X102234Y109092D01*
D23*
X102234Y112141D01*
X102234Y113858D01*
D24*
X102234Y134874D01*
X102234Y153858D01*
X101210Y154882D02*
X101210Y174752D01*
D23*
X101210Y154882D02*
X102234Y153858D01*
D24*
X101981Y191770D02*
X101981Y201431D01*
X101981Y191770D02*
X101981Y175523D01*
X101210Y174752D01*
X101981Y201431D02*
X100330Y203082D01*
X41910Y75974D02*
X23114Y75974D01*
X41910Y75974D02*
X59436Y75974D01*
D23*
X9398Y233290D02*
X9398Y247904D01*
X11176Y249682D02*
X23622Y249682D01*
X27788Y253848D01*
X27788Y262558D01*
X11176Y249682D02*
X9398Y247904D01*
D26*
X11326Y235218D02*
X9398Y233290D01*
X11326Y235218D02*
X25678Y235218D01*
D23*
X27788Y262558D02*
X47752Y282522D01*
X47752Y323001D02*
X66465Y341713D01*
X97384Y355092D02*
X97384Y356616D01*
X97384Y355092D02*
X84005Y341713D01*
X66465Y341713D01*
X47752Y323001D02*
X47752Y282522D01*
D25*
X66465Y341713D03*
D23*
X102226Y443042D02*
X105772Y446588D01*
X102226Y443042D02*
X102226Y416814D01*
D25*
X102234Y134874D03*
X102108Y334010D03*
D24*
X102108Y351892D01*
X97384Y356616D01*
D25*
X41910Y75974D03*
D23*
X42707Y341713D02*
X35932Y348488D01*
X42707Y341713D02*
X66465Y341713D01*
D22*
X109854Y104521D02*
X121031Y104521D01*
X109854Y104521D02*
X102234Y112141D01*
D25*
X102108Y143510D03*
X101981Y191770D03*
X82804Y396875D03*
X92964Y396875D03*
X82804Y386271D03*
X92964Y372745D03*
X82804Y372745D03*
X92964Y386271D03*
X157353Y383159D03*
X147130Y383159D03*
X135509Y372745D03*
X147130Y372745D03*
X157353Y372745D03*
D22*
X73388Y399604D02*
X73388Y404976D01*
X85226Y416814D01*
X120142Y449698D02*
X120142Y464448D01*
X131182Y475488D01*
X135001Y475488D01*
D25*
X135001Y475488D03*
X52070Y208328D03*
D22*
X54836Y205562D01*
X63182Y205562D01*
X63482Y205262D01*
X66734Y205262D01*
D27*
X66778Y205218D01*
D22*
X88772Y436188D02*
X88772Y446588D01*
X88772Y436188D02*
X57658Y405074D01*
X57658Y398780D01*
X57658Y381118D01*
X64834Y391604D02*
X73388Y391604D01*
X64834Y391604D02*
X57658Y398780D01*
D25*
X53313Y276987D03*
D26*
X46460Y270134D01*
X46460Y260840D01*
X36228Y250608D01*
X36228Y240768D01*
D25*
X61718Y259862D03*
D26*
X56228Y254372D01*
X56228Y240768D01*
D25*
X40138Y263459D03*
D26*
X35328Y258649D02*
X35328Y254506D01*
X35328Y258649D02*
X40138Y263459D01*
X35328Y254506D02*
X31228Y250406D01*
X31228Y240768D01*
X51228Y233708D02*
X52543Y232393D01*
D25*
X52543Y232393D03*
D26*
X51228Y233708D02*
X51228Y240768D01*
D25*
X134112Y384048D03*
D22*
X106929Y383604D02*
X102888Y383604D01*
X106929Y383604D02*
X109707Y386382D01*
X131778Y386382D01*
X134112Y384048D01*
X57658Y364118D02*
X57658Y361950D01*
X66778Y215218D02*
X70946Y215218D01*
X75810Y220082D02*
X81788Y220082D01*
X75810Y220082D02*
X70946Y215218D01*
D23*
X81788Y220082D02*
X100330Y220082D01*
D24*
X23114Y15974D02*
X18062Y15974D01*
X7620Y26416D01*
X7620Y95250D01*
X23114Y15974D02*
X59436Y15974D01*
X95758Y15974D01*
X59436Y108430D02*
X23114Y108430D01*
D22*
X35186Y320802D02*
X35186Y332486D01*
X35186Y320802D02*
X34932Y320548D01*
D26*
X9398Y216290D02*
X10470Y215218D01*
D22*
X25678Y215218D01*
D25*
X36830Y360934D03*
D24*
X40014Y364118D01*
X57658Y364118D01*
D22*
X35186Y332486D02*
X29242Y326542D01*
X29238Y326542D01*
D25*
X29238Y326542D03*
X66040Y354330D03*
D22*
X66778Y215218D02*
X25678Y215218D01*
D25*
X66548Y328930D03*
D23*
X91948Y328930D01*
X104830Y316048D01*
X104830Y224582D01*
X100330Y220082D01*
D24*
X20800Y108430D02*
X7620Y95250D01*
X20800Y108430D02*
X23114Y108430D01*
D22*
X106172Y26388D02*
X95758Y15974D01*
X106172Y26388D02*
X106172Y46355D01*
X108059Y48242D01*
X110998Y51181D01*
X121031Y51181D01*
D24*
X23114Y108430D02*
X20758Y110786D01*
X17877Y110786D01*
X7747Y120916D01*
X7747Y187706D01*
D25*
X7493Y195961D03*
X7620Y204724D03*
D24*
X7747Y204597D01*
X7747Y187706D01*
X7620Y204724D02*
X7620Y205216D01*
X9398Y206994D01*
X9398Y216290D01*
D25*
X7747Y187706D03*
D22*
X108059Y54866D02*
X108059Y48242D01*
X108059Y54866D02*
X112893Y59700D01*
D25*
X112893Y59700D03*
D27*
X59436Y30974D02*
X23114Y30974D01*
X59436Y30974D02*
X95758Y30974D01*
X59436Y123430D02*
X23114Y123430D01*
D25*
X75142Y250692D03*
D27*
X66872Y230312D02*
X66778Y230218D01*
X66872Y230312D02*
X69879Y230312D01*
X72164Y232597D01*
X72164Y236961D01*
X70200Y238925D01*
X70200Y245750D01*
X75142Y250692D01*
X59436Y45974D02*
X23114Y45974D01*
X59436Y45974D02*
X95758Y45974D01*
X59436Y138430D02*
X23114Y138430D01*
D25*
X76342Y241604D03*
D27*
X76342Y232269D01*
X69291Y225218D01*
X66778Y225218D01*
X69596Y171569D02*
X69596Y100584D01*
X51308Y199588D02*
X51228Y199668D01*
X51308Y189857D02*
X69596Y171569D01*
X51308Y189857D02*
X51308Y199588D01*
X69596Y100584D02*
X65278Y96266D01*
X28194Y96266D01*
X14788Y82860D01*
X14788Y69562D02*
X23114Y60974D01*
X14788Y69562D02*
X14788Y82860D01*
X56228Y189644D02*
X56228Y199668D01*
X56228Y189644D02*
X72898Y172974D01*
X72898Y73674D02*
X59436Y60974D01*
X72898Y73674D02*
X72898Y172974D01*
X75946Y174790D02*
X61228Y189508D01*
X75946Y81802D02*
X95758Y60974D01*
X75946Y81802D02*
X75946Y174790D01*
X61228Y189508D02*
X61228Y199668D01*
X41228Y199668D02*
X41228Y157574D01*
X37084Y153430D01*
X23114Y153430D01*
X49276Y153430D02*
X59436Y153430D01*
X49276Y153430D02*
X44450Y158256D01*
X44450Y190754D01*
X46482Y192786D01*
X46482Y199414D01*
X46228Y199668D01*
D26*
X84210Y181728D02*
X84210Y174752D01*
X84210Y181728D02*
X78232Y187706D01*
D25*
X78232Y187706D03*
D26*
X84210Y174752D02*
X86234Y172728D01*
X86234Y153858D01*
X86234Y113858D01*
D25*
X33990Y232432D03*
D27*
X33990Y221696D01*
X32258Y219964D01*
X25932Y219964D01*
X25678Y220218D01*
D25*
X76034Y260550D03*
D27*
X64934Y249450D01*
X64934Y237062D01*
X66778Y235218D01*
X67786Y265486D02*
X69254Y266954D01*
X67786Y265486D02*
X67786Y257349D01*
X61228Y250791D01*
X69254Y266954D02*
X86614Y266954D01*
X61228Y250791D02*
X61228Y240768D01*
D22*
X36440Y292726D02*
X36440Y304800D01*
X28272Y284558D02*
X18288Y284558D01*
X28272Y284558D02*
X36440Y292726D01*
D25*
X32512Y278384D03*
D27*
X21502Y275272D02*
X8788Y262558D01*
X21502Y275272D02*
X24235Y275272D01*
X27347Y278384D02*
X32512Y278384D01*
X27347Y278384D02*
X24235Y275272D01*
D25*
X19276Y198882D03*
D27*
X19276Y208760D01*
X20828Y210312D01*
X20922Y210218D02*
X25678Y210218D01*
X20922Y210218D02*
X20828Y210312D01*
D22*
X19932Y305292D02*
X19932Y320548D01*
X19932Y305292D02*
X19440Y304800D01*
X18932Y333740D02*
X18932Y348488D01*
X18932Y333740D02*
X20186Y332486D01*
D25*
X39878Y208642D03*
D22*
X36798Y205562D01*
X26022Y205562D02*
X25678Y205218D01*
X26022Y205562D02*
X36798Y205562D01*
D27*
X36228Y199668D02*
X36228Y193962D01*
X29972Y187706D01*
D25*
X29972Y187706D03*
X99441Y90805D03*
D27*
X103505Y86741D01*
X121031Y86741D01*
X19774Y188214D02*
X31228Y199668D01*
X19774Y188214D02*
X19304Y188214D01*
D25*
X19304Y188214D03*
X110398Y76201D03*
D27*
X113791Y76201D02*
X121031Y68961D01*
X113791Y76201D02*
X110398Y76201D01*
X46228Y240768D02*
X46228Y250828D01*
X53100Y257700D01*
X53100Y262200D01*
X82800Y291900D02*
X89700Y291900D01*
X95364Y286236D01*
X82800Y291900D02*
X53100Y262200D01*
X91721Y241015D02*
X95364Y244658D01*
D25*
X91721Y241015D03*
D27*
X95364Y244658D02*
X95364Y286236D01*
X41228Y251298D02*
X41228Y240768D01*
X59381Y291281D02*
X65700Y297600D01*
X96958Y297600D01*
X100258Y294300D01*
X49508Y259578D02*
X41228Y251298D01*
X52219Y270919D02*
X55827Y270919D01*
X59381Y274474D01*
X59381Y291281D01*
X49508Y268208D02*
X49508Y259578D01*
X49508Y268208D02*
X52219Y270919D01*
X94800Y231000D02*
X100258Y236458D01*
X94800Y231000D02*
X88200Y231000D01*
D25*
X88200Y231000D03*
D27*
X100258Y236458D02*
X100258Y294300D01*
M02*
