G04 EAGLE Gerber RS-274X export*
G75*
%MOMM*%
%FSLAX34Y34*%
%LPD*%
%INSoldermask Top*%
%IPPOS*%
%AMOC8*
5,1,8,0,0,1.08239X$1,22.5*%
G01*
%ADD10R,0.653200X0.603200*%
%ADD11R,1.003200X2.103200*%
%ADD12R,1.303200X1.203200*%
%ADD13R,1.203200X1.303200*%
%ADD14R,1.703200X1.503200*%
%ADD15R,1.503200X1.703200*%
%ADD16C,1.411200*%
%ADD17C,0.392753*%
%ADD18R,1.203200X1.203200*%
%ADD19R,1.203200X1.603200*%
%ADD20R,1.003200X1.003200*%
%ADD21C,1.473200*%
%ADD22C,0.959600*%


D10*
X73388Y399604D03*
X73388Y391604D03*
X73388Y383604D03*
X73388Y375604D03*
X102888Y375604D03*
X102888Y383604D03*
X102888Y391604D03*
X102888Y399604D03*
D11*
X82638Y387604D03*
X93638Y387604D03*
D12*
X120142Y432698D03*
X120142Y449698D03*
X85226Y416814D03*
X102226Y416814D03*
X120142Y464448D03*
X120142Y481448D03*
X57658Y381118D03*
X57658Y364118D03*
D13*
X88772Y446588D03*
X105772Y446588D03*
D14*
X118110Y395834D03*
X118110Y376834D03*
D15*
X78384Y356616D03*
X97384Y356616D03*
D16*
X151638Y483778D03*
X151638Y408778D03*
X151638Y468778D03*
X151638Y423778D03*
X151638Y438778D03*
X151638Y453778D03*
X23114Y75974D03*
X23114Y15974D03*
X23114Y60974D03*
X23114Y30974D03*
X23114Y45974D03*
X59436Y75974D03*
X59436Y15974D03*
X59436Y60974D03*
X59436Y30974D03*
X59436Y45974D03*
X95758Y75974D03*
X95758Y15974D03*
X95758Y60974D03*
X95758Y30974D03*
X95758Y45974D03*
X23114Y168430D03*
X23114Y108430D03*
X23114Y153430D03*
X23114Y123430D03*
X23114Y138430D03*
X59436Y168430D03*
X59436Y108430D03*
X59436Y153430D03*
X59436Y123430D03*
X59436Y138430D03*
D17*
X27830Y234816D02*
X23526Y234816D01*
X23526Y235620D01*
X27830Y235620D01*
X27830Y234816D01*
X27830Y229816D02*
X23526Y229816D01*
X23526Y230620D01*
X27830Y230620D01*
X27830Y229816D01*
X27830Y224816D02*
X23526Y224816D01*
X23526Y225620D01*
X27830Y225620D01*
X27830Y224816D01*
X27830Y219816D02*
X23526Y219816D01*
X23526Y220620D01*
X27830Y220620D01*
X27830Y219816D01*
X27830Y214816D02*
X23526Y214816D01*
X23526Y215620D01*
X27830Y215620D01*
X27830Y214816D01*
X27830Y209816D02*
X23526Y209816D01*
X23526Y210620D01*
X27830Y210620D01*
X27830Y209816D01*
X27830Y204816D02*
X23526Y204816D01*
X23526Y205620D01*
X27830Y205620D01*
X27830Y204816D01*
X31630Y201820D02*
X31630Y197516D01*
X30826Y197516D01*
X30826Y201820D01*
X31630Y201820D01*
X31630Y201248D02*
X30826Y201248D01*
X36630Y201820D02*
X36630Y197516D01*
X35826Y197516D01*
X35826Y201820D01*
X36630Y201820D01*
X36630Y201248D02*
X35826Y201248D01*
X41630Y201820D02*
X41630Y197516D01*
X40826Y197516D01*
X40826Y201820D01*
X41630Y201820D01*
X41630Y201248D02*
X40826Y201248D01*
X46630Y201820D02*
X46630Y197516D01*
X45826Y197516D01*
X45826Y201820D01*
X46630Y201820D01*
X46630Y201248D02*
X45826Y201248D01*
X51630Y201820D02*
X51630Y197516D01*
X50826Y197516D01*
X50826Y201820D01*
X51630Y201820D01*
X51630Y201248D02*
X50826Y201248D01*
X56630Y201820D02*
X56630Y197516D01*
X55826Y197516D01*
X55826Y201820D01*
X56630Y201820D01*
X56630Y201248D02*
X55826Y201248D01*
X61630Y201820D02*
X61630Y197516D01*
X60826Y197516D01*
X60826Y201820D01*
X61630Y201820D01*
X61630Y201248D02*
X60826Y201248D01*
X64626Y205620D02*
X68930Y205620D01*
X68930Y204816D01*
X64626Y204816D01*
X64626Y205620D01*
X64626Y210620D02*
X68930Y210620D01*
X68930Y209816D01*
X64626Y209816D01*
X64626Y210620D01*
X64626Y215620D02*
X68930Y215620D01*
X68930Y214816D01*
X64626Y214816D01*
X64626Y215620D01*
X64626Y220620D02*
X68930Y220620D01*
X68930Y219816D01*
X64626Y219816D01*
X64626Y220620D01*
X64626Y225620D02*
X68930Y225620D01*
X68930Y224816D01*
X64626Y224816D01*
X64626Y225620D01*
X64626Y230620D02*
X68930Y230620D01*
X68930Y229816D01*
X64626Y229816D01*
X64626Y230620D01*
X64626Y235620D02*
X68930Y235620D01*
X68930Y234816D01*
X64626Y234816D01*
X64626Y235620D01*
X60826Y238616D02*
X60826Y242920D01*
X61630Y242920D01*
X61630Y238616D01*
X60826Y238616D01*
X60826Y242348D02*
X61630Y242348D01*
X55826Y242920D02*
X55826Y238616D01*
X55826Y242920D02*
X56630Y242920D01*
X56630Y238616D01*
X55826Y238616D01*
X55826Y242348D02*
X56630Y242348D01*
X50826Y242920D02*
X50826Y238616D01*
X50826Y242920D02*
X51630Y242920D01*
X51630Y238616D01*
X50826Y238616D01*
X50826Y242348D02*
X51630Y242348D01*
X45826Y242920D02*
X45826Y238616D01*
X45826Y242920D02*
X46630Y242920D01*
X46630Y238616D01*
X45826Y238616D01*
X45826Y242348D02*
X46630Y242348D01*
X40826Y242920D02*
X40826Y238616D01*
X40826Y242920D02*
X41630Y242920D01*
X41630Y238616D01*
X40826Y238616D01*
X40826Y242348D02*
X41630Y242348D01*
X35826Y242920D02*
X35826Y238616D01*
X35826Y242920D02*
X36630Y242920D01*
X36630Y238616D01*
X35826Y238616D01*
X35826Y242348D02*
X36630Y242348D01*
X30826Y242920D02*
X30826Y238616D01*
X30826Y242920D02*
X31630Y242920D01*
X31630Y238616D01*
X30826Y238616D01*
X30826Y242348D02*
X31630Y242348D01*
D18*
X86234Y153858D03*
X86234Y113858D03*
X102234Y153858D03*
X102234Y113858D03*
D12*
X84210Y174752D03*
X101210Y174752D03*
D19*
X18288Y284558D03*
X27788Y262558D03*
X8788Y262558D03*
D13*
X81788Y220082D03*
X81788Y203082D03*
X9398Y216290D03*
X9398Y233290D03*
X100330Y220082D03*
X100330Y203082D03*
D20*
X19932Y320548D03*
X34932Y320548D03*
D13*
X19440Y304800D03*
X36440Y304800D03*
D20*
X20186Y332486D03*
X35186Y332486D03*
D13*
X18932Y348488D03*
X35932Y348488D03*
D16*
X86614Y251954D03*
X86614Y281954D03*
X86614Y266954D03*
D21*
X121031Y51181D03*
X121031Y68961D03*
X121031Y86741D03*
X121031Y104521D03*
D22*
X84328Y89408D03*
X66465Y341713D03*
X102234Y134874D03*
X102108Y334010D03*
X41910Y75974D03*
X102108Y143510D03*
X101981Y191770D03*
X82804Y396875D03*
X92964Y396875D03*
X82804Y386271D03*
X92964Y372745D03*
X82804Y372745D03*
X92964Y386271D03*
X157353Y383159D03*
X147130Y383159D03*
X135509Y372745D03*
X147130Y372745D03*
X157353Y372745D03*
X135001Y475488D03*
X52070Y208328D03*
X53313Y276987D03*
X61718Y259862D03*
X40138Y263459D03*
X52543Y232393D03*
X134112Y384048D03*
X36830Y360934D03*
X29238Y326542D03*
X66040Y354330D03*
X66548Y328930D03*
X7493Y195961D03*
X7620Y204724D03*
X7747Y187706D03*
X112893Y59700D03*
X75142Y250692D03*
X76342Y241604D03*
X78232Y187706D03*
X33990Y232432D03*
X76034Y260550D03*
X32512Y278384D03*
X19276Y198882D03*
X39878Y208642D03*
X29972Y187706D03*
X99441Y90805D03*
X19304Y188214D03*
X110398Y76201D03*
X91721Y241015D03*
X88200Y231000D03*
M02*
