G04 EAGLE Gerber RS-274X export*
G75*
%MOMM*%
%FSLAX34Y34*%
%LPD*%
%INSolderpaste Top*%
%IPPOS*%
%AMOC8*
5,1,8,0,0,1.08239X$1,22.5*%
G01*
%ADD10R,0.450000X0.400000*%
%ADD11R,0.800000X1.900000*%
%ADD12R,1.100000X1.000000*%
%ADD13R,1.000000X1.100000*%
%ADD14R,1.500000X1.300000*%
%ADD15R,1.300000X1.500000*%
%ADD16C,0.189000*%
%ADD17R,1.000000X1.000000*%
%ADD18R,1.000000X1.400000*%
%ADD19R,0.800000X0.800000*%


D10*
X73388Y399604D03*
X73388Y391604D03*
X73388Y383604D03*
X73388Y375604D03*
X102888Y375604D03*
X102888Y383604D03*
X102888Y391604D03*
X102888Y399604D03*
D11*
X82638Y387604D03*
X93638Y387604D03*
D12*
X120142Y432698D03*
X120142Y449698D03*
X85226Y416814D03*
X102226Y416814D03*
X120142Y464448D03*
X120142Y481448D03*
X57658Y381118D03*
X57658Y364118D03*
D13*
X88772Y446588D03*
X105772Y446588D03*
D14*
X118110Y395834D03*
X118110Y376834D03*
D15*
X78384Y356616D03*
X97384Y356616D03*
D16*
X27833Y234813D02*
X23523Y234813D01*
X23523Y235623D01*
X27833Y235623D01*
X27833Y234813D01*
X27833Y229813D02*
X23523Y229813D01*
X23523Y230623D01*
X27833Y230623D01*
X27833Y229813D01*
X27833Y224813D02*
X23523Y224813D01*
X23523Y225623D01*
X27833Y225623D01*
X27833Y224813D01*
X27833Y219813D02*
X23523Y219813D01*
X23523Y220623D01*
X27833Y220623D01*
X27833Y219813D01*
X27833Y214813D02*
X23523Y214813D01*
X23523Y215623D01*
X27833Y215623D01*
X27833Y214813D01*
X27833Y209813D02*
X23523Y209813D01*
X23523Y210623D01*
X27833Y210623D01*
X27833Y209813D01*
X27833Y204813D02*
X23523Y204813D01*
X23523Y205623D01*
X27833Y205623D01*
X27833Y204813D01*
X31633Y201823D02*
X31633Y197513D01*
X30823Y197513D01*
X30823Y201823D01*
X31633Y201823D01*
X31633Y199308D02*
X30823Y199308D01*
X30823Y201103D02*
X31633Y201103D01*
X36633Y201823D02*
X36633Y197513D01*
X35823Y197513D01*
X35823Y201823D01*
X36633Y201823D01*
X36633Y199308D02*
X35823Y199308D01*
X35823Y201103D02*
X36633Y201103D01*
X41633Y201823D02*
X41633Y197513D01*
X40823Y197513D01*
X40823Y201823D01*
X41633Y201823D01*
X41633Y199308D02*
X40823Y199308D01*
X40823Y201103D02*
X41633Y201103D01*
X46633Y201823D02*
X46633Y197513D01*
X45823Y197513D01*
X45823Y201823D01*
X46633Y201823D01*
X46633Y199308D02*
X45823Y199308D01*
X45823Y201103D02*
X46633Y201103D01*
X51633Y201823D02*
X51633Y197513D01*
X50823Y197513D01*
X50823Y201823D01*
X51633Y201823D01*
X51633Y199308D02*
X50823Y199308D01*
X50823Y201103D02*
X51633Y201103D01*
X56633Y201823D02*
X56633Y197513D01*
X55823Y197513D01*
X55823Y201823D01*
X56633Y201823D01*
X56633Y199308D02*
X55823Y199308D01*
X55823Y201103D02*
X56633Y201103D01*
X61633Y201823D02*
X61633Y197513D01*
X60823Y197513D01*
X60823Y201823D01*
X61633Y201823D01*
X61633Y199308D02*
X60823Y199308D01*
X60823Y201103D02*
X61633Y201103D01*
X64623Y205623D02*
X68933Y205623D01*
X68933Y204813D01*
X64623Y204813D01*
X64623Y205623D01*
X64623Y210623D02*
X68933Y210623D01*
X68933Y209813D01*
X64623Y209813D01*
X64623Y210623D01*
X64623Y215623D02*
X68933Y215623D01*
X68933Y214813D01*
X64623Y214813D01*
X64623Y215623D01*
X64623Y220623D02*
X68933Y220623D01*
X68933Y219813D01*
X64623Y219813D01*
X64623Y220623D01*
X64623Y225623D02*
X68933Y225623D01*
X68933Y224813D01*
X64623Y224813D01*
X64623Y225623D01*
X64623Y230623D02*
X68933Y230623D01*
X68933Y229813D01*
X64623Y229813D01*
X64623Y230623D01*
X64623Y235623D02*
X68933Y235623D01*
X68933Y234813D01*
X64623Y234813D01*
X64623Y235623D01*
X60823Y238613D02*
X60823Y242923D01*
X61633Y242923D01*
X61633Y238613D01*
X60823Y238613D01*
X60823Y240408D02*
X61633Y240408D01*
X61633Y242203D02*
X60823Y242203D01*
X55823Y242923D02*
X55823Y238613D01*
X55823Y242923D02*
X56633Y242923D01*
X56633Y238613D01*
X55823Y238613D01*
X55823Y240408D02*
X56633Y240408D01*
X56633Y242203D02*
X55823Y242203D01*
X50823Y242923D02*
X50823Y238613D01*
X50823Y242923D02*
X51633Y242923D01*
X51633Y238613D01*
X50823Y238613D01*
X50823Y240408D02*
X51633Y240408D01*
X51633Y242203D02*
X50823Y242203D01*
X45823Y242923D02*
X45823Y238613D01*
X45823Y242923D02*
X46633Y242923D01*
X46633Y238613D01*
X45823Y238613D01*
X45823Y240408D02*
X46633Y240408D01*
X46633Y242203D02*
X45823Y242203D01*
X40823Y242923D02*
X40823Y238613D01*
X40823Y242923D02*
X41633Y242923D01*
X41633Y238613D01*
X40823Y238613D01*
X40823Y240408D02*
X41633Y240408D01*
X41633Y242203D02*
X40823Y242203D01*
X35823Y242923D02*
X35823Y238613D01*
X35823Y242923D02*
X36633Y242923D01*
X36633Y238613D01*
X35823Y238613D01*
X35823Y240408D02*
X36633Y240408D01*
X36633Y242203D02*
X35823Y242203D01*
X30823Y242923D02*
X30823Y238613D01*
X30823Y242923D02*
X31633Y242923D01*
X31633Y238613D01*
X30823Y238613D01*
X30823Y240408D02*
X31633Y240408D01*
X31633Y242203D02*
X30823Y242203D01*
D17*
X86234Y153858D03*
X86234Y113858D03*
X102234Y153858D03*
X102234Y113858D03*
D12*
X84210Y174752D03*
X101210Y174752D03*
D18*
X18288Y284558D03*
X27788Y262558D03*
X8788Y262558D03*
D13*
X81788Y220082D03*
X81788Y203082D03*
X9398Y216290D03*
X9398Y233290D03*
X100330Y220082D03*
X100330Y203082D03*
D19*
X19932Y320548D03*
X34932Y320548D03*
D13*
X19440Y304800D03*
X36440Y304800D03*
D19*
X20186Y332486D03*
X35186Y332486D03*
D13*
X18932Y348488D03*
X35932Y348488D03*
M02*
