G04 EAGLE Gerber RS-274X export*
G75*
%MOMM*%
%FSLAX34Y34*%
%LPD*%
%INSoldermask Bottom*%
%IPPOS*%
%AMOC8*
5,1,8,0,0,1.08239X$1,22.5*%
G01*
%ADD10C,1.411200*%
%ADD11R,1.303200X1.203200*%
%ADD12R,2.743200X1.473200*%
%ADD13C,1.473200*%
%ADD14C,0.959600*%


D10*
X151638Y483778D03*
X151638Y408778D03*
X151638Y468778D03*
X151638Y423778D03*
X151638Y438778D03*
X151638Y453778D03*
X23114Y75974D03*
X23114Y15974D03*
X23114Y60974D03*
X23114Y30974D03*
X23114Y45974D03*
X59436Y75974D03*
X59436Y15974D03*
X59436Y60974D03*
X59436Y30974D03*
X59436Y45974D03*
X95758Y75974D03*
X95758Y15974D03*
X95758Y60974D03*
X95758Y30974D03*
X95758Y45974D03*
X23114Y168430D03*
X23114Y108430D03*
X23114Y153430D03*
X23114Y123430D03*
X23114Y138430D03*
X59436Y168430D03*
X59436Y108430D03*
X59436Y153430D03*
X59436Y123430D03*
X59436Y138430D03*
D11*
X41656Y30616D03*
X41656Y47616D03*
X78232Y30108D03*
X78232Y47108D03*
D10*
X86614Y251954D03*
X86614Y281954D03*
X86614Y266954D03*
D12*
X82550Y329946D03*
X82296Y313690D03*
X82296Y296926D03*
D13*
X121050Y51181D03*
X121050Y86741D03*
X121050Y68961D03*
X121050Y104521D03*
D14*
X84328Y89408D03*
X66465Y341713D03*
X102234Y134874D03*
X102108Y334010D03*
X41910Y75974D03*
X102108Y143510D03*
X101981Y191770D03*
X82804Y396875D03*
X92964Y396875D03*
X82804Y386271D03*
X92964Y372745D03*
X82804Y372745D03*
X92964Y386271D03*
X157353Y383159D03*
X147130Y383159D03*
X135509Y372745D03*
X147130Y372745D03*
X157353Y372745D03*
X135001Y475488D03*
X52070Y208328D03*
X53313Y276987D03*
X61718Y259862D03*
X40138Y263459D03*
X52543Y232393D03*
X134112Y384048D03*
X36830Y360934D03*
X29238Y326542D03*
X66040Y354330D03*
X66548Y328930D03*
X7493Y195961D03*
X7620Y204724D03*
X7747Y187706D03*
X112893Y59700D03*
X75142Y250692D03*
X76342Y241604D03*
X78232Y187706D03*
X33990Y232432D03*
X76034Y260550D03*
X32512Y278384D03*
X19276Y198882D03*
X39878Y208642D03*
X29972Y187706D03*
X99441Y90805D03*
X19304Y188214D03*
X110398Y76201D03*
X91721Y241015D03*
X88200Y231000D03*
M02*
